<svg xmlns="http://www.w3.org/2000/svg"  viewBox="0 0 100 100" width="100px" height="100px"><path d="M61.5,100c-6.683,0-12.55-2.414-16.966-6.981 c-6.972-7.207-6.975-18.021-7.467-24.7c-2.971-1.291-5.5-3.039-7.649-4.524c-1.435-0.99-2.775-1.915-3.905-2.48 c-1.286-0.644-4.795-0.969-6.643-0.969c-2.045,0-3.614,0.414-3.63,0.418c-0.528,0.152-1.133,0.238-1.74,0.238 c-1.315,0-2.585-0.394-3.672-1.138c-1.603-1.099-2.623-2.836-2.801-4.769C5.87,42.366,14.716,35.943,18.046,33.525 c0.347-0.252,0.66-0.472,0.882-0.652c0.188-0.256,0.581-1.082,0.87-1.692c0.826-1.743,1.959-4.131,4.107-6.278 c2.206-2.206,4.603-3.344,6.528-4.258c2.658-1.262,3.211-1.523,3.761-3.722c2.398-9.598,10.829-13.895,18.12-13.895 C63.491,3.028,71,11.255,71,23.5c0.326,0.727,3.026,2.444,4.324,3.27C80.065,29.787,88,34.836,88,45.5 c0,7.471-3.978,13.061-8.698,17.063c0.65,1.279,0.863,2.753,0.572,4.209c-0.118,0.593-0.143,0.906-0.147,1.041 c0.062,0.13,0.175,0.344,0.262,0.509c0.257,0.49,0.58,1.104,0.907,1.874C81.747,70.065,82.616,70,83.5,70 C92.363,70,97,76.791,97,83.5c0,2.158-1.067,4.17-2.854,5.381C93.062,89.614,91.803,90,90.5,90l0,0 c-0.399,0-0.795-0.036-1.183-0.108c-0.1,0.105-0.188,0.2-0.248,0.265c-1.401,1.505-3.521,3.781-6.991,4.649 c-1.261,0.314-2.552,0.474-3.839,0.474c-0.886,0-1.779-0.076-2.662-0.227C72.803,97.498,68.303,100,61.5,100z" opacity=".35"/><path fill="#f2f2f2" d="M59.5,98c-6.683,0-12.55-2.414-16.966-6.981c-6.972-7.207-8.895-18.021-9.387-24.7 c-2.971-1.291-5.5-3.039-7.649-4.524c-1.435-0.99-2.775-1.915-3.905-2.48c-1.286-0.644-2.875-0.969-4.723-0.969 c-2.045,0-3.614,0.414-3.63,0.418c-0.528,0.152-1.133,0.238-1.74,0.238c-1.315,0-2.585-0.394-3.672-1.138 c-1.603-1.099-2.623-2.836-2.801-4.769C3.87,40.366,12.716,33.943,16.046,31.525c0.347-0.252,0.66-0.472,0.882-0.652 c0.188-0.256,0.581-1.082,0.87-1.692c0.826-1.743,1.959-4.131,4.107-6.278c2.206-2.206,4.603-3.344,6.528-4.258 c2.658-1.262,3.211-1.523,3.761-3.722c2.398-9.598,10.829-13.895,18.12-13.895C61.491,1.028,69,9.255,69,21.5 c0.326,0.727,3.026,2.444,4.324,3.27C78.065,27.787,86,32.836,86,43.5c0,7.471-3.978,13.061-8.698,17.063 c0.65,1.279,0.863,2.753,0.572,4.209c-0.118,0.593-0.143,0.906-0.147,1.041c0.062,0.13,0.175,0.344,0.262,0.509 c0.257,0.49,0.58,1.104,0.907,1.874C79.747,68.065,80.616,68,81.5,68C90.363,68,95,74.791,95,81.5c0,2.158-1.067,4.17-2.854,5.381 C91.062,87.614,89.803,88,88.5,88l0,0c-0.399,0-0.795-0.036-1.183-0.108c-0.1,0.105-0.188,0.2-0.248,0.265 c-1.401,1.505-3.521,3.781-6.991,4.649c-1.261,0.314-2.552,0.474-3.839,0.474c-0.886,0-1.779-0.076-2.662-0.227 C70.803,95.498,66.303,98,59.5,98z"/><path fill="#ff7575" d="M50.315,7.528c-3.539,0-10.049,1.909-11.815,8.972c-2,8-8,7-12,11c-2.55,2.55-3,6-5,8s-11,6-10,17 c0,0,7-2,13,1c4.5,2.25,9,7,15,8c0,0-1,30,20,30c9,0,12-6,12-6s3,2,7,1s5-7,10-5c0,0,0-7-7-7c-6,0-9,5-9,5s1.728-4.09,1-7 c-1-4-3-4-2-9c0,0-8,2-8,10c0,5,3,9,3,9s-2,2-5,2c-8,0-2-17-1-22c0,0,19-6,19-19s-17-13-17-22S57.5,7.528,50.315,7.528z"/><polygon fill="#ffe8d9" points="57,55 50.011,59 43,55 45,46 55,46"/><path fill="#739f4d" d="M42.629,51.112c0,0-1.601,3.888-1.601,13.955c0,12.404,4.938,25.117,19.23,25.117 s11.191-5.971,11.191-5.971l5.73,2.427l5.663-3.843l4.787-2.697l-1.416-4.315l-6.876-1.079l-3.91,2.225l-2.36-0.876l-0.674-7.551 l-1.753-4.854l-4.584,3.371c0,0-2.022,3.573-1.348,4.18S63.5,73.5,63.5,73.5l0.534,3.365l1.483,2.494L66.5,82.5l-3.444,1.781 l-4.854-1.213l-1.315-3.843l0.809-9.91c0,0,3.64-10.247-0.067-18.337l-7.632,7.026L42.629,51.112z"/><path fill="#96c362" d="M67.506,81.331L65,79l-1-7l2-5l4-3l2,4l1.725,6.876L72.5,79.5L75,78l4-3 c0,0,3.348,0.663,3.674,0.331S87,77,87,77l1.388,2.781L86,82l-4,2l-3.5,2.5L73,87l-1.032-2.921L67.506,81.331z"/><path fill="none" stroke="#40396e" stroke-linecap="round" stroke-linejoin="round" stroke-miterlimit="10" stroke-width="3" d="M50.315,7.528c-3.539,0-10.049,1.909-11.815,8.972c-2,8-8,7-12,11c-2.55,2.55-3,6-5,8s-11,6-10,17c0,0,7-2,13,1c4.5,2.25,9,7,15,8 c0,0-1,30,20,30c9,0,12-6,12-6s3,2,7,1s5-7,10-5c0,0,0-7-7-7c-6,0-9,5-9,5s1.728-4.09,1-7c-1-4-3-4-2-9c0,0-8,2-8,10c0,5,3,9,3,9 s-2,2-5,2c-8,0-2-17-1-22c0,0,19-6,19-19s-17-13-17-22S57.5,7.528,50.315,7.528z"/><ellipse cx="50" cy="19.5" fill="#ffe8d9" rx="6" ry="7.5"/><path fill="#ff7575" d="M42,20c0,0,8.618,1.461,13-8l-3-1h-6l-3,4L42,20z"/><path fill="#ff7575" d="M50,13c0,0,4,6,8,6l-2-7L50,13z"/><rect width="4" height="6" x="48" y="25" fill="#ffe8d9"/><polygon fill="#ffe8d9" points="59,39 41,39 43,31 47.955,29 52.236,29 57,31"/><path fill="#ffe8d9" d="M43,39l-2,5l-11,8c0,0-0.573-2.522,1-4c1.164-1.093,2.463-1.211,2.463-1.211L39,40l2.196-8.052 C41.671,30.207,43.251,29,45.055,29H48L43,39z"/><path fill="#ffe8d9" d="M56.898,39l2,5l11,8c0,0,0.573-2.522-1-4c-1.164-1.093-2.463-1.211-2.463-1.211L60.898,40 l-2.196-8.052C58.227,30.207,56.647,29,54.843,29h-2.945L56.898,39z"/><polygon fill="#ffe8d9" points="55,46 45,46 44,38 56,38"/><path fill="#707cc0" d="M50,38c0,1.657-2.168,3-4.101,3C43.966,41,43,39.657,43,38s0.966-3,2.899-3 C47.832,35,50,36.343,50,38z"/><path fill="#707cc0" d="M57,38c0,1.657-0.943,3-2.876,3C52.191,41,50,39.657,50,38s2.191-3,4.124-3 C56.057,35,57,36.343,57,38z"/><path fill="#96c362" d="M50,58c1.164-0.111,6.596-1.832,8-2c1.645-0.197,3-1.343,3-3s-1.343-3-3-3C55,50,50,58,50,58z"/><path fill="#96c362" d="M50.028,58c-1.164-0.111-6.596-1.832-8-2c-1.645-0.197-3-1.343-3-3s1.343-3,3-3 C45.028,50,50.028,58,50.028,58z"/></svg>