<svg xmlns="http://www.w3.org/2000/svg"  viewBox="0 0 100 100" width="100px" height="100px"><path d="M51.997,97c-18.067-0.001-28.402-5.159-29.521-5.747 c-2.732-1.435-4.083-4.626-3.21-7.589l2.343-7.965C21,72,15.067,70.4,15.001,66.118c-1.525-2.506-1.729-5.697-0.35-8.455 l2.035-4.07c1.015-2.028,2.739-3.557,4.869-4.318l3.494-6.169C24.959,41.563,25.853,36.248,26,35 C9.804,29.3,5.585,22.515,5.229,21.211c-0.53-1.943-0.116-4.058,1.107-5.657C7.553,13.956,9.485,13,11.5,13h25.72 C41.034,9.804,46.291,8.006,52,8.006S62.966,9.804,66.78,13h25.714c2.015,0,3.947,0.956,5.168,2.559 c1.219,1.595,1.633,3.709,1.103,5.651c-0.356,1.305-3.736,12.011-19.933,17.711c0.147,1.248,0.203,4.457,0.113,5.999l2.096,3.802 c1.819-0.303,3.213,1.012,4.228,3.042l3.433,6.438c1.377,2.753,1.816,5.401,0.296,7.906c-0.062,4.289-2.768,7.972-6.612,9.593 l2.343,7.965c0.872,2.961-0.479,6.152-3.212,7.588C80.4,91.841,70.064,96.999,51.997,97C51.997,97,51.997,97,51.997,97z" opacity=".35"/><path fill="#f2f2f2" d="M49.997,95c-18.067-0.001-28.402-5.159-29.521-5.747c-2.732-1.435-4.083-4.626-3.21-7.589 l2.343-7.965c-3.838-1.621-6.541-5.299-6.606-9.581c-1.525-2.506-1.729-5.697-0.35-8.455l2.035-4.07 c1.015-2.028,2.739-3.557,4.869-4.318l3.494-6.169c-0.089-1.542-0.034-2.937,0.113-4.185c-16.196-5.7-19.577-16.406-19.933-17.71 c-0.53-1.943-0.116-4.058,1.107-5.657C5.553,11.956,7.485,11,9.5,11h25.72C39.034,7.804,44.291,6.006,50,6.006 S60.966,7.804,64.78,11h25.714c2.015,0,3.947,0.956,5.168,2.559c1.219,1.595,1.633,3.709,1.103,5.651 c-0.356,1.305-3.736,12.011-19.933,17.711c0.147,1.248,0.203,2.643,0.113,4.185l3.494,6.17c2.127,0.759,3.853,2.287,4.869,4.317 l2.035,4.07c1.377,2.753,1.176,5.94-0.344,8.445c-0.062,4.289-2.768,7.972-6.612,9.593l2.343,7.965 c0.872,2.961-0.479,6.152-3.212,7.588C78.4,89.841,68.064,94.999,49.997,95C49.997,95,49.997,95,49.997,95z"/><path fill="#fedeb3" d="M90.494,18.5H62.107c-2.423-2.983-6.931-4.994-12.107-4.994s-9.684,2.011-12.107,4.994H9.5 c0,0,3,11,22,15c0,0-2.781,4.017-1.781,11.017L23.5,54.5c-1.105-0.552-2.448-0.105-3,1l-2.035,4.07 c-0.538,1.077-0.128,2.387,0.929,2.963l0.714,0.39c-0.376,0.603-0.608,1.291-0.608,2.036c0,2.278,2.015,4.125,4.5,4.125 c1.615,0,3.02-0.786,3.814-1.958L28.5,67.5l-5,17c0,0,9.499,4.999,26.497,5c16.998-0.001,26.497-5,26.497-5l-5-17l0.69-0.377 c0.794,1.172,2.199,1.96,3.815,1.96c2.485,0,4.5-1.847,4.5-4.125c0-0.745-0.232-1.435-0.61-2.038l0.71-0.387 c1.057-0.576,1.468-1.886,0.929-2.963l-2.035-4.07c-0.552-1.105-1.895-1.552-3-1l-6.219-9.983c1-7-1.781-11.017-1.781-11.017 C87.494,29.5,90.494,18.5,90.494,18.5z"/><path fill="#f9b84f" d="M69,43c0,0-8,7-19,7s-19-7-19-7V30h38V43z"/><polygon fill="#96c362" points="50,89.5 49.997,89.5 49.994,89.5"/><path fill="#96c362" d="M60.671,18c-2.663-2.455-6.452-4-10.671-4s-8.008,1.545-10.671,4H10l3,7l7,4l11,2.067h0.431 c2.681,0,5.258,3.103,7.057,5.091C41.153,39.103,45.315,41,50,41s8.847-1.897,11.512-4.842c1.799-1.988,4.375-5.091,7.057-5.091H69 L75,31l6-3l4-2l6-8H60.671z"/><path fill="#e66f2e" d="M81,22H65.269C65.739,23.261,66,24.603,66,26c0,0.903-0.107,1.785-0.31,2.637 C69.636,27.977,76.06,26.234,81,22z"/><path fill="#e66f2e" d="M34,26c0-1.397,0.261-2.739,0.731-4H19c4.94,4.234,11.364,5.977,15.31,6.637 C34.107,27.785,34,26.903,34,26z"/><path fill="#40396e" d="M47,31c0,0-1.239,2-4,2c-4,0-5-4-5-4s0.73-2,4-2C46,27,47,31,47,31z"/><path fill="#40396e" d="M53,31c0,0,1.239,2,4,2c4,0,5-4,5-4s-0.73-2-4-2C54,27,53,31,53,31z"/><circle cx="43" cy="29" r="1" fill="#fff"/><circle cx="57" cy="29" r="1" fill="#fff"/><path fill="#40396e" d="M49.999,26.998c-0.29,0-0.58-0.083-0.831-0.25c-0.037-0.024-4.115-2.653-9.421-1.769 c-0.816,0.132-1.59-0.416-1.726-1.232c-0.136-0.817,0.416-1.591,1.233-1.727c5.024-0.835,9.068,0.866,10.747,1.749 c1.678-0.883,5.722-2.588,10.747-1.749c0.817,0.136,1.369,0.909,1.233,1.727c-0.136,0.816-0.909,1.365-1.726,1.232 c-5.302-0.882-9.385,1.745-9.426,1.771C50.577,26.916,50.288,26.998,49.999,26.998z" opacity=".35"/><path fill="#40396e" d="M50,36c-2,0-3-2-3-2h6C53,34,52,36,50,36z" opacity=".35"/><path fill="#96c362" d="M28.94,63.515C28.94,66.001,26.485,68,24,68s-4.5-2.015-4.5-4.5S21.515,59,24,59 S28.94,61.03,28.94,63.515z"/><path fill="#f9b84f" d="M22.042,54.385l9.533,4.986c0.435,0.228,0.641,0.738,0.485,1.204l-2.145,6.405l-0.926-1.923 L18.36,59.256L22.042,54.385z"/><path fill="#96c362" d="M71.077,63.515c0,2.485,2.454,4.485,4.94,4.485s4.5-2.015,4.5-4.5s-2.015-4.5-4.5-4.5 S71.077,61.03,71.077,63.515z"/><path fill="#f9b84f" d="M77.974,54.385l-9.533,4.986c-0.435,0.228-0.641,0.738-0.485,1.204l2.145,6.405l0.926-1.923 l10.629-5.801L77.974,54.385z"/><rect width="10" height="41" x="45" y="47" fill="#f9b84f"/><path fill="none" stroke="#40396e" stroke-linecap="round" stroke-linejoin="round" stroke-miterlimit="10" stroke-width="3" d="M90.494,17.5H62.107c-2.423-2.983-6.931-4.994-12.107-4.994s-9.684,2.011-12.107,4.994H9.5c0,0,3,11,22,15 c0,0-2.781,3.017-1.781,10.017L23.5,53.5c-1.105-0.552-2.448-0.105-3,1l-2.035,4.07c-0.538,1.077-0.128,2.387,0.929,2.963 l0.714,0.39c-0.376,0.603-0.608,1.291-0.608,2.036c0,2.278,2.015,4.125,4.5,4.125c1.615,0,3.02-0.786,3.814-1.958L28.5,66.5l-5,17 c0,0,9.499,4.999,26.497,5c16.998-0.001,26.497-5,26.497-5l-5-17l0.69-0.377c0.794,1.172,2.199,1.96,3.815,1.96 c2.485,0,4.5-1.847,4.5-4.125c0-0.745-0.232-1.435-0.61-2.038l0.71-0.387c1.057-0.576,1.468-1.886,0.929-2.963l-2.035-4.07 c-0.552-1.105-1.895-1.552-3-1l-6.219-10.983c1-7-1.781-10.017-1.781-10.017C87.494,28.5,90.494,17.5,90.494,17.5z"/></svg>