<svg xmlns="http://www.w3.org/2000/svg"  viewBox="0 0 100 100" width="100px" height="100px"><path d="M51.271,99.562c-2.628,0-5.044-0.241-7.182-0.717C41.094,98.18,39,95.57,39,92.5v-1.317 c-1-3.183-3.831-2.91-4.895-5.038c-11.665-2.334-14.996-8.726-15.577-10.078c-0.59-1.373-0.688-2.917-0.279-4.351l2.377-8.317 C18,60.412,16.5,56.537,16.5,52.5c0-4.094,1.568-8.069,4.293-11.084c0.025-3.584,1.33-6.171,2.527-7.793l2.734-20.964 c0.324-2.478,1.993-4.513,4.355-5.313C31.085,7.116,31.787,7,32.499,7c0.698,0,1.379,0.109,2.023,0.32 c1.165-1.386,2.871-2.243,4.724-2.315c0.065-0.003,0.213-0.006,0.277-0.006c1.065,0,2.085,0.256,2.989,0.729 c0.781-0.404,1.646-0.652,2.549-0.713C45.174,5.007,45.379,5,45.491,5c1.269,0,2.481,0.361,3.515,1.023 C50.036,5.368,51.247,5,52.5,5c1.582,0,3.098,0.586,4.267,1.601C57.613,6.207,58.542,6,59.502,6c0.436,0,0.872,0.044,1.299,0.131 c1.466,0.302,2.752,1.082,3.681,2.191C65.132,8.109,65.813,8,66.501,8c0.938,0,1.884,0.209,2.733,0.604 c0.792,0.366,1.491,0.883,2.063,1.51C71.693,10.039,72.096,10,72.5,10c0.972,0,1.946,0.223,2.82,0.645 c0.68,2.355,2.61,1.953,3.208,3.437c0.934,0.148,1.824,0.5,2.617,1.038c0.386,0.261,0.737,0.559,1.052,0.888 c0.102-0.005,0.202-0.008,0.304-0.008c1.432,0,2.843,0.482,3.975,1.358c2.123,1.635,3.017,4.366,2.267,6.952 c-2.875,9.951-8.274,29.506-10.125,39.056C80.742,65.488,82,68.402,82,71.5c0,3.059-1.18,5.937-3.32,8.104 c-1.222,1.236-2.674,2.158-4.263,2.728c-0.697,3.939-0.693,6.142-0.543,6.896c0.657,3.279-1.26,6.499-4.46,7.485 C68.47,97.003,59.928,99.562,51.271,99.562z" opacity=".35"/><path fill="#f2f2f2" d="M49.271,97.562c-2.628,0-5.044-0.241-7.182-0.717C39.094,96.18,37,93.57,37,90.5v-1.317 c-2.164-1.193-3.831-2.91-4.895-5.038c-11.665-2.334-14.996-8.726-15.577-10.078c-0.59-1.373-0.688-2.917-0.279-4.351l2.377-8.317 C16,58.412,14.5,54.537,14.5,50.5c0-4.094,1.568-8.069,4.293-11.084c0.025-3.584,1.33-6.171,2.527-7.793l2.734-20.964 c0.324-2.478,1.993-4.513,4.355-5.313C29.085,5.116,29.787,5,30.499,5c0.698,0,1.379,0.109,2.023,0.32 c1.165-1.386,2.871-2.243,4.724-2.315c0.065-0.003,0.213-0.006,0.277-0.006c1.065,0,2.085,0.256,2.989,0.729 c0.781-0.404,1.646-0.652,2.549-0.713C43.174,3.007,43.379,3,43.491,3c1.269,0,2.481,0.361,3.515,1.023 C48.036,3.368,49.247,3,50.5,3c1.582,0,3.098,0.586,4.267,1.601C55.613,4.207,56.542,4,57.502,4c0.436,0,0.872,0.044,1.299,0.131 c1.466,0.302,2.752,1.082,3.681,2.191C63.132,6.109,63.813,6,64.501,6c0.938,0,1.884,0.209,2.733,0.604 c0.792,0.366,1.491,0.883,2.063,1.51C69.693,8.039,70.096,8,70.5,8c0.972,0,1.946,0.223,2.82,0.645 c1.477,0.706,2.61,1.953,3.208,3.437c0.934,0.148,1.824,0.5,2.617,1.038c0.386,0.261,0.737,0.559,1.052,0.888 c0.102-0.005,0.202-0.008,0.304-0.008c1.432,0,2.843,0.482,3.975,1.358c2.123,1.635,3.017,4.366,2.267,6.952 c-2.875,9.951-8.274,29.506-10.125,39.056C78.742,63.488,80,66.402,80,69.5c0,3.059-1.18,5.937-3.32,8.104 c-1.222,1.236-2.674,2.158-4.263,2.728c-0.697,3.939-0.693,6.142-0.543,6.896c0.657,3.279-1.26,6.499-4.46,7.485 C66.47,95.003,57.928,97.562,49.271,97.562z"/><path fill="#ffc571" d="M69.546,64.613C70.283,55.796,80.5,20.5,80.5,20.5l-5,3v-5l-5,2v-6l-5,4l-1-6l-5,3l-2-5l-4,4l-3-5 l-3,5l-4-5l-3,5l-3-5l-3,6l-4-4l-3,23c0,0-3,2-2,7l0.566,0.309C23.043,43.529,21,46.773,21,50.5c0,3.709,2.025,6.94,5.024,8.666 L22.5,71.5c0,0,2.458,5.731,14.779,6.821C37.27,80.468,38.14,83.83,43.5,84.5v6c9,2,22-2,22-2 c-0.753-3.763,0.76-10.925,1.555-14.237c0.46,0.14,0.939,0.237,1.445,0.237c2.761,0,5-2.239,5-5 C73.5,67.098,71.804,65.095,69.546,64.613z"/><circle cx="48.5" cy="51" r="9.5" fill="#f2f2f2"/><path fill="none" stroke="#40396e" stroke-linecap="round" stroke-linejoin="round" stroke-miterlimit="10" stroke-width="3" d="M69.546,64.613C70.283,55.796,80.5,20.5,80.5,20.5l-5,3v-5l-5,2v-6l-5,4l-1-6l-5,3l-2-5l-4,4l-3-5l-3,5l-4-5l-3,5l-3-5l-3,6l-4-4 l-3,23c0,0-3,2-2,7l0.566,0.309C23.043,43.529,21,46.773,21,50.5c0,3.709,2.025,6.94,5.024,8.666L22.5,71.5 c0,0,2.458,5.731,14.779,6.821C37.27,80.468,38.14,83.83,43.5,84.5v6c9,2,22-2,22-2c-0.753-3.763,0.76-10.925,1.555-14.237 c0.46,0.14,0.939,0.237,1.445,0.237c2.761,0,5-2.239,5-5C73.5,67.098,71.804,65.095,69.546,64.613z"/><path fill="#40396e" d="M58.332,76.252c-2.236-1.491-2.329-3.645-2.332-3.767C55.992,71.664,55.323,71,54.5,71 c-0.828,0-1.5,0.672-1.5,1.5c0,0.074,0.014,0.951,0.417,2.107c-8.638,2.691-15.996,2.245-16.072,2.238 c-0.808-0.053-1.541,0.571-1.597,1.396c-0.056,0.826,0.568,1.541,1.394,1.597c0.09,0.007,0.685,0.044,1.68,0.044 c2.878,0,9.106-0.319,16.141-2.621c0.455,0.519,1.014,1.025,1.705,1.486C56.924,78.919,57.213,79,57.499,79 c0.484,0,0.96-0.234,1.249-0.668C59.208,77.643,59.021,76.712,58.332,76.252z" opacity=".35"/><circle cx="49" cy="51" r="2" fill="#40396e"/><path fill="#40396e" d="M35,63V53h-1.273c-3.303,0-6.251,2.368-6.672,5.644C26.546,62.608,29.634,66,33.5,66h7 c0.828,0,1.5-0.672,1.5-1.5l0,0c0-0.828-0.672-1.5-1.5-1.5H35z" opacity=".35"/><circle cx="30.899" cy="50.5" r="8.427" fill="#f2f2f2"/><circle cx="32" cy="51" r="2" fill="#40396e"/><path fill="#ffc571" d="M39,63h-5.5c-1.933,0-3.5-1.567-3.5-3.5v0c0-1.933,1.567-3.5,3.5-3.5H39V63z"/></svg>