<svg xmlns="http://www.w3.org/2000/svg"  viewBox="0 0 100 100" width="100px" height="100px"><path d="M50.812,99.992c-7.336-0.067-9.712-1.652-10.495-2.175c-0.288-0.191-0.57-0.415-0.832-0.659 c-4.589-4.293-19.558-19.146-19.558-30.108c0-1.216,0.07-2.323,0.133-3.3c0.192-2.993,0.374-5.817-1.398-13.115 c-2.32-9.558-4.051-21.523,4.848-42.658c0.553-1.312,1.538-2.41,2.772-3.115c0.663-0.433,1.429-0.712,2.241-0.788 c0.243-0.038,0.488-0.061,0.733-0.07C29.319,4.002,29.435,4,29.498,4c2.459,0,2.452,1.696,3.566,3.886l3.346,6.563 c3.415-1.321,9.537-2.37,13.868-2.463c0.176-0.016,0.353-0.025,0.532-0.025c0.075,0,0.148,0.001,0.221,0.004 c0.074-0.002,0.146-0.004,0.22-0.004c0.181,0,0.357,0.009,0.533,0.025c4.33,0.093,8.224,0.807,11.638,2.127l3.35-6.567 c1.117-2.188,3.349-3.545,5.823-3.545c0.061,0,0.144,0.001,0.204,0.003c0.088,0.003,0.176,0.008,0.263,0.015 C73.207,4.006,73.354,4,73.502,4c0.098,0,0.195,0.003,0.294,0.009c1.979,0.116,3.697,1.39,4.389,3.237 c0.138,0.233,0.258,0.473,0.362,0.719c8.904,21.148,7.174,33.113,4.854,42.67c-1.772,7.299-1.591,10.124-1.399,13.114 c0.063,0.979,0.134,2.085,0.134,3.302c0,10.961-14.969,25.815-19.556,30.106c-0.264,0.246-0.546,0.47-0.843,0.667 c-0.774,0.517-3.149,2.101-10.479,2.169c-0.052,0.001-0.104,0.002-0.155,0.002C51.102,99.995,50.863,99.994,50.812,99.992z" opacity=".35"/><path fill="#f2f2f2" d="M48.812,97.992c-7.336-0.067-9.712-1.652-10.495-2.175c-0.288-0.191-0.57-0.415-0.832-0.659 c-4.589-4.293-19.558-19.146-19.558-30.108c0-1.216,0.07-2.323,0.133-3.3c0.192-2.993,0.374-5.817-1.398-13.115 c-2.32-9.558-4.051-21.523,4.848-42.658c0.553-1.312,1.538-2.41,2.772-3.115c0.663-0.433,1.429-0.712,2.241-0.788 c0.243-0.038,0.488-0.061,0.733-0.07C27.319,2.002,27.435,2,27.498,2c2.459,0,4.68,1.361,5.794,3.551l3.346,6.563 c3.415-1.321,7.31-2.035,11.641-2.128c0.176-0.016,0.353-0.025,0.532-0.025c0.075,0,0.148,0.001,0.221,0.004 c0.074-0.002,0.146-0.004,0.22-0.004c0.181,0,0.357,0.009,0.533,0.025c4.33,0.093,8.224,0.807,11.638,2.127l3.35-6.567 c1.117-2.188,3.349-3.545,5.823-3.545c0.061,0,0.144,0.001,0.204,0.003c0.088,0.003,0.176,0.008,0.263,0.015 C71.207,2.006,71.354,2,71.502,2c0.098,0,0.195,0.003,0.294,0.009c1.979,0.116,3.697,1.39,4.389,3.237 c0.138,0.233,0.258,0.473,0.362,0.719c8.904,21.148,7.174,33.113,4.854,42.67c-1.772,7.299-1.591,10.124-1.399,13.114 c0.063,0.979,0.134,2.085,0.134,3.302c0,10.961-14.969,25.815-19.556,30.106c-0.264,0.246-0.546,0.47-0.843,0.667 c-0.774,0.517-3.149,2.101-10.479,2.169c-0.052,0.001-0.104,0.002-0.155,0.002C49.102,97.995,48.863,97.994,48.812,97.992z"/><path fill="#ffc7a3" d="M33.251,81l8.672,7.781c2.17,1.447,4.72,2.219,7.328,2.219l0,0c2.608,0,5.158-0.216,7.328-1.663 L65.251,81l4-30h-40L33.251,81z"/><polygon fill="#40396e" points="52,82 46,82 43,79 55,79" opacity=".35"/><polygon fill="#40396e" points="45.727,73 52.273,73 58,76 40,76" opacity=".35"/><path fill="#707cc0" d="M71.503,7c0,0-3.25,6.863-6.624,14.673C61.267,18.204,56.171,16,49.251,16 c-7.122,0-12.202,2.087-15.749,5.39C30.172,13.697,27,7,27,7c-6,18-5.489,27.03-5,31c1.008,8.184,4.753,19.986,4.025,24.357 l-0.013,0.076c-0.492,2.954,0.05,5.987,1.536,8.587L33.251,81l-2-21l17.935,8.438L67,60l-2,21l6.247-9.09 c1.486-2.6,1.736-6.523,1.244-9.477l-0.013-0.076C71.75,57.986,75.495,46.184,76.503,38C76.992,34.03,77.503,25,71.503,7z"/><path fill="none" stroke="#40396e" stroke-linecap="round" stroke-linejoin="round" stroke-miterlimit="10" stroke-width="3" d="M49.251,16.461c-6.83,0-11.789,1.705-15.312,4.639"/><path fill="none" stroke="#40396e" stroke-linecap="round" stroke-linejoin="round" stroke-miterlimit="10" stroke-width="3" d="M49.101,91.494c-3.071-0.011-6.111-0.373-7.178-1.085c0,0-17.496-16.359-17.496-25.359c0-4.431,1.146-7.264-1.449-17.949 C20.761,37.974,19.5,27.5,27.5,8.5l6.331,12.421"/><path fill="none" stroke="#40396e" stroke-linecap="round" stroke-linejoin="round" stroke-miterlimit="10" stroke-width="3" d="M48.811,16.461c6.83,0,11.789,1.705,15.312,4.639"/><path fill="none" stroke="#40396e" stroke-linecap="round" stroke-linejoin="round" stroke-miterlimit="10" stroke-width="3" d="M48.96,91.494c3.071-0.011,6.111-0.373,7.178-1.085c0,0,17.496-16.359,17.496-25.359c0-4.431-1.146-7.264,1.449-17.949 C77.301,37.974,78.562,27.5,70.562,8.5l-6.33,12.409"/><path fill="#f2f2f2" d="M30.75,46L43,51.25c0,0-1.75,1.75-5.25,1.75C31.625,53,30.75,46,30.75,46z"/><path fill="#f2f2f2" d="M68,46l-12.25,5.25c0,0,1.75,1.75,5.25,1.75C67.125,53,68,46,68,46z"/><path fill="#40396e" d="M49.185,68.438l-0.211-19.483c-7.129-4.045-11.368-8.517-11.368-15.798 c0-14.629,13.593-15.194,13.593-15.194c-3.16-0.278-8.369,0.361-10.337,1.058l-1.065-0.931l-4.652,2.427l-1.719,0.303L27.966,9.798 l-1.82,1.719l-3.742,13.247l-1.213,11.225l3.438,18.202L23.82,66.124l9.303,12.438L31.251,60l0.002-0.045L30.75,46l12.249,5.254 l-4.65,12.106L49.185,68.438z" opacity=".35"/></svg>