<svg xmlns="http://www.w3.org/2000/svg"  viewBox="0 0 100 100" width="100px" height="100px"><path d="M51.904,95.994c-0.135,0-0.268-0.004-0.401-0.013 c-0.134,0.009-0.267,0.013-0.401,0.013c-7.563-0.028-9.988-1.646-10.785-2.178c-0.107-0.07-0.243-0.168-0.378-0.271 C39.105,92.894,20,77.699,20,55.5c0-1.315,0.023-2.214,0.044-2.953c0.033-1.25,0.048-1.77-0.12-3.505 c-0.09-0.933-0.205-1.843-0.32-2.758C19.32,44.023,19,41.469,19,38.5c0-2.501,0.171-6.643,0.975-12.28 c-0.031-0.538-0.066-1.072-0.102-1.604c-0.318-4.842-0.647-9.848,1.461-16.172c0.711-2.13,2.509-3.768,4.692-4.275 C26.509,4.057,27.005,4,27.5,4c1.724,0,3.408,0.703,4.621,1.929l4.981,5.035c0.604-0.371,1.263-0.64,1.957-0.796 c0.113-0.04,0.56-0.193,0.56-0.193c0.286-0.101,0.589-0.2,0.9-0.301c0.432-0.136,0.832-0.258,1.24-0.37 c0.438-0.122,0.912-0.236,1.391-0.348l0.218-0.052c0.22-0.053,0.438-0.104,0.662-0.151c2.561-0.531,5.244-0.802,7.97-0.802 c4.566,0,8.939,0.857,12.997,2.549c0.005,0.002,0.023,0.01,0.028,0.012c0.301,0.125,0.599,0.255,0.894,0.39l4.987-4.994 c1.214-1.214,2.89-1.908,4.599-1.908c0.514,0,1.026,0.062,1.524,0.182c2.177,0.512,3.927,2.11,4.644,4.267 c2.107,6.321,1.778,11.327,1.46,16.168c0,0-0.076,1.167-0.102,1.605c0.804,5.633,0.975,9.777,0.975,12.279 c0,2.969-0.32,5.523-0.603,7.777c-0.116,0.922-0.231,1.832-0.321,2.764c-0.168,1.736-0.153,2.256-0.12,3.51 c0.021,0.735,0.044,1.634,0.044,2.949c0,22.199-19.105,37.394-19.919,38.029c-0.154,0.119-0.29,0.217-0.429,0.308 c-0.766,0.512-3.19,2.129-10.73,2.157c-0.006,0-0.013,0-0.019,0H51.904z" opacity=".35"/><path fill="#f2f2f2" d="M49.904,93.994c-0.135,0-0.268-0.004-0.401-0.013c-0.134,0.009-0.267,0.013-0.401,0.013 c-7.563-0.028-9.988-1.646-10.785-2.178c-0.107-0.07-0.243-0.168-0.378-0.271C37.105,90.894,18,75.699,18,53.5 c0-1.315,0.023-2.214,0.044-2.953c0.033-1.25,0.048-1.77-0.12-3.505c-0.09-0.933-0.205-1.843-0.32-2.758 C17.32,42.023,17,39.469,17,36.5c0-2.501,0.171-6.643,0.975-12.28c-0.031-0.538-0.066-1.072-0.102-1.604 c-0.318-4.842-0.647-9.848,1.461-16.172c0.711-2.13,2.509-3.768,4.692-4.275C24.509,2.057,25.005,2,25.5,2 c1.724,0,3.408,0.703,4.621,1.929l4.981,5.035c0.604-0.371,1.263-0.64,1.957-0.796c0.113-0.04,0.56-0.193,0.56-0.193 c0.286-0.101,0.589-0.2,0.9-0.301c0.432-0.136,0.832-0.258,1.24-0.37c0.438-0.122,0.912-0.236,1.391-0.348l0.218-0.052 c0.22-0.053,0.438-0.104,0.662-0.151c2.561-0.531,5.244-0.802,7.97-0.802c4.566,0,8.939,0.857,12.997,2.549 c0.005,0.002,0.023,0.01,0.028,0.012c0.301,0.125,0.599,0.255,0.894,0.39l4.987-4.994c1.214-1.214,2.89-1.908,4.599-1.908 c0.514,0,1.026,0.062,1.524,0.182c2.177,0.512,3.927,2.11,4.644,4.267c2.107,6.321,1.778,11.327,1.46,16.168 c0,0-0.076,1.167-0.102,1.605c0.804,5.633,0.975,9.777,0.975,12.279c0,2.969-0.32,5.523-0.603,7.777 c-0.116,0.922-0.231,1.832-0.321,2.764c-0.168,1.736-0.153,2.256-0.12,3.51c0.021,0.735,0.044,1.634,0.044,2.949 c0,22.199-19.105,37.394-19.919,38.029c-0.154,0.119-0.29,0.217-0.429,0.308c-0.766,0.512-3.19,2.129-10.73,2.157 c-0.006,0-0.013,0-0.019,0H49.904z"/><path fill="#ffc7a3" d="M33.251,77l8.672,7.781c2.17,1.447,4.72,2.219,7.328,2.219l0,0c2.608,0,5.158-0.216,7.328-1.663 L65.251,77l4-30h-40L33.251,77z"/><path fill="#707cc0" d="M74,9c0,0-5,1-9,8c-3.612-3.469-8.829-5-15.749-5c-7.122,0-12.202,2.087-15.749,5.39 C30.172,9.697,25,9,25,9c-3.379,10.137-0.584,10.854-1,16c-0.322,3.991-1.213,7.266-1,9c1.008,8.184,2,24,2,24 c-0.492,2.954,1.062,6.42,2.548,9.02L33.251,77l9.176,9.865l13.045-0.202L65,77l6.247-9.09C72.733,65.31,74,58,74,58 c-0.728-4.371-0.008-15.816,1-24C75.489,30.03,75,29,74,9z"/><path fill="none" stroke="#d9eeff" stroke-linecap="round" stroke-linejoin="round" stroke-miterlimit="10" stroke-width="3" d="M46.5,45.5l-15-8V19.079c0,0,5.871-6.628,18.5-6.628c11.337,0,17.5,6.527,17.5,6.527V37.5l-15,8"/><path fill="#f2f2f2" d="M30.75,44L43,49.25c0,0-1.75,1.75-5.25,1.75C31.625,51,30.75,44,30.75,44z"/><path fill="#f2f2f2" d="M68,44l-12.25,5.25c0,0,1.75,1.75,5.25,1.75C67.125,51,68,44,68,44z"/><polyline fill="none" stroke="#d9eeff" stroke-linecap="round" stroke-linejoin="round" stroke-miterlimit="10" stroke-width="3" points="46.5,45.5 38.5,33.5 38.5,14.5"/><polyline fill="none" stroke="#d9eeff" stroke-linecap="round" stroke-linejoin="round" stroke-miterlimit="10" stroke-width="3" points="60.5,14.5 60.5,33.5 52.5,45.5"/><line x1="50" x2="50" y1="12.5" y2="25.5" fill="none" stroke="#d9eeff" stroke-linecap="round" stroke-linejoin="round" stroke-miterlimit="10" stroke-width="3"/><line x1="31.5" x2="24.5" y1="37.5" y2="24.5" fill="none" stroke="#d9eeff" stroke-linecap="round" stroke-linejoin="round" stroke-miterlimit="10" stroke-width="3"/><line x1="74.5" x2="67.5" y1="24.5" y2="37.5" fill="none" stroke="#d9eeff" stroke-linecap="round" stroke-linejoin="round" stroke-miterlimit="10" stroke-width="3"/><path fill="none" stroke="#40396e" stroke-linecap="round" stroke-linejoin="round" stroke-miterlimit="10" stroke-width="3" d="M50,12.461c-6.83,0-12.427,1.949-16.061,4.639"/><path fill="none" stroke="#40396e" stroke-linecap="round" stroke-linejoin="round" stroke-miterlimit="10" stroke-width="3" d="M50,12.461c5.5,0,10.882,1.646,14.607,4.292"/><polyline fill="none" stroke="#d9eeff" stroke-linecap="round" stroke-linejoin="round" stroke-miterlimit="10" stroke-width="3" points="52.5,45.5 52.5,53.5 46.5,53.5 46.5,45.5"/><polyline fill="none" stroke="#d9eeff" stroke-linecap="round" stroke-linejoin="round" stroke-miterlimit="10" stroke-width="3" points="46.5,53.5 32.5,56.5 24.5,43.5 31.5,37.5"/><polyline fill="none" stroke="#d9eeff" stroke-linecap="round" stroke-linejoin="round" stroke-miterlimit="10" stroke-width="3" points="52.5,53.5 66.5,56.5 74.5,43.5 67.5,37.5"/><path fill="none" stroke="#d9eeff" stroke-linecap="round" stroke-linejoin="round" stroke-miterlimit="10" stroke-width="3" d="M53.6,63.5c0,0-2.1-1-4.35-1c-2.75,0-4.35,1-4.35,1l-2.9-9h14.5L53.6,63.5z"/><polyline fill="none" stroke="#d9eeff" stroke-linecap="round" stroke-linejoin="round" stroke-miterlimit="10" stroke-width="3" points="28.5,66.5 34.5,66.5 40.5,74.5 37.393,79.719"/><polyline fill="none" stroke="#d9eeff" stroke-linecap="round" stroke-linejoin="round" stroke-miterlimit="10" stroke-width="3" points="70.5,66.5 64.5,66.5 58.5,74.5 61.607,79.719"/><path fill="none" stroke="#40396e" stroke-linecap="round" stroke-linejoin="round" stroke-miterlimit="10" stroke-width="3" d="M49.101,87.494c-3.071-0.011-6.111-0.373-7.178-1.085c0,0-17.423-13.612-17.423-32.91c0-3.702,0.203-3.883-0.107-7.084 C24.081,43.188,23.5,40.207,23.5,36.5c0-5.826,1.004-11.922,1-12c-0.275-5.287-1-10,1-16l8.331,8.421"/><path fill="none" stroke="#40396e" stroke-linecap="round" stroke-linejoin="round" stroke-miterlimit="10" stroke-width="3" d="M49.904,87.494c3.071-0.011,6.111-0.373,7.178-1.085c0,0,17.423-13.612,17.423-32.91c0-3.702-0.203-3.883,0.107-7.084 c0.312-3.227,0.893-6.208,0.893-9.916c0-5.826-1.004-11.922-1-12c0.275-5.287,1-10-1-16l-8.503,8.514"/></svg>