<svg xmlns="http://www.w3.org/2000/svg"  viewBox="0 0 100 100" width="100px" height="100px"><path d="M24.5,97c-3.584,0-6.5-2.916-6.5-6.5v-0.552 c-1.073-3.364-6-6.428-6-10.948c0-1.125,0.142-2.229,0.419-3.293C9.628,72.687,8,68.675,8,64.5c0-3.107,0.954-6.168,2.669-8.795 C8.32,52.625,7,48.873,7,45c0-6.493,3.548-12.405,9.005-15.572C16.002,29.285,16,29.143,16,29c0-10.477,8.523-19,19-19 c2.348,0,4.645,0.43,6.802,1.262C45.53,7.914,50.409,6,55.5,6c7.705,0,13.455,7.674,18.163,11.012C83.834,17.362,92,25.745,92,36 c0,1.968-0.46,4.009-1.071,5.863C94.102,44.889,96,48.884,96,53.5c0,4.18-1.463,8.028-4.099,10.966 C91.983,65.242,92,65.935,92,66.5c0,1.681-0.273,3.338-0.802,4.914C92.364,73.396,93,75.67,93,78c0,4.96-2.813,9.348-7,11.532V90.5 c0,3.584-2.916,6.5-6.5,6.5H24.5z" opacity=".35"/><path fill="#f2f2f2" d="M22.5,95c-3.584,0-6.5-2.916-6.5-6.5v-0.552c-3.661-2.342-6-6.428-6-10.948 c0-1.125,0.142-2.229,0.419-3.293C7.628,70.687,6,66.675,6,62.5c0-3.107,0.954-6.168,2.669-8.795C6.32,50.625,5,46.873,5,43 c0-6.493,3.548-12.405,9.005-15.572C14.002,27.285,14,27.143,14,27c0-10.477,8.523-19,19-19c2.348,0,4.645,0.43,6.802,1.262 C43.53,5.914,48.409,4,53.5,4c7.705,0,14.687,4.37,18.163,11.012C81.834,15.362,90,23.745,90,34c0,1.968-0.314,3.91-0.926,5.764 C92.248,42.79,94,46.884,94,51.5c0,4.18-1.463,8.028-4.099,10.966C89.983,63.242,90,63.935,90,64.5 c0,1.681-0.273,3.338-0.802,4.914C90.364,71.396,91,73.67,91,76c0,4.96-2.813,9.348-7,11.532V88.5c0,3.584-2.916,6.5-6.5,6.5H22.5z"/><rect width="54" height="33" x="23" y="42" fill="#ef8630"/><path fill="#ffe8d9" d="M66,70c-11.962-3.148-10-16-10-16l-6-1l-6,1c0,0,2.053,13.219-10,16c-13,3-12,17-12,17h54 C76,87,85,75,66,70z"/><path fill="#40396e" d="M56.236,59.642c-0.385-1.921-0.384-3.622-0.327-4.642H44.096 c0.065,1.031,0.079,2.756-0.288,4.696C45.287,61.439,47.35,63,50,63C52.677,63,54.753,61.406,56.236,59.642z" opacity=".35"/><circle cx="77.5" cy="51.5" r="8.5" fill="#f9b84f"/><rect width="4.374" height="4.551" x="39.73" y="17.466" fill="#f9b84f"/><rect width="4.18" height="3.708" x="63.764" y="21.899" fill="#f9b84f"/><rect width="2.899" height="4.045" x="21.629" y="30.124" fill="#f9b84f"/><path fill="#f9b84f" d="M31,62.5c0,4.694-3.806,8.5-8.5,8.5S14,67.194,14,62.5s3.828-8.646,8.522-8.646S31,57.806,31,62.5z"/><ellipse cx="76.375" cy="63.5" fill="#f9b84f" rx="7.375" ry="7.5"/><rect width="5.5" height="6" x="18" y="50" fill="#f9b84f"/><path fill="#739f4d" d="M66,70c-0.345-0.091-0.676-0.192-0.999-0.298C62.14,72.854,56.498,75,50,75 c-6.481,0-12.112-2.134-14.98-5.272C34.691,69.827,34.353,69.919,34,70c-13,3-12,17-12,17h56C78,87,80.247,72.292,66,70z"/><circle cx="78" cy="75" r="6" fill="#f9b84f"/><path fill="#f9b84f" d="M29.997,76c0,3.314-2.982,6-6.662,6s-6.662-2.686-6.662-6s2.326-7,6.662-6 C27.015,70,29.997,72.686,29.997,76z"/><path fill="#ffe8d9" d="M50,58L50,58c-8.837,0-16-7.163-16-16V27h32v15C66,50.837,58.837,58,50,58z"/><path fill="#f9b84f" d="M61,22c0,0-10,19-31,17l1-15L61,22z"/><path fill="#f9b84f" d="M54,26c0,0,3,12,15,12l-1-12H54z"/><circle cx="32.976" cy="26.964" r="10.976" fill="#f9b84f"/><path fill="#f9b84f" d="M82,33c0,1.972,0.016,5.517-1,7c-1.545,2.255,1.832,5-1,5c-4.694,0-16-8.029-16-13 c0-2.226-0.264-5.429,1-7c1.559-1.938,4.908-2,7.5-2C77.194,23,82,28.029,82,33z"/><path fill="#f9b84f" d="M35,42.982c0,6.063-4.915,12.406-10.978,12.406s-10.978-6.342-10.978-12.406 s4.915-10.978,10.978-10.978S35,36.919,35,42.982z"/><path fill="#f9b84f" d="M65.905,26c0.059-0.494,0.099-0.994,0.099-1.504c0-6.905-5.598-12.503-12.504-12.503 s-12.504,5.598-12.504,12.503c0,0.51,0.04,1.01,0.099,1.504H65.905z"/><circle cx="71.5" cy="40.5" r="6.5" fill="#f9b84f"/><path fill="none" stroke="#40396e" stroke-linecap="round" stroke-linejoin="round" stroke-miterlimit="10" stroke-width="3" d="M81.5,70.5c1.375-1.58,2-3.741,2-6c0-1.648-0.227-3.031-1-4.36c3.208-1.736,5-5.057,5-8.64c0-5-3.216-8.114-7.021-9.528 C82.358,39.785,83.5,37.109,83.5,34c0-6.904-5.596-12.5-12.5-12.5c-1.298,0-2.549,0.198-3.725,0.565 C66.12,15.496,60.4,10.5,53.5,10.5c-5.247,0-9.813,2.891-12.21,7.162C39.082,15.701,36.185,14.5,33,14.5 c-6.904,0-12.5,5.596-12.5,12.5c0,1.635,0.323,3.193,0.894,4.625C15.805,32.408,11.5,37.195,11.5,43 c0,4.653,3.02,8.651,6.994,10.461c-3.391,1.6-5.994,5.04-5.994,9.039c0,4.298,2.717,7.952,6.523,9.366 C17.49,73.055,16.5,74.91,16.5,77c0,3.421,2.645,6.219,6,6.475V88.5h55v-6.025c0.166,0.013,0.331,0.025,0.5,0.025 c3.59,0,6.5-2.91,6.5-6.5C84.5,73.611,83.42,71.63,81.5,70.5z"/><circle cx="43" cy="43" r="2" fill="#739f4d"/><circle cx="57" cy="43" r="2" fill="#739f4d"/><path fill="#ff7575" d="M55,52c0,0-2.239,2-5,2s-5-2-5-2s1.239-1.691,3-2c1,0,2,1,2,1s1-1,2-1C53.743,50.313,55,52,55,52z"/></svg>