<svg xmlns="http://www.w3.org/2000/svg"  viewBox="0 0 100 100" width="100px" height="100px"><path d="M35.996,99.4c-1.469,0-2.91-0.505-4.059-1.423l-0.835-0.668 c-0.896,0.444-1.881,0.676-2.885,0.676c-2.062,0-4.022-0.993-5.242-2.656l-1.379-1.881l-0.63,0.14 c-0.456,0.102-0.934,0.155-1.41,0.155c-1.38,0-2.752-0.452-3.864-1.273c-1.524-1.132-2.474-2.854-2.617-4.733l-0.071-0.954 C11.784,86.436,12.844,84.992,12,84c-1.347-1.576-4.024-2.99-3.53-5.015l0.801-3.27c-0.753-0.708-1.337-1.595-1.687-2.6 c-0.699-2.003-0.37-4.232,0.881-5.956l1.083-1.489c-0.953-2.136-0.708-4.703,0.835-6.664l4.598-5.836 c0.127-0.159,0.248-0.299,0.371-0.43c-0.878-1.594-1.357-3.393-1.357-5.269c0-4.967,2.903-9.102,7.085-10.719 c0.286-0.97,0.635-1.928,1.043-2.866c-1.646-2.321-2.525-4.937-2.525-7.626c0-11.229,10.502-14.851,14.986-16.397 c1.054-0.374,1.909-0.953,3.094-1.755C40.71,6.056,44.483,3.5,52.61,3.5c8.444,0,13.122,3.797,16.218,6.309 c1.066,0.866,1.986,1.612,2.624,1.861c11.71,4.091,14.172,10.191,14.172,14.591c0,3.058-1.149,5.643-2.465,7.6 c0.405,0.943,0.747,1.905,1.026,2.883c4.346,1.626,7.448,5.822,7.448,10.728c0,2.166-0.664,4.21-1.854,5.949l4.76,5.232 c1.18,1.298,1.791,3.045,1.677,4.795c-0.05,0.744-0.228,1.468-0.518,2.142l1.183,1.749c1.167,1.725,1.436,3.923,0.72,5.88 c-0.381,1.031-1.01,1.935-1.813,2.641l0.659,3.163c0.417,2.001-0.144,4.108-1.5,5.638c-0.823,0.934-1.898,1.603-3.082,1.939 l-0.071,0.952c-0.14,1.841-1.057,3.539-2.517,4.663c-1.128,0.871-2.538,1.351-3.967,1.351c-0.393,0-0.787-0.036-1.173-0.106 l-0.771-0.143l-1.475,2.012c-1.219,1.663-3.179,2.657-5.242,2.657c-1.005,0-1.99-0.232-2.885-0.676l-0.831,0.665 c-1.154,0.92-2.595,1.424-4.062,1.424c-1.036,0-2.07-0.252-2.991-0.729l-1.227-0.638l-0.784,0.463 c-0.995,0.59-2.14,0.904-3.305,0.904c-0.576,0-1.15-0.077-1.706-0.229l-2.64-0.71l-1.639,0.574 c-0.69,0.242-1.413,0.365-2.147,0.365s-1.457-0.123-2.149-0.366l-1.637-0.573l-2.655,0.715c-0.542,0.147-1.114,0.224-1.689,0.224 c-1.166,0-2.312-0.314-3.312-0.908l-0.777-0.459l-1.218,0.633C38.075,99.145,37.037,99.4,35.996,99.4z" opacity=".35"/><path fill="#f2f2f2" d="M33.996,97.4c-1.469,0-2.91-0.505-4.059-1.423l-0.835-0.668c-0.896,0.444-1.881,0.676-2.885,0.676 c-2.062,0-4.022-0.993-5.242-2.656l-1.379-1.881l-0.63,0.14c-0.456,0.102-0.934,0.155-1.41,0.155c-1.38,0-2.752-0.452-3.864-1.273 c-1.524-1.132-2.474-2.854-2.617-4.733l-0.071-0.954c-1.22-0.347-2.324-1.05-3.168-2.042c-1.347-1.576-1.86-3.73-1.366-5.756 l0.801-3.27c-0.753-0.708-1.337-1.595-1.687-2.6c-0.699-2.003-0.37-4.232,0.881-5.956l1.083-1.489 c-0.953-2.136-0.708-4.703,0.835-6.664l4.598-5.836c0.127-0.159,0.248-0.299,0.371-0.43c-0.878-1.594-1.357-3.393-1.357-5.269 c0-4.967,2.903-9.102,7.085-10.719c0.286-0.97,0.635-1.928,1.043-2.866c-1.646-2.321-2.525-4.937-2.525-7.626 c0-11.229,10.502-14.851,14.986-16.397c1.054-0.374,1.909-0.953,3.094-1.755C38.71,4.056,42.483,1.5,50.61,1.5 c8.444,0,13.122,3.797,16.218,6.309c1.066,0.866,1.986,1.612,2.624,1.861c11.71,4.091,14.172,10.191,14.172,14.591 c0,3.058-1.149,5.643-2.465,7.6c0.405,0.943,0.747,1.905,1.026,2.883c4.346,1.626,7.448,5.822,7.448,10.728 c0,2.166-0.664,4.21-1.854,5.949l4.76,5.232c1.18,1.298,1.791,3.045,1.677,4.795c-0.05,0.744-0.228,1.468-0.518,2.142l1.183,1.749 c1.167,1.725,1.436,3.923,0.72,5.88c-0.381,1.031-1.01,1.935-1.813,2.641l0.659,3.163c0.417,2.001-0.144,4.108-1.5,5.638 c-0.823,0.934-1.898,1.603-3.082,1.939l-0.071,0.952c-0.14,1.841-1.057,3.539-2.517,4.663c-1.128,0.871-2.538,1.351-3.967,1.351 c-0.393,0-0.787-0.036-1.173-0.106l-0.771-0.143l-1.475,2.012c-1.219,1.663-3.179,2.657-5.242,2.657 c-1.005,0-1.99-0.232-2.885-0.676l-0.831,0.665c-1.154,0.92-2.595,1.424-4.062,1.424c-1.036,0-2.07-0.252-2.991-0.729l-1.227-0.638 l-0.784,0.463c-0.995,0.59-2.14,0.904-3.305,0.904c-0.576,0-1.15-0.077-1.706-0.229l-2.64-0.71l-1.639,0.574 c-0.69,0.242-1.413,0.365-2.147,0.365s-1.457-0.123-2.149-0.366l-1.637-0.573l-2.655,0.715c-0.542,0.147-1.114,0.224-1.689,0.224 c-1.166,0-2.312-0.314-3.312-0.908l-0.777-0.459l-1.218,0.633C36.075,97.145,35.037,97.4,33.996,97.4z"/><path fill="#2b59a1" d="M27.985,32.293c0,0-3.889-2.657-3.889-6.833c0-6.643,5.479-9.11,10.605-11.008 C40.182,12.365,41.242,8,50.61,8s11.843,6.453,16.615,8.351c8.131,3.037,9.898,6.643,9.898,9.11c0,3.986-3.712,7.022-3.712,7.022 L27.985,32.293z"/><path fill="#ffc7a3" d="M21.931,48.646c-1.441-0.554-2.344-1.793-2.344-3.173c0-1.875,1.467-3.389,3.34-3.448l0.176-0.005 l0.141,0.106c0.177,0.133,0.399,0.291,0.713,0.447c0.207,0.104,0.438,0.158,0.671,0.158c0.279,0,0.552-0.078,0.789-0.224 c0.438-0.271,0.711-0.76,0.711-1.276c0-5.937,3.699-12.118,10.742-15.663C40.552,23.713,45.539,27,51,27 c5.789,0,10.195-3.203,13.961-1.212c6.69,3.536,10.133,9.513,10.133,15.443c0,0.572,0.317,1.086,0.829,1.342 c0.207,0.104,0.439,0.158,0.671,0.158c0.327,0,0.639-0.104,0.9-0.3c0.148-0.111,0.27-0.209,0.375-0.295l0.138-0.112h0.178 c1.902,0,3.449,1.547,3.449,3.449c0,1.549-1.083,2.944-2.576,3.317L74,53l-23.99,3.446L25,53L21.931,48.646z"/><path fill="#707cc0" d="M47.395,88.246c-0.16-0.056-0.327-0.084-0.496-0.084c-0.132,0-0.263,0.018-0.389,0.052l-3.987,1.073 l-3.345-1.977c-0.231-0.137-0.496-0.209-0.764-0.209c-0.24,0-0.479,0.059-0.692,0.169l-3.553,1.848l-3.656-2.925 c-0.265-0.212-0.598-0.329-0.937-0.329c-0.284,0-0.562,0.08-0.802,0.232l-2.174,1.374l-3.062-4.174 c-0.281-0.384-0.733-0.613-1.21-0.613c-0.108,0-0.218,0.012-0.325,0.036l-3.081,0.685l-0.401-5.342 c-0.029-0.397-0.22-0.772-0.521-1.029c-0.271-0.231-0.617-0.359-0.974-0.359l-0.127,0.005l-2.163,0.18l1.626-6.636 c0.193-0.792-0.271-1.583-1.056-1.802l-1.098-0.305l2.97-4.084c0.457-0.628,0.353-1.516-0.236-2.021l-1.382-1.185l3.63-4.607 C22.99,52.459,28.112,50,33.242,50h9.146l0.548,0.374c1.021,1.512,3.121,3.315,7.32,3.315s6.299-1.803,7.32-3.315L57.799,50h9.146 c5.177,0,10.657,2.491,14.421,6.254l4.209,4.631l-1.112,0.94c-0.586,0.496-0.703,1.35-0.273,1.985l2.896,4.283l-1.172,0.325 c-0.759,0.211-1.228,0.98-1.067,1.751l1.357,6.517L83.966,76.5l-0.125-0.005c-0.356,0-0.702,0.127-0.974,0.359 c-0.302,0.257-0.492,0.632-0.521,1.029l-0.406,5.403l-3.128-0.58c-0.092-0.017-0.183-0.025-0.273-0.025 c-0.477,0-0.929,0.229-1.21,0.613l-3.062,4.174l-2.174-1.374c-0.24-0.152-0.518-0.232-0.802-0.232 c-0.339,0-0.672,0.117-0.937,0.329l-3.656,2.925l-3.553-1.848c-0.214-0.11-0.453-0.169-0.692-0.169 c-0.268,0-0.532,0.072-0.764,0.209l-3.345,1.977l-3.986-1.073c-0.127-0.034-0.258-0.052-0.39-0.052 c-0.169,0-0.336,0.028-0.496,0.084l-3.039,1.063L47.395,88.246z"/><path fill="none" stroke="#40396e" stroke-linecap="round" stroke-linejoin="round" stroke-miterlimit="10" stroke-width="3" d="M89.497,68.981l-4.065-6.01l2.298-1.944l-5.303-5.833c-2.14-2.14-5.052-4.045-7.91-5.174L79.004,50 c2.121-0.53,4.129-2.23,4.129-4.528c0-2.651-2.121-4.949-4.949-4.949c-0.884,0-0.884,0.177-1.591,0.707 c0-3.635-1.18-7.268-3.477-10.43l0.296,0.001c0,0,3.712-2.828,3.712-6.54c0-2.298-1.768-5.656-9.898-8.484 C62.453,14.01,59.978,8,50.61,8s-10.429,4.065-15.908,6.01c-5.126,1.768-10.605,4.065-10.605,10.252 c0,3.889,3.889,6.363,3.889,6.363l0.357,0.001c-2.458,3.247-3.715,6.975-3.715,10.604c-0.707-0.354-0.707-0.707-1.591-0.707 c-2.651,0-4.542,2.121-4.542,4.949c0,2.121,1.511,3.821,3.455,4.528h4.062c-2.999,1.127-5.689,2.959-7.924,5.194l-4.596,5.833 l2.475,2.121l-4.242,5.833l3.182,0.884l-2.121,8.661l4.242-0.354l0.53,7.07l4.772-1.061l3.889,5.303l3.358-2.121l4.419,3.535 l4.419-2.298l3.889,2.298l4.596-1.237l3.535,1.237l3.535-1.237l4.596,1.237l3.889-2.298l4.419,2.298l4.419-3.535l3.358,2.121 l3.889-5.303l4.772,0.884l0.53-7.07l4.242,0.354l-1.768-8.484L89.497,68.981z"/><path fill="none" stroke="#40396e" stroke-linecap="round" stroke-linejoin="round" stroke-miterlimit="10" stroke-width="3" d="M50.61,41.23c0,0-0.177,2.121-2.651,2.121c-4.065,0-2.298-10.605-7.954-10.605c-1.591,0-3.535,1.768-3.535,1.768"/><path fill="none" stroke="#40396e" stroke-linecap="round" stroke-linejoin="round" stroke-miterlimit="10" stroke-width="3" d="M50.61,41.23c0,0,0.177,2.121,2.651,2.121c4.065,0,2.298-10.605,7.954-10.605c1.591,0,3.535,1.768,3.535,1.768"/><circle cx="59.448" cy="41.584" r="3.535" fill="#40396e"/><circle cx="41.5" cy="41.5" r="3.5" fill="#40396e"/><path fill="#40396e" d="M50.61,22.58c-5.466,0-10.045,1.153-13.73,3.011C39.648,29.413,44.93,32,51,32 c5.955,0,11.144-2.493,13.952-6.195C61.185,23.812,56.404,22.58,50.61,22.58z"/><path fill="#efebe9" d="M67,76c-3,0-8.2-2-17-2s-13.8,2-17,2s-5-2.2-5-5V61c0-2.8,2.2-5,5-5s6.6,2,17,2s14.6-2,17-2 s5,2.2,5,5v10C72,73.8,70,76,67,76z"/><g opacity=".35"><path fill="#40396e" d="M52,74.039V57.973C51.359,57.99,50.695,58,50,58c-0.347,0-0.668-0.008-1-0.012v16.026 C49.331,74.008,49.658,74,50,74C50.691,74,51.352,74.016,52,74.039z"/><path fill="#40396e" d="M37,75.457c0.902-0.174,1.898-0.37,3-0.562V57.24c-1.148-0.191-2.137-0.393-3-0.579V75.457z"/><path fill="#40396e" d="M64,56.483c-0.842,0.183-1.833,0.397-3,0.607V75.06c1.117,0.205,2.113,0.405,3,0.569V56.483z"/></g></svg>