<svg xmlns="http://www.w3.org/2000/svg"  viewBox="0 0 100 100" width="100px" height="100px"><path d="M42.985,98.028c-3.339,0-6.479-1.301-8.84-3.662L22.661,82.881 C20.3,80.52,19,77.381,19,74.043v-5.404c-2.694-2.363-6-7.021-6-15.639c0-5.652,2.207-8.687,4.275-10.29 c-0.909-1.055-2.204-2.998-2.276-5.925c-0.904-1.176-2.005-3.072-2.005-5.748v-0.584c-1.287-1.561-1.988-3.552-1.988-5.672v-7.288 c0-2.674,1.678-5.114,4.175-6.07c0.749-0.286,1.529-0.43,2.324-0.43c1.844,0,3.179,1.393,4.41,2.764l2.364,1.552 C30.989,7.067,42.69,3.972,52,3.972c10.127,0,20.94,4.106,27.371,12.332l2.275-2.151c1.233-1.372,2.996-2.158,4.838-2.158 c0.794,0,1.574,0.144,2.317,0.427c2.505,0.959,4.183,3.398,4.183,6.073v7.287c0,2.121-0.702,4.111-1.989,5.672v0.584 c0,2.678-1.103,4.575-2.004,5.748c-0.06,2.432-0.964,4.184-1.792,5.315C89.116,44.79,91,47.778,91,53 c0,7.021-2.231,12.786-6,15.951v5.092c0,3.338-1.3,6.477-3.661,8.838L69.854,94.367c-2.359,2.361-5.499,3.662-8.839,3.662H42.985z" opacity=".35"/><path fill="#f2f2f2" d="M40.985,96.028c-3.339,0-6.479-1.301-8.84-3.662L20.661,80.881C18.3,78.52,17,75.381,17,72.043 v-5.404c-2.694-2.363-6-7.021-6-15.639c0-5.652,2.207-8.687,4.275-10.29c-0.909-1.055-2.204-2.998-2.276-5.925 c-0.904-1.176-2.005-3.072-2.005-5.748v-0.584c-1.287-1.561-1.988-3.552-1.988-5.672v-7.288c0-2.674,1.678-5.114,4.175-6.07 c0.749-0.286,1.529-0.43,2.324-0.43c1.844,0,3.607,0.787,4.838,2.159l1.936,2.157C28.989,5.067,40.69,1.972,50,1.972 c10.127,0,21.594,3.761,28.025,11.987l1.621-1.806c1.233-1.372,2.996-2.158,4.838-2.158c0.794,0,1.574,0.144,2.317,0.427 c2.505,0.959,4.183,3.398,4.183,6.073v7.287c0,2.121-0.702,4.111-1.989,5.672v0.584c0,2.678-1.103,4.575-2.004,5.748 c-0.06,2.432-0.964,4.184-1.792,5.315C87.116,42.79,89,45.778,89,51c0,7.021-2.231,12.786-6,15.951v5.092 c0,3.338-1.3,6.477-3.661,8.838L67.854,92.367c-2.359,2.361-5.499,3.662-8.839,3.662H40.985z"/><path fill="#d9eeff" d="M26.753,30.798c-0.627-0.627,0.27-1.321,0.27-2.157l-1.618-5.528c0-0.627-3.722,0.132-4.14-0.287 l-5.758-7.331v7.287c0,0.627,0.209,1.255,0.627,1.673l1.362,1.603l0,0v2.98c0,1.608,1.319,2.294,1.792,3.205 c0.216,0.415,0.209,0.836,0.209,1.255v2.03c0,1.045,0.418,1.673,1.045,2.3L25,41v-8L26.753,30.798z"/><path fill="#d9eeff" d="M73.236,30.798c0.627-0.627-0.27-1.321-0.27-2.157l1.618-5.528c0-0.627,3.722,0.132,4.14-0.287 l5.758-7.331v7.287c0,0.627-0.209,1.255-0.627,1.673l-1.362,1.603l0,0v2.98c0,1.608-1.319,2.294-1.792,3.205 c-0.216,0.415-0.209,0.836-0.209,1.255v2.03c0,1.045-0.418,1.673-1.045,2.3L74.989,41v-8L73.236,30.798z"/><path fill="#ffc7a3" d="M40.985,88.028c-1.202,0-2.332-0.468-3.182-1.318L26.318,75.225c-0.85-0.85-1.318-1.98-1.318-3.182 V63c0-0.829-0.671-1.5-1.5-1.5c-3.13,0-4.5-3.286-4.5-10.5c0-3.022-0.669-7,2-7c1.191,0,4-0.524,4-1V28.528 c0-12.75,12.959-18.557,25-18.557c9.666,0,25,5.038,25,18.557V43c0,0.477,2.949,1,4.14,1C81.81,44,81,47.978,81,51 c0,7.214-1.37,10.5-4.5,10.5c-0.829,0-1.5,0.671-1.5,1.5v9.043c0,1.202-0.468,2.332-1.318,3.182L62.197,86.71 c-0.85,0.85-1.98,1.318-3.182,1.318H40.985z"/><path fill="#2b59a1" d="M50,9.972c-12.419,0-25,5.807-25,18.557V38v7.5V63v3v6.043c0,1.202,0.468,2.332,1.318,3.182 L32,80.906V64c9-2,18-7,18-7s9,5,18,7v16.907l5.682-5.682c0.85-0.85,1.318-1.98,1.318-3.182V67v-4V45.5V39V28.528 C75,15.01,60.486,9.972,50,9.972z M31,56c-2-4-3-11,0-17c17,0,17,13,17,13S38,56,31,56z M52.087,52c0,0,0-13,17-13c3,6,2,13,0,17 C62.087,56,52.087,52,52.087,52z"/><polygon fill="#40396e" points="53,77 47,77 44,74 56,74" opacity=".35"/><polygon fill="#40396e" points="46,68 54,68 61,71 39,71" opacity=".35"/><path fill="#d9eeff" d="M54.448,34.557l-1.09-3.859h-6.686l-1.266,3.859h-4.83L47.379,15h5.301l6.745,19.557H54.448z M50,19.859l-2.18,7.099h4.211L50,19.859z"/><g><path fill="#f2f2f2" d="M43,50.455c0,0-3.653,0-6.364,0S33,48,33,48s0.909-2.455,4.545-2.455 C40.256,45.545,43,50.455,43,50.455z"/><circle cx="37.909" cy="48" r="2.455" fill="#2b59a1"/><path fill="#40396e" d="M44,49c1.333,0,2.005-1.625,1.047-2.552C44.476,45.896,43.79,45.369,43,45 c-3.379-1.69-5.449-2.759-7.138-2.759C32.482,42.241,31,45,31,45s0.013-0.004,0.037-0.011c2.3-0.658,4.769-0.316,6.811,0.928 C40.093,47.285,43.01,49,44,49L44,49z"/><path fill="#f2f2f2" d="M62.459,45.545c3.633,0,4.541,2.452,4.541,2.452s-0.925,2.452-3.633,2.452s-6.358,0-6.358,0 S59.75,45.545,62.459,45.545z"/><circle cx="62.096" cy="47.998" r="2.452" fill="#2b59a1"/><path fill="#40396e" d="M56.009,49c0.99,0,3.907-1.715,6.152-3.083c2.042-1.244,4.511-1.586,6.811-0.928 C68.996,44.996,69.009,45,69.009,45s-1.482-2.759-4.862-2.759c-1.689,0-3.759,1.069-7.138,2.759 c-0.79,0.369-1.476,0.896-2.047,1.448C54.004,47.375,54.676,49,56.009,49L56.009,49z"/><path fill="none" stroke="#40396e" stroke-linecap="round" stroke-linejoin="round" stroke-miterlimit="10" stroke-width="3" d="M76.275,25.639l8.208-9.145v7.287c0,0.627-0.209,1.255-0.627,1.673l-1.362,1.603l0,0v2.98c0,1.608-1.319,2.294-1.792,3.205 c-0.216,0.415-0.209,0.836-0.209,1.255v1.03c0,1.045-0.418,1.673-1.045,2.3l-2.959,1.755H76.5V44.5c0,0,6-3,6,5 c0,8.534-3.433,11.371-6,11.5v11.043c0,1.591-0.632,3.117-1.757,4.243L63.257,87.771c-1.125,1.125-2.651,1.757-4.243,1.757H40.985 c-1.591,0-3.117-0.632-4.243-1.757L25.257,76.285c-1.125-1.125-1.757-2.651-1.757-4.243V61c-2.278-0.486-6-3.034-6-11.5 c0-8,6-5,6-5v-5.918l-2.959-1.755c-0.627-0.627-1.045-1.255-1.045-2.3v-1.03c0-0.418,0.006-0.84-0.209-1.255 c-0.473-0.91-1.792-1.597-1.792-3.205v-2.98l0,0l-1.362-1.603c-0.418-0.418-0.627-1.045-0.627-1.673v-7.287l8.351,9.304 C26.112,13.446,38.672,8.472,50,8.472c10.667,0,24.345,5.21,26.271,17.137L76.275,25.639z"/></g></svg>