<svg xmlns="http://www.w3.org/2000/svg"  viewBox="0 0 100 100" width="100px" height="100px"><path d="M26.5,97c-1.539,0-3.032-0.549-4.207-1.545 C9.577,84.647,6.76,71.778,6.682,62.739c-0.351-0.102,0.747-2.996,0.419-3.155C4.881,58.515,2,58.979,2,56.5 c0-28.624,20.18-40.506,30.983-40.506c2.024,0,3.959,0.25,5.788,0.746C41.696,12.609,47.327,8,57.888,8 c34.169,0,42.107,36.855,42.107,49.852c0,2.68-1.93,5.367-4.434,6.321c-0.447,0.171-0.912,0.292-1.387,0.36 c-0.216,19.816-12.018,29.562-12.601,30.031C80.431,95.488,78.98,96,77.501,96c-1.244,0-2.455-0.354-3.503-1.024 c-2.354-1.503-3.481-4.337-2.805-7.051c0.038-0.152,0.076-0.305,0.113-0.457c-1.357,0.746-2.815,1.433-4.378,2.062 c-0.388,0.156-1.235,0.771-1.983,1.314C62.114,92.9,57.848,96,51,96c-6.009,0-10.498-2.991-13.468-4.97 c-0.911-0.607-1.937-1.29-2.46-1.5c-0.733-0.296-1.441-0.602-2.125-0.92c0.023,1.013,0.046,1.589,0.047,1.604 c0.106,2.599-1.325,4.997-3.646,6.128C28.476,96.771,27.486,97,26.5,97z" opacity=".35"/><path fill="#f2f2f2" d="M24.5,95c-1.539,0-3.032-0.549-4.207-1.545C7.577,82.647,4.76,69.778,4.682,60.739 c-0.351-0.102-0.691-0.232-1.019-0.392C1.443,59.278,0,56.979,0,54.5c0-28.624,20.18-40.506,30.983-40.506 c2.024,0,3.959,0.25,5.788,0.746C39.696,10.609,45.327,6,55.888,6c34.169,0,42.107,36.855,42.107,49.852 c0,2.68-1.93,5.367-4.434,6.321c-0.447,0.171-0.912,0.292-1.387,0.36c-0.216,19.816-12.018,29.562-12.601,30.031 C78.431,93.488,76.98,94,75.501,94c-1.244,0-2.455-0.354-3.503-1.024c-2.354-1.503-3.481-4.337-2.805-7.051 c0.038-0.152,0.076-0.305,0.113-0.457c-1.357,0.746-2.815,1.433-4.378,2.062c-0.388,0.156-1.235,0.771-1.983,1.314 C60.114,90.9,55.848,94,49,94c-6.009,0-10.498-2.991-13.468-4.97c-0.911-0.607-1.937-1.29-2.46-1.5 c-0.733-0.296-1.441-0.602-2.125-0.92c0.023,1.013,0.046,1.589,0.047,1.604c0.106,2.599-1.325,4.997-3.646,6.128 C26.476,94.771,25.486,95,24.5,95z"/><path fill="#ffc7a3" d="M49,26.5c16.845,0,32,13.655,32,30.5c0,12.82-7.294,19.989-18.5,24.5c-3.518,1.416-6.52,6-13.5,6 c-5.989,0-9.982-4.584-13.5-6C24.294,76.989,17,71.82,17,59C17,42.155,32.155,26.5,49,26.5z"/><path fill="#dd4f2c" d="M43,28c0,0,9.315,4.011,23,20c-1.8-8.934-4.517-13.831-4.517-13.831S85.787,54,77,86 c0,0,11.826-10.438,7.826-37.438l6.421,7.538c0,0-3.539-43.6-33.067-43.6c-10.266,0-17.197,6.917-18.272,11.5 C39.412,26.113,43,28,43,28z"/><path fill="#dd4f2c" d="M43,28c0,0-3.533-7.506-12.017-7.506S6.5,30.61,6.5,54.5l6.307-5C12.807,49.5,3,69,23,86 c0,0-2-31,10-54c0,0-2,7,0,14C33,46,36,36,43,28z"/><path fill="none" stroke="#40396e" stroke-linecap="round" stroke-linejoin="round" stroke-miterlimit="10" stroke-width="3" d="M55.888,12.5c-14.697,0-15.965,10.997-15.965,10.997c-1.819-1.501-4.698-3.003-8.94-3.003C22.5,20.494,6.5,30.61,6.5,54.5l6.307-5 c0,0-8.307,22,11.693,39c0,0-0.275-6.545,0.074-14.958c2.37,3.366,5.897,5.933,10.926,7.958c3.518,1.416,7.511,6,13.5,6 c6.98,0,9.982-4.584,13.5-6c8.651-3.483,12.873-8.563,14.354-16.593c0.908,6.325,0.819,13.904-1.354,22.593 c0,0,15.747-12.68,8.028-40.051l7.719,8.651C91.247,46.7,85.955,12.5,55.888,12.5z"/><path fill="#fff" d="M68,54c0,3.314-2.686,6-6,6c-2.899,0-5.319-2.057-5.878-4.791c-0.08-0.391,9.035-6.538,10.121-5.452 C67.328,50.843,68,52.343,68,54z"/><circle cx="62" cy="55" r="3" fill="#2b59a1"/><path fill="#dd4f2c" d="M56.074,56.165c-4.121,0-4.645-2.855-4.591-3.072c0,0,0.773,0.877,3.516,0.877 c2.06,0,5.437-2.577,6.434-3.325c1.771-1.329,5.548-3.126,9.087,0.549c0,0-3.197-1.177-6.607,1.011 C62.726,52.966,58.602,56.165,56.074,56.165z"/><path fill="#fff" d="M30,54c0,3.314,2.686,6,6,6c2.899,0,5.319-2.057,5.878-4.791c0.08-0.391-9.035-6.538-10.121-5.452 C30.672,50.843,30,52.343,30,54z"/><circle cx="36" cy="55" r="3" fill="#2b59a1"/><path fill="#dd4f2c" d="M41.926,56.165c4.121,0,4.645-2.855,4.591-3.072c0,0-0.773,0.877-3.516,0.877 c-2.06,0-5.437-2.577-6.434-3.325c-1.771-1.329-5.548-3.126-9.087,0.549c0,0,3.197-1.177,6.607,1.011 C35.274,52.966,39.398,56.165,41.926,56.165z"/><path fill="#40396e" d="M47.749,37.786c-0.208-0.831-0.549-1.432-0.953-1.878C48.08,34.696,49,34,49,34 s-1.346,0.275-3.057,1.229c-1.468-0.809-3.193-0.342-3.193-0.342l1.947,1.129c-0.952,0.675-1.936,1.566-2.827,2.723 c-1.264-0.378-2.491-0.043-2.491-0.043l1.794,1.04C41.116,39.826,41.055,39.908,41,40c-0.698,1.163-1.172,2.213-1.5,3.147 c-1.267-0.382-2.5-0.045-2.5-0.045l2.142,1.242C38.569,46.68,39,48,39,48c0.268-1.074,0.651-2.108,1.102-3.1L42,46 c-0.272-1.087-0.768-1.788-1.342-2.246c0.597-1.131,1.282-2.183,1.994-3.159l1.727,1.001c-0.218-0.873-0.583-1.492-1.015-1.943 c0.881-1.115,1.77-2.094,2.582-2.912L47.749,37.786z" opacity=".35"/><path fill="#40396e" d="M49,71.365c-2.771,0-5.812,0.126-7-1.272c-2.28-0.472-3.64-1.003-3.64-1.003 c0.4,2.584,1.891,4.238,3.635,5.297c2.888-0.797,6.879,0.939,6.879,0.939s4.098-1.129,7.132-0.939 c1.744-1.059,3.234-2.713,3.635-5.297c0,0-1.359,0.532-3.64,1.004C54.868,71.492,51.773,71.365,49,71.365z"/><path fill="#fff" d="M42,74.377c3.102,1.882,7,1.892,7,1.892s3.898-0.01,7-1.892v-4.284 c-1.821,0.377-4.226,0.716-7,0.716c-2.773,0-5.179-0.339-7-0.717V74.377z"/></svg>