<svg xmlns="http://www.w3.org/2000/svg"  viewBox="0 0 100 100" width="100px" height="100px"><path d="M42.157,99c-2.805,0-5.441-1.093-7.425-3.076 c-0.243-0.242-0.468-0.507-0.669-0.784L23.646,80.812C21.937,78.889,21,76.43,21,73.843v-8.26l-1.242-1.739 C17.299,60.399,16,56.346,16,52.118V48.5c0-4.545,2.202-8.025,5-10.142V32.5c0-6.187,1.77-11.579,5.26-16.03 c0.138-0.18,0.234-0.305,0.335-0.426C33.768,7.285,45.94,4.944,52,4.944c0.009,0,0.042,0,0.051,0c12.428,0,30.939,7.333,31,27.536 c0.008,2.547,0.011,4.457,0.012,5.888c2.791,2.118,4.988,5.596,4.988,10.132v3.618c0,4.228-1.299,8.281-3.757,11.725l-1.243,1.74 v8.26c0,2.587-0.937,5.046-2.646,6.969L69.979,95.15c-0.193,0.268-0.419,0.531-0.661,0.774C67.334,97.907,64.697,99,61.894,99 H42.157z" opacity=".35"/><path fill="#f2f2f2" d="M40.157,97c-2.805,0-5.441-1.093-7.425-3.076c-0.243-0.242-0.468-0.507-0.669-0.784L21.646,78.812 C19.937,76.889,19,74.43,19,71.843v-8.26l-1.242-1.739C15.299,58.399,14,54.346,14,50.118V46.5c0-4.545,2.202-8.025,5-10.142V30.5 c0-6.187,1.77-11.579,5.26-16.03c0.138-0.18,0.234-0.305,0.335-0.426C31.768,5.285,43.94,2.944,50,2.944c0.009,0,0.042,0,0.051,0 c12.428,0,30.939,7.333,31,27.536c0.008,2.547,0.011,4.457,0.012,5.888c2.791,2.118,4.988,5.596,4.988,10.132v3.618 c0,4.228-1.299,8.281-3.757,11.725l-1.243,1.74v8.26c0,2.587-0.937,5.046-2.646,6.969L67.979,93.15 c-0.193,0.268-0.419,0.531-0.661,0.774C65.334,95.907,62.697,97,59.894,97H40.157z"/><path fill="#ff7575" d="M61.5,90.5L74,73l1-12l4-6l1-12l-5.5-3.5c0,0,0-4,0-13c0-14-17.237-17.056-24.5-17.056 S25.5,12.5,25.5,26.5c0,9,0,13,0,13L21,45v10l5,7v12l12.5,16.5H61.5z"/><polygon fill="#dd4f2c" points="27,62 21,55 21,43 27,38"/><polygon fill="#dd4f2c" points="73,62 79,55 79,43 73,38"/><path fill="none" stroke="#40396e" stroke-linecap="round" stroke-linejoin="round" stroke-miterlimit="10" stroke-width="3" d="M50,9.444c-7.263,0-24.5,4.056-24.5,21.056c0,9,0,10,0,10c-1.657,0-5,2-5,6v3.618c0,2.85,0.89,5.628,2.547,7.947L25.5,61.5v10.343 c0,1.061,0.421,2.078,1.172,2.828l10.657,14.657c0.75,0.75,1.768,1.172,2.828,1.172H50"/><path fill="none" stroke="#40396e" stroke-linecap="round" stroke-linejoin="round" stroke-miterlimit="10" stroke-width="3" d="M50.051,90.5h9.843c1.061,0,2.078-0.421,2.828-1.172l10.657-14.657c0.75-0.75,1.172-1.768,1.172-2.828V61.5l2.453-3.435 c1.656-2.319,2.547-5.097,2.547-7.947V46.5c0-4-3.343-6-5-6c0,0,0.027-1,0-10c-0.051-17-17.237-21.056-24.5-21.056"/><path fill="#40396e" d="M30,48.105c0-4.06,4.236-13.464,7.266-16.377c0.339-0.326,0.694-0.65,1.167-0.528 c1.545,0.4,3.506,1.266,5.567,3.607c2.236,4.712,3,15.197,3,19.946C47,56.653,40.017,69,38,69C36.275,69,30,53.803,30,48.105z"/><path fill="#40396e" d="M70.005,48.105c0-4.06-4.236-13.464-7.266-16.377c-0.339-0.326-0.694-0.65-1.167-0.528 c-1.545,0.4-3.506,1.266-5.567,3.607c-2.236,4.712-3,15.197-3,19.946c0,1.9,6.983,14.247,9,14.247 C63.73,69,70.005,53.803,70.005,48.105z"/><path fill="#40396e" d="M38,11.168c-6.426,2.133-12.75,6.606-12.75,15.332c0,9,0,13,0,13L21,45v10l4.722,7v12 l11.806,16.5H38V11.168z" opacity=".35"/><path fill="#40396e" d="M62,11.168c6.426,2.133,12.75,6.606,12.75,15.332c0,9,0,13,0,13L79,45v10l-4.722,7v12 L62.472,90.5H62V11.168z" opacity=".35"/><path fill="#f2f2f2" d="M33,49.524c0,0,0.846,1.683,4.231,2.524c2.306,0.573,6.769,0,6.769,0S40.616,47,37.232,47 C34.692,47,33,49.524,33,49.524z"/><path fill="#f2f2f2" d="M62.767,47C59.384,47,56,52.048,56,52.048s4.462,0.573,6.768,0c3.385-0.841,4.231-2.524,4.231-2.524 S65.307,47,62.767,47z"/></svg>