<svg xmlns="http://www.w3.org/2000/svg"  viewBox="0 0 100 100" width="100px" height="100px"><g id="Слой_2"><path d="M86.527,44.225c-0.796-1.068-1.79-2.004-2.927-2.769l0.234-4.834C83.944,36.09,84,35.547,84,35 c0-0.404-0.015-0.775-0.033-1.123l0.024-0.489c0.045-0.931-0.076-1.874-0.352-2.765c-1.399-8.518-6.672-13.82-12.006-15.822 C67,13,62.128,4,48.8,4c-7.307,0-17.568,2.454-24.457,9.343c-0.91,0.911-1.576,2.023-1.96,3.226 c-5.595,4.271-12.444,13.117-9.242,29.928c0.257,1.346,0.848,2.567,1.68,3.578c-0.807,4.896,0.79,10.428,4.501,14.678 c0.705,0.807,1.447,1.53,2.221,2.167l0.458,7.619c0.093,4.915,2.581,9.466,6.677,12.196l5.698,3.799l6.489,4.867 c2.235,1.677,5.005,2.6,7.8,2.6h6.667c2.795,0,5.565-0.923,7.8-2.6l6.489-4.867l5.698-3.799c4.112-2.741,6.603-7.314,6.678-12.25 l0.372-7.673c0.722-0.608,1.418-1.295,2.084-2.057C89.797,58.636,90.688,49.811,86.527,44.225z" opacity=".35"/><path fill="#f2f2f2" d="M84.527,42.225c-0.796-1.068-1.79-2.004-2.927-2.769l0.234-4.834C81.944,34.09,82,33.547,82,33 c0-0.404-0.015-0.775-0.033-1.123l0.024-0.489c0.045-0.931-0.076-1.874-0.352-2.765c-1.399-8.518-6.672-13.82-12.006-15.822 C66.608,8.072,60.128,2,46.8,2c-7.307,0-17.568,2.454-24.457,9.343c-0.91,0.911-1.576,2.023-1.96,3.226 c-5.595,4.271-12.444,13.117-9.242,29.928c0.257,1.346,0.848,2.567,1.68,3.578c-0.807,4.896,0.79,10.428,4.501,14.678 c0.705,0.807,1.447,1.53,2.221,2.167l0.458,7.619c0.093,4.915,2.581,9.466,6.677,12.196l5.698,3.799l6.489,4.867 c2.235,1.677,5.005,2.6,7.8,2.6h6.667c2.795,0,5.565-0.923,7.8-2.6l6.489-4.867l5.698-3.799c4.112-2.741,6.603-7.314,6.678-12.25 l0.372-7.673c0.722-0.608,1.418-1.295,2.084-2.057C87.797,56.636,88.688,47.811,84.527,42.225z"/><path fill="#ffc7a3" d="M28.862,45.808c-0.725-2.71-5.936-2.221-7.927,0.452c-2.385,3.202-1.44,9.093,2.109,13.157 c3.551,4.064,7.39,4.478,9.776,1.276c0.01-0.012,0.016-0.028,0.026-0.04L28.862,45.808z"/><path fill="#ffc7a3" d="M70.26,45.813c0.776-2.898,6.348-2.375,8.477,0.483c2.551,3.424,1.54,9.723-2.255,14.069 c-3.797,4.346-7.903,4.788-10.453,1.364C66.017,61.716,66.011,61.7,66,61.686L70.26,45.813z"/><path fill="#40396e" d="M46.8,11c11.55,0,16.17,5.775,17.49,10.065c0.165-0.165,0.495-0.165,0.66-0.165 c3.038,0,8.139,3.485,8.933,11.056L74,32l-0.044,0.905C73.976,33.266,74,33.622,74,34c0,0-0.038-0.014-0.095-0.035l-0.504,10.399 c-0.048,0.987,0.656,1.824,1.625,2.018c0.901,0.18,2.029,0.62,3.085,1.622c1.901,2.552,1.148,7.247-1.681,10.486 c-0.783,0.896-1.582,1.567-2.371,2.016c-0.909,0.519-1.511,1.437-1.562,2.482L72,73.254c0,2.341-1.17,4.526-3.117,5.824L63,83 l-6.667,5c-0.865,0.649-1.918,1-3,1h-6.666c-1.082,0-2.135-0.351-3-1L37,83l-5.883-3.922C29.17,77.78,28,75.594,28,73.254 L27.384,63.01c-0.063-1.043-0.671-1.956-1.587-2.461c-0.813-0.449-1.64-1.134-2.449-2.059c-2.829-3.239-3.582-7.934-1.681-10.486 c0.702-1.055,1.896-1.489,2.91-1.654c1.015-0.166,1.741-1.066,1.679-2.092L26.241,44H19c-4-21,11.3-24.75,11.3-24.75L28,18 C32.95,13.05,41.025,11,46.8,11 M46.8,8c-6.017,0-15.106,2.063-20.921,7.879c-0.668,0.669-0.983,1.613-0.848,2.549 c-5.008,3.125-11.971,10.42-8.978,26.134c0.254,1.334,1.368,2.32,2.702,2.429c-2.113,3.737-1.178,9.452,2.334,13.473 c1.031,1.18,2.147,2.101,3.301,2.731L25,73.352c0.032,3.314,1.691,6.382,4.453,8.223l5.813,3.876l6.6,4.95 c1.375,1.032,3.08,1.6,4.8,1.6h6.667c1.72,0,3.424-0.568,4.8-1.6l6.6-4.95l5.813-3.876c2.766-1.844,4.427-4.92,4.453-8.241 l0.494-10.187c1.111-0.624,2.18-1.52,3.195-2.682c3.766-4.312,4.569-10.572,1.828-14.252c-0.948-1.272-2.43-2.23-4.072-2.694 l0.418-8.622C76.953,34.609,77,34.308,77,34c0-0.378-0.019-0.738-0.039-1.099l0-0.008l0.036-0.748 c0.022-0.457-0.06-0.901-0.229-1.304c-1.139-7.909-6.437-12.038-10.477-12.808C64.385,14.194,59.36,8,46.8,8L46.8,8z"/><polygon fill="#ffc7a3" points="72,50 28,50 28,26 72,31"/><path fill="#ffc7a3" d="M33,79l9.672,7.781C44.842,88.228,47.392,89,50,89h0c2.608,0,5.158-0.772,7.328-2.219L68,79V40H32L33,79z"/><polygon fill="#2b59a1" points="61,21 29,20 28,41 72,41 72,31"/><path fill="#2b59a1" d="M33,49v4.742c0,1.49,0.303,2.964,0.889,4.333l0.574,1.34C35.477,61.78,36,64.327,36,66.9V83l-4.883-3.922 C29.17,77.78,28,75.594,28,73.254L26,40l7-11V49z"/><path fill="#2b59a1" d="M67,49v4.742c0,1.49-0.303,2.964-0.889,4.333l-0.574,1.34C64.523,61.78,64,64.327,64,66.9V83l4.883-3.922 C70.83,77.78,72,75.594,72,73.254L74,32l-7-3V49z"/><path fill="#2b59a1" d="M56.409,83.685l-1.572-3.057c-0.514-1-1.544-1.628-2.668-1.628h-4.339c-1.124,0-2.154,0.628-2.668,1.628 l-1.572,3.057L33,74l3,9l7.667,5c0.865,0.649,1.918,1,3,1h6.667c1.082,0,2.135-0.351,3-1L64,83l3-9L56.409,83.685z"/><path fill="#d47f56" d="M74,34c0-9-5.75-13.1-9.05-13.1c-0.165,0-0.495,0-0.66,0.165C62.97,16.775,58.35,11,46.8,11 c-5.775,0-13.85,2.05-18.8,7l2.3,1.25C30.3,19.25,15,23,19,44h14.6c0,0,3.135,0,6.765-1.65c1.65-0.66,3.3-1.815,4.785-3.3 C47.358,36.842,48.17,31.559,49,29c0.655-2.018,2.686-6,6-6s6,2.686,6,6C61,29.161,74,34,74,34z"/><path fill="#40396e" d="M60.987,51c4,0,5,3,5,3s-1.018,3-4,3c-2.982,0-7,0-7,0S58.005,51,60.987,51z"/><path fill="#40396e" d="M45,57c0,0-4.018,0-7,0s-4-3-4-3s1-3,5-3C41.982,51,45,57,45,57z"/><circle cx="40" cy="54" r="3" fill="#de5147"/><circle cx="60" cy="54" r="3" fill="#de5147"/><path fill="#40396e" d="M46,55c1.333,0,2.005-1.625,1.047-2.552C46.476,51.896,45.79,51.369,45,51 c-3.379-1.69-5.449-2.759-7.138-2.759C34.482,48.241,33,51,33,51s0.013-0.004,0.037-0.011c2.3-0.658,4.769-0.316,6.811,0.928 C42.093,53.285,45.01,55,46,55L46,55z"/><path fill="#40396e" d="M53.987,55c0.99,0,3.907-1.715,6.152-3.082c2.043-1.244,4.512-1.587,6.811-0.928 C66.974,50.996,66.987,51,66.987,51s-1.482-2.759-4.862-2.759c-1.69,0-3.759,1.069-7.138,2.759 c-0.79,0.369-1.476,0.896-2.047,1.448C51.982,53.375,52.654,55,53.987,55L53.987,55z"/></g></svg>