<svg xmlns="http://www.w3.org/2000/svg"  viewBox="0 0 100 100" width="100px" height="100px"><path d="M64.953,100c-7.131,0-13.623-1.606-19.295-4.886 c-0.292-0.165-0.63-0.363-0.962-0.567c-0.244-0.152-0.456-0.287-0.666-0.424c-0.497-0.319-1.027-0.682-1.543-1.059L41.93,92.65 c-0.21-0.153-0.459-0.337-0.694-0.529c-0.123-0.099-0.246-0.208-0.368-0.324c-10.516-8.582-14.522-24.441-16.272-32.436 C14.793,55.837,10,51.785,10,45.399c0-10.436,10.677-18.95,27.037-21.982c-0.619-0.85-1.151-1.761-1.568-2.706 c-0.359-0.775-0.652-1.683-0.836-2.618c0,0-0.051-0.245-0.058-0.286c-0.039-0.229-0.072-0.457-0.097-0.689 c-0.052-0.418-0.08-0.847-0.08-1.273C34.398,8.05,42.13,1.944,52,1.944S69.602,8.05,69.602,15.845c0,0.544-0.041,1.104-0.121,1.664 c-0.265,2.122-1.074,4.185-2.273,5.955c16.223,3.073,26.799,11.562,26.799,21.935c0,6.856-5.438,14.994-15.862,18.174 c-0.008,0.013-0.1,0.179-0.1,0.179c-2.162,3.866-6.148,10.994-6.411,14.582c0.003,0.078,0.004,0.156,0.004,0.235 c0,0.7,0.081,1.593,0.467,1.874c0.235,0.171,1.192,0.728,3.672,0.728c3.67,0,7.515-1.196,7.553-1.208 c0.633-0.203,1.302-0.308,1.977-0.308c2.094,0,4.071,1.018,5.289,2.723c1.653,2.315,1.618,5.399-0.088,7.676 C89.736,91.08,82.495,100,64.953,100z" opacity=".35"/><path fill="#f2f2f2" d="M62.953,98c-7.131,0-13.623-1.606-19.295-4.886c-0.292-0.165-0.63-0.363-0.962-0.567 c-0.244-0.152-0.456-0.287-0.666-0.424c-0.497-0.319-1.027-0.682-1.543-1.059L39.93,90.65c-0.21-0.153-0.459-0.337-0.694-0.529 c-0.123-0.099-0.246-0.208-0.368-0.324c-10.516-8.582-14.812-20.604-16.562-28.599C12.502,57.673,8,49.785,8,43.399 c0-10.436,10.677-18.95,27.037-21.982c-0.619-0.85-1.151-1.761-1.568-2.706c-0.359-0.775-0.652-1.683-0.836-2.618 c0,0-0.051-0.245-0.058-0.286c-0.039-0.229-0.072-0.457-0.097-0.689c-0.052-0.418-0.08-0.847-0.08-1.273C32.398,6.05,40.13,0,50,0 s17.602,6.05,17.602,13.845c0,0.544-0.041,1.104-0.121,1.664c-0.265,2.122-1.074,4.185-2.273,5.955 c16.223,3.073,26.799,11.562,26.799,21.935c0,6.856-5.438,14.994-15.862,18.174c-0.008,0.013-0.1,0.179-0.1,0.179 c-2.162,3.866-6.148,10.994-6.411,14.582c0.003,0.078,0.004,0.156,0.004,0.235c0,0.7,0.081,1.593,0.467,1.874 c0.235,0.171,1.192,0.728,3.672,0.728c3.67,0,7.515-1.196,7.553-1.208c0.633-0.203,1.302-0.308,1.977-0.308 c2.094,0,4.071,1.018,5.289,2.723c1.653,2.315,1.618,5.399-0.088,7.676C87.736,89.08,80.495,98,62.953,98z"/><path fill="#de5147" stroke="#40396e" stroke-linecap="round" stroke-linejoin="round" stroke-miterlimit="10" stroke-width="3" d="M50,6.5c-6.131,0-11.102,3.257-11.102,7.345s4.97,7.401,11.102,7.401s11.102-3.314,11.102-7.401S56.131,6.5,50,6.5z"/><path fill="#82b1ff" d="M66.652,84.155c-8.696-5.366,0.925-23.498,4.441-29.419c9.436-1.48,14.062-6.291,14.062-11.102 c0-7.956-12.212-14.802-28.309-16.282c0.37-0.74,0.555-1.48,0.555-2.22c0-3.145-1.946-3.154-1.85-6.291l0,0c0-0.37,0-0.74,0-1.295 C52.405,15.325,50,10.144,50,10.144s-2.405,5.551-5.551,7.401c0,0.555,0.274,1.272,0.459,1.827l-0.226,0.567 c0,2.59-2.083,2.047-2.083,5.008c0,0.74,0.185,1.48,0.555,2.22c-16.097,1.48-28.309,8.326-28.309,16.282 c0,4.996,4.441,9.436,13.137,11.102c1.11,7.771,7.031,37.005,34.97,37.005c14.802,0,20.353-7.401,20.353-7.401 S76.644,90.446,66.652,84.155z"/><path fill="#70bfff" d="M66.652,84.155c-8.696-5.366,0.925-23.498,4.441-29.419c9.436-1.48,14.062-6.291,14.062-11.102 c0-7.956-12.212-14.802-28.309-16.282c0.37-0.74,0.555-1.48,0.555-2.22c0-3.145-1.85-3.255-1.85-6.291l0,0c0-0.37,0-0.74,0-1.295 C52.405,15.325,50,10.144,50,10.144s-2.405,5.551-5.551,7.401c0,0.555,0.297,2.036,0.167,2.826l-0.593-0.48 c0,2.59-1.424,2.094-1.424,5.054c0,0.74,0.185,1.48,0.555,2.22c-16.097,1.48-28.309,8.326-28.309,16.282 c0,4.996,4.441,9.436,13.137,11.102c1.11,7.771,7.031,37.005,34.97,37.005c14.802,0,20.353-7.401,20.353-7.401 S76.644,90.446,66.652,84.155z"/><path fill="#f9b84f" d="M50,31.978c0,0,6.406-0.155,5.481,8.727c6.771-5.088,11.172-4.656,11.172-4.656 c0-3.145-1.85-3.701-1.85-3.701S59.806,30.867,50,31.978z"/><path fill="#de5147" d="M68.133,84.895c-0.37-0.185-0.925-0.555-1.48-0.74c-2.59-1.665-3.516-4.256-3.516-7.586 c-5.181,6.846-14.987,8.326-19.798,8.511c3.886,3.145,9.066,5.366,14.987,6.106C61.657,89.891,65.172,87.856,68.133,84.895z"/><path fill="#40396e" d="M49.075,32.163c-0.37,0-0.74,0-1.11-0.185c-0.555-0.185-1.295-0.37-1.85-0.555 c-1.295-0.555-2.482-0.96-2.667-1.7c-6.852,1.592-8.922,2.703-17.501,6.326C25.947,36.048,37.973,33.458,49.075,32.163 L49.075,32.163z" opacity=".35"/><path fill="none" stroke="#40396e" stroke-linecap="round" stroke-linejoin="round" stroke-miterlimit="10" stroke-width="3" d="M59.461,27.167c15.387,1.742,26.045,8.512,26.045,16.232c0,4.996-4.989,10.891-13.685,12.556c-2.664,4.967-8.662,14.594-8.7,20.634 c0.005-0.007,0.012-0.013,0.017-0.02c0,14.105,20.168,7.586,20.168,7.586s-5.483,7.332-20.285,7.332 c-6.456,0-11.792-1.504-16.109-4c-0.275-0.156-0.546-0.314-0.813-0.478c-0.171-0.106-0.339-0.214-0.507-0.324 c-0.434-0.279-0.856-0.567-1.266-0.866c-0.095-0.069-0.188-0.141-0.282-0.211c-0.234-0.176-0.479-0.345-0.705-0.528 c0.01,0,0.022-0.001,0.032-0.002c-11.452-9.075-14.626-23.605-15.405-29.056C19.27,54.357,14.5,48.395,14.5,43.399 c0-7.72,10.652-14.49,26.039-16.232"/><path fill="#40396e" d="M49.905,34.571c-5.179,0-9.393-3.088-9.393-8.267c0-2.763,2.021-5.089,2.216-6.349 c0.126-0.819-0.768-1.819,0.048-1.687c1.025,0.33,1.843,1.107,1.843,1.935c0,1.926-1.107,2.103-1.107,4.975 c0,3.525,2.868,6.393,6.393,6.393c0.052,0,0.414-0.004,0.464,0.001c0.756,0.077,1.036,0.722,1.036,1.499 C51.405,33.9,50.733,34.571,49.905,34.571z"/><path fill="#40396e" d="M50.416,34.571c5.179,0,9.393-3.088,9.393-8.267c0-2.763-2.021-5.089-2.216-6.349 c-0.126-0.819,0.768-1.819-0.048-1.687c-1.025,0.33-1.843,1.107-1.843,1.935c0,1.926,1.107,2.103,1.107,4.975 c0,3.525-2.868,6.393-6.393,6.393c-0.828,0-1.5,0.671-1.5,1.5S49.588,34.571,50.416,34.571z"/><path fill="#40396e" d="M26.479,55.828C26.586,55.006,25.971,55.98,26.479,55.828L26.479,55.828z" opacity=".35"/><path fill="#40396e" d="M71.833,54.551c-7.742,0-14.012-3.775-19.631-7.914 c5.236-4.422,9.973-8.88,14.45-10.588c-11.593,0-21.529,18.503-38.671,18.503c-0.493,0-1.503,1.277-1.503,1.277 c-0.107,0.821,0.471,1.574,1.292,1.682c0.102,0.013,0.844,0.104,2.026,0.104c7.575,0,14.168-4.274,20.111-9.079 c5.943,4.805,12.536,9.079,20.111,9.079c1.183,0,1.925-0.091,2.026-0.104c0.821-0.108,1.399-0.861,1.292-1.682 C73.337,55.828,72.326,54.551,71.833,54.551z" opacity=".35"/><path fill="#40396e" d="M73.337,55.828C73.844,55.98,73.229,55.006,73.337,55.828L73.337,55.828z" opacity=".35"/><path fill="#40396e" d="M50,38.873c-1.236-3.151-6.44-6.259-6.44-6.259L50,32.57h6.818 C56.818,32.57,51.405,35.721,50,38.873z"/></svg>