<svg xmlns="http://www.w3.org/2000/svg"  viewBox="0 0 100 100" width="100px" height="100px"><path d="M51.5,100c-6.634,0-17.105-6.412-20.596-9.904 c-2.76-2.759-6.336-9.415-10.629-23.728c-0.092-0.299-0.168-0.646-0.216-0.999L14.96,27.772c-0.367-2.78,1.082-5.472,3.604-6.696 l6.589-3.203c-1.372-2.747-1.288-5.711-0.934-7.824C24.709,7.122,27.219,5,30.186,5c0.46,0,0.921,0.053,1.37,0.157 c1.184,0.276,2.585,0.736,3.944,1.502c0.975-1.136,2.214-2.13,3.671-2.931C40.036,3.253,41.021,3,42.014,3 c2.333,0,1.43,3.582,2.436,5.719c0.377,0.804,3.815-0.443,4.096,0.611c0.314,0.104,0.62,0.232,0.916,0.384l0.753-0.502l1.25-3.126 c0.651-1.631,1.959-2.946,3.588-3.608C55.833,2.161,56.656,2,57.5,2c0.912,0,1.798,0.188,2.632,0.557L69.14,6.56 c0.125,0.056,0.246,0.114,0.366,0.177c0.914-0.476,1.94-0.737,2.996-0.737c1.179,0,2.336,0.322,3.348,0.931l4.995,2.997 c1.634,0.979,2.752,2.62,3.067,4.502l0.572,3.434L86.4,19.3c1.627,1.22,2.6,3.164,2.6,5.2c0,4.271-0.249,39.161-8.856,54.224 C71.225,94.334,58.127,100,51.5,100z" opacity=".35"/><path fill="#f2f2f2" d="M49.5,98c-6.634,0-17.105-6.412-20.596-9.904c-2.76-2.759-6.336-9.415-10.629-23.728 c-0.092-0.299-0.168-0.646-0.216-0.999L12.96,25.772c-0.367-2.78,1.082-5.472,3.604-6.696l6.589-3.203 c-1.372-2.747-1.288-5.711-0.934-7.824C22.709,5.122,25.219,3,28.186,3c0.46,0,0.921,0.053,1.37,0.157 c1.184,0.276,2.585,0.736,3.944,1.502c1.148,0.63,2.214-1.13,3.671-1.931C38.036,2.253,39.021,2,40.014,2 c2.333,0,4.489,1.382,5.495,3.519c0.377,0.804,0.82,2.337,1.793,2.337c0.847,0,2.163-3.769,2.163-3.769 c0.651-1.631,1.959-2.946,3.588-3.608C53.833,0.161,54.656,0,55.5,0c0.912,0,1.798,0.188,2.632,0.557L67.14,4.56 c0.125,0.056,0.246,0.114,0.366,0.177c0.914-0.476,1.94-0.737,2.996-0.737c1.179,0,2.336,0.322,3.348,0.931l4.995,2.997 c1.634,0.979,2.752,2.62,3.067,4.502l0.572,3.434L84.4,17.3c1.627,1.22,2.6,3.164,2.6,5.2c0,4.271-0.249,39.161-8.856,54.224 C69.225,92.334,56.127,98,49.5,98z"/><path fill="#ffb789" d="M19.404,24.921L24.5,62.5c0,0,6,18,9,21s12,8,16,8s15-4,23-18s8-51,8-51l-4-3l-1-6l-5-3l-3,5l-1,4 l-3-2l1-7l-9-4l-2,5l-3,2l-1,3l-5-3l-5,5v2h-4l-3,5l-4-5L19.404,24.921z"/><path fill="none" stroke="#40396e" stroke-linecap="round" stroke-linejoin="round" stroke-miterlimit="10" stroke-width="3" d="M34.5,21.5c0,0,0-4-3-7"/><path fill="#40396e" d="M33.85,16.127c-0.099,0.593-0.686,0.982-1.275,0.845c-1.293-0.301-3.466-1.046-4.628-2.78 c-1.162-1.734-1.016-4.016-0.798-5.32c0.099-0.593,0.686-0.982,1.275-0.845c1.293,0.301,3.466,1.046,4.628,2.78 C34.214,12.542,34.068,14.824,33.85,16.127z"/><path fill="none" stroke="#40396e" stroke-linecap="round" stroke-linejoin="round" stroke-miterlimit="10" stroke-width="3" d="M37.501,19.984c0.042-1.422,0.167-3.172,0.499-4.484"/><path fill="#40396e" d="M36.184,11.927c0.549-1.979,2.306-3.218,3.394-3.815c0.495-0.272,1.142-0.025,1.406,0.536 c0.58,1.234,1.381,3.447,0.832,5.426c-0.549,1.979-2.306,3.218-3.394,3.815c-0.495,0.272-1.142,0.025-1.406-0.536 C36.435,16.119,35.635,13.905,36.184,11.927z"/><path fill="#40396e" d="M45,62c0,0-3.358,5-7.5,5S30,62,30,62s3.358-5,7.5-5S45,62,45,62z"/><path fill="#40396e" d="M72,62c0,0-3.358,5-7.5,5S57,62,57,62s3.358-5,7.5-5S72,62,72,62z"/><circle cx="62.5" cy="60.5" r="1.5" fill="#fff"/><circle cx="35.5" cy="60.5" r="1.5" fill="#fff"/><path fill="#40396e" d="M43,76h10l5,2c0,0-2,4-8,4C45,82,43,76,43,76z" opacity=".35"/><polygon fill="#96c362" points="45,24 45,14 41,18 40,20 36,22 38.551,20.809 38,27 41,30 42,34 41.808,35.346 44,39 43,31 42,29 42,26"/><path fill="#96c362" d="M34,38v-5l2-4v-6.428L31,31c0,0,0.04,4.091,0.059,4.081C31.283,40.7,33,44,33,44l1.913-4.783L34,38 z"/><path fill="#96c362" d="M28,31l2.855-5.664C30.722,25.275,30.741,25.173,31,25l-3-4l-8,5l3,19l4-8 c0,0,1.296-0.562,2.771-1.277L28,31z"/><polygon fill="#96c362" points="36,22.156 36,22 35.737,22.263"/><polygon fill="#40396e" points="41,30 38,27 38.551,20.809 36,22 36,22.156 31.539,23.978 28,31 29.772,35.714 31.711,40.089 31.378,38.481 31.054,34.988 31,31 36,22.572 36,29 34,33 34,38 37,42 36,36 38,32 40,36 41,41 42,34" opacity=".35"/><polygon fill="#40396e" points="45,15 48,24 45,35 47,41 47,34 51,25 50.045,16.275" opacity=".35"/><polygon fill="#96c362" points="56.281,8.202 56.547,8.183 56,8 52.169,12.584 50,16 51,25 50,28 51,36 53,22 55.168,20.194"/><polygon fill="#96c362" points="62,10 58.854,8.951 57.412,18.324 58.455,17.455 60,19 61,25 61,30 63,26 63,18 64,12"/><polygon fill="#40396e" points="56.281,8.202 55,22 56,41 57,21 59,8" opacity=".35"/><polygon fill="#40396e" points="62.82,17.641 63,26 60.258,32 60.865,40.09 62.551,32.539 65.315,28.157 66.461,38.27 67,29 66.933,19.528" opacity=".35"/><g><polygon fill="#96c362" points="71.18,33.854 75.09,20.067 77.587,21.19 76,20 75.174,13.444 70.826,10.764 67.893,14.961 67,20 67,29 70,30"/><polygon fill="#96c362" points="73.775,33.112 73.502,38.003 76,42 78,51 80,36 80,23.289"/></g><polygon fill="#40396e" points="75.09,20.068 71.18,33.854 73,46.966 73.775,33.112 80.5,22.5" opacity=".35"/><path fill="none" stroke="#40396e" stroke-linecap="round" stroke-linejoin="round" stroke-miterlimit="10" stroke-width="3" d="M19.404,24.921L24.5,62.5c0,0,6,18,9,21s12,8,16,8s15-4,23-18s8-51,8-51l-4-3l-1-6l-5-3l-3,5l-1,4l-2.298-1.303L64.5,10.5l-9-4 l-2,5l-3,2l-1,3l-5-3l-5,5v2h-4l-3,5l-4-5L19.404,24.921z"/></svg>