<svg xmlns="http://www.w3.org/2000/svg"  viewBox="0 0 100 100" width="100px" height="100px"><path d="M40.499,100c-3.088,0-5.769-2.199-6.373-5.229l0.599-4.783c-4.759-1.842-8.2-3.658-10.062-5.764 C20.065,83.564,16,82.277,16,77.5c0-2.561,0.95-5,2.542-6.763c0.563-2.88,1.305-5.286,2.243-7.272C20.268,62.212,20,60.871,20,59.5 c0-0.056,0-0.112,0.001-0.168C18.051,56.634,17,53.401,17,50c0-3.697,1.273-7.232,3.563-10.057 c-0.259-4.539,2.195-8.291,5.07-10.663c4.617-11.243,11.541-18.159,20.612-20.595C49.062,5.131,53.382,3,58,3 c2.655,0,5.206,0.689,7.477,2.007C73.528,5.26,80,11.889,80,20c0,0.407-0.018,0.816-0.052,1.226C82.638,25.539,84,30.666,84,36.5 c0,2.447-0.322,4.946-0.979,7.567c0.755,1.213,1.104,2.668,0.939,4.152l-1,8.999c-0.244,2.2-1.562,4.039-3.397,5.019 C79.849,63.289,80,64.386,80,65.5c0,4.054-1.942,7.736-5.042,10.038c0.689,2.968,1.785,5.913,3.356,9.055 c0.907,1.815,0.91,3.983,0.006,5.8c-0.898,1.814-2.629,3.124-4.626,3.497l-31.997,6C41.305,99.962,40.9,100,40.499,100z" opacity=".35"/><path fill="#f2f2f2" d="M38.499,98c-3.088,0-5.769-2.199-6.373-5.229l-0.239-1.192c-4.759-1.842-7.884-4.57-9.746-6.676 C17.544,84.242,14,80.277,14,75.5c0-2.561,0.95-5,2.542-6.763c0.563-2.88,1.305-5.286,2.243-7.272C18.268,60.212,18,58.871,18,57.5 c0-0.056,0-0.112,0.001-0.168C16.051,54.634,15,51.401,15,48c0-3.697,1.273-7.232,3.563-10.057 c-0.259-4.539,2.195-8.291,5.07-10.663C28.251,16.038,35.175,9.122,44.246,6.686C47.062,3.131,51.382,1,56,1 c2.655,0,5.206,0.689,7.477,2.007C71.528,3.26,78,9.889,78,18c0,0.407-0.018,0.816-0.052,1.226C80.638,23.539,82,28.666,82,34.5 c0,2.447-0.322,4.946-0.979,7.567c0.755,1.213,1.104,2.668,0.939,4.152l-1,8.999c-0.244,2.2-1.562,4.039-3.397,5.019 C77.849,61.289,78,62.386,78,63.5c0,4.054-1.942,7.736-5.042,10.038c0.689,2.968,1.785,5.913,3.356,9.055 c0.907,1.815,0.91,3.983,0.006,5.8c-0.898,1.814-2.629,3.124-4.626,3.497l-31.997,6C39.305,97.962,38.9,98,38.499,98z"/><path fill="#ffc571" d="M71.5,63.5c0-2.662-1.735-4.915-4.134-5.7c2.893-6.971,8.134-14.611,8.134-23.3 c0-22-23.466-22.32-23.466-22.32c-11.056,0-18.337,6.607-23.056,19.281c0,0-5.478,3.039-3.478,8.039v0.763 c-2.418,1.722-4,4.542-4,7.737c0,3.012,1.406,5.691,3.592,7.432C24.724,56.037,24.5,56.74,24.5,57.5c0,1.008,0.385,1.917,1,2.62 v2.635c-1.511,2.221-2.422,5.698-3,9.745c-1,0-2,1.343-2,3s1.343,3,3,3h2c0,0,4,8,13,10v4l32-6 c-3.207-6.414-4.356-12.646-4.768-17.012C68.937,69.366,71.5,66.735,71.5,63.5z"/><path fill="#d47f56" d="M51.905,63.886C48.894,61.915,45.312,61,41.713,61H29.5c-1.233,0-2.312-0.641-2.936-1.605 c-0.864,0.057-1.362,0.11-1.362,0.11L23,70l-2.5,5.5L21,78l4.5,0.5l3.242,2.107C39.742,89.607,58,86,58,75 C58,69.768,55.511,66.246,51.905,63.886z"/><path fill="#d47f56" d="M25,77c0,0,6,2,25.577-3.657C51.073,73.2,50.559,75.126,51,75c0,0-15,7-24,5L25,77z"/><path fill="none" stroke="#40396e" stroke-linecap="round" stroke-linejoin="round" stroke-miterlimit="10" stroke-width="3" d="M71.5,63.5c0-2.662-1.735-4.915-4.134-5.7c2.893-6.971,8.134-14.611,8.134-23.3c0-22-23.466-22.32-23.466-22.32 c-11.056,0-18.337,6.607-23.056,19.281c0,0-5.478,3.039-3.478,8.039v0.763c-2.418,1.722-4,4.542-4,7.737 c0,3.012,1.406,5.691,3.592,7.432C24.724,56.037,24.5,56.74,24.5,57.5c0,1.008,0.385,1.917,1,2.62v2.635 c-1.511,2.221-2.422,5.698-3,9.745c-1,0-2,1.343-2,3s1.343,3,3,3h2c0,0,3,6,12,8l1,5l32-6c-3.207-6.414-4.356-11.646-4.768-16.012 C68.937,69.366,71.5,66.735,71.5,63.5z"/><path fill="#d47f56" d="M49,71c0,0,2,2.625,1,7c0,0,3-0.875,3-3.5C53,72.75,51.925,71,49,71z"/><path fill="#40396e" d="M49,71c0,0,0.673,0.892,1.043,2.494C30.897,78.958,25,77,25,77l2,3 c7.822,1.738,20.171-3.32,23.271-4.674C50.293,76.124,50.225,77.015,50,78c0,0,3-0.875,3-3.5C53,72.75,51.925,71,49,71z" opacity=".35"/><circle cx="31" cy="48" r="8" fill="#f2f2f2"/><circle cx="31" cy="48" r="2" fill="#40396e"/><circle cx="64.5" cy="63.5" r="2.5" fill="#d47f56"/><path fill="#ffc571" d="M65,60c0,0-1,4-1,8l-5-3l2-6L65,60z"/><polyline fill="none" stroke="#40396e" stroke-linecap="round" stroke-linejoin="round" stroke-miterlimit="10" stroke-width="3" points="61.5,50.5 66.5,42.5 68.056,51.18 75.5,45.5 74.5,54.5"/><path fill="none" stroke="#40396e" stroke-linecap="round" stroke-linejoin="round" stroke-miterlimit="10" stroke-width="3" d="M48.321,12.35C49.687,9.482,52.612,7.5,56,7.5c4.694,0,8.5,3.806,8.5,8.5c0,2.262-0.884,4.318-2.324,5.841"/><path fill="none" stroke="#40396e" stroke-linecap="round" stroke-linejoin="round" stroke-miterlimit="10" stroke-width="3" d="M56.449,12.583C58.008,10.7,60.364,9.5,63,9.5c4.694,0,8.5,3.806,8.5,8.5c0,2.794-1.348,5.272-3.428,6.822"/><path fill="#ffc571" d="M50.551,61H29.5c-1.933,0-3.5-1.567-3.5-3.5v0c0-1.933,1.567-3.5,3.5-3.5h21.051V61z"/><circle cx="47" cy="49" r="9" fill="#f2f2f2"/><circle cx="47" cy="49" r="2" fill="#40396e"/></svg>