<svg xmlns="http://www.w3.org/2000/svg"  viewBox="0 0 100 100" width="100px" height="100px"><path d="M51.078,100.006c-10.486,0-17.951-7.426-18.768-8.272 c-5.823-5.829-8.31-12.207-9.351-17.008C20.406,74.179,23.751,72.004,22,70c-4.514-5.167-11.801-13.957-7.442-19.312 c-1.267-2.264-2.092-4.522-2.463-6.753c-0.604-3.63,0.008-5.726,0.5-8.416C12.785,34.48,13,33.311,13,32.752 c0-0.79-0.722-2.91-1.313-4.092c-1.014-2.027-0.909-4.39,0.28-6.319c1.2-1.938,3.267-3.089,5.533-3.089 c2.157,0,4.034,0.369,5.652,0.948c0.067-0.176,0.128-0.344,0.182-0.504c0.588-1.766,0.219-2.656,0.108-2.863 c-1.534-1.915-1.869-4.548-0.847-6.779c1.06-2.312,3.377-3.802,5.904-3.802c3.059,0,6.173,1.198,9.211,3.515 c3.648-4.746,9.083-7.025,12.278-7.631c0.413-0.077,0.813-0.113,1.211-0.113c2.002,0,3.463,1.822,5.102,2.469 c0.201,0.254,0.381,0.521,0.539,0.796c3.257-1.993,6.856-1.746,10.659-1.746c2.545,0,4.854,0.211,5.905,2.495 c0.039-0.021,0.078-0.043,0.118-0.063c0.93-0.474,1.953-0.72,2.977-0.72c1.736,0,3.369,0.676,4.596,1.903 c0.819,0.818,4.9,5.414,4.904,15.58c1.663,0.694,3.011,2.081,3.637,3.872c0.479,1.377,4.057,11.401-2.161,24.046 c4.359,5.352,2.64,15.011-1.875,20.18c-1.565,1.791-3.529,3.045-5.714,3.681c-1.018,4.825-3.506,11.327-9.47,17.3 C69.576,92.655,61.913,100.006,51.078,100.006z" opacity=".35"/><path fill="#f2f2f2" d="M49.078,98.006c-10.486,0-17.951-7.426-18.768-8.272c-5.823-5.829-8.31-12.207-9.351-17.008 c-2.554-0.547-4.775-1.854-6.526-3.858C9.92,63.7,8.199,54.043,12.558,48.688c-1.267-2.264-2.092-4.522-2.463-6.753 c-0.604-3.63,0.008-5.726,0.5-8.416C10.785,32.48,11,31.311,11,30.752c0-0.79-0.722-2.91-1.313-4.092 c-1.014-2.027-0.909-4.39,0.28-6.319c1.2-1.938,3.267-3.089,5.533-3.089c2.157,0,4.034,0.369,5.652,0.948 c0.067-0.176,0.128-0.344,0.182-0.504c0.588-1.766,0.219-2.656,0.108-2.863c-1.534-1.915-1.869-4.548-0.847-6.779 c1.06-2.312,3.377-3.802,5.904-3.802c3.059,0,6.173,1.198,9.211,3.515c3.648-4.746,9.083-7.025,12.278-7.631 c0.413-0.077,0.813-0.113,1.211-0.113c2.002,0,3.861,0.899,5.102,2.469c0.201,0.254,0.381,0.521,0.539,0.796 c3.257-1.993,6.856-3.035,10.659-3.035c2.545,0,4.854,1.5,5.905,3.784c0.039-0.021,0.078-0.043,0.118-0.063 c0.93-0.474,1.953-0.72,2.977-0.72c1.736,0,3.369,0.676,4.596,1.903c0.819,0.818,4.9,5.414,4.904,15.58 c1.663,0.694,3.011,2.081,3.637,3.872c0.479,1.377,4.057,11.401-2.161,24.046c4.359,5.352,2.64,15.011-1.875,20.18 c-1.565,1.791-3.529,3.045-5.714,3.681c-1.018,4.825-3.506,11.327-9.47,17.3C67.576,90.655,59.913,98.006,49.078,98.006z"/><path fill="#ffc7a3" d="M63.787,83.418c5.121-4.146,6.022-9.918,8.431-17.262c2.017,1.888,5.296,1.379,7.898-1.599 c2.83-3.239,3.582-7.934,1.681-10.486c-1.519-2.039-4.104-2.282-6.593-0.569c0.692-4.458,0.283-8.708,0.283-12.298 c0-16.628-11.279-25.423-26.085-25.423s-26.084,8.796-26.084,25.424c0,3.655-0.289,7.994,0.578,12.54 c-0.578-2.16-4.731-1.77-6.318,0.36c-1.901,2.552-1.148,7.247,1.681,10.486c2.83,3.239,5.89,3.569,7.791,1.017 c0.008-0.01,0.013-0.022,0.021-0.032c1.739,7.963,2.65,13.331,7.249,17.635l10.177,7.89h9.61L63.787,83.418z"/><path fill="#ff7575" d="M16.489,26.05l1.011,4.247l-1.163,8.254l1.517,6.169L23,50l6.006,4.073c0,0,1.626-2.272,0.848-5.039 c-1.196-4.257-4.765-8.668-2.865-10.86c0,0,1.685,1.49,6.084,2.855c0,0-2.545-5.675-0.051-9.821c0,0,2.73,4.056,5.966,6.045 c0,0,0.152-6.955,2.124-10.09c0,0,4.854,2.326,6.91,7.112c0,0,4.449-3.169,4.921-9.101c0,0,4.989,2.483,5.056,10.045 c0,0,4.348-2.326,4.348-7.854c0,0,3.404,4.079,2.562,9.876c0,0,3.101-0.91,6.135-5.966c0,0-0.135,7.141-3.169,10.681 c0,0,4.567,0.236,7.096-3c0,0-3.067,4.098-5.039,9.253c-0.657,1.718-0.86,4.247-0.051,5.966L76,50l5.157-7.708l1.719-6.433 l-1.348-6.303l-4.719,4.719l-1.146-2.225l1.652-7.787l-0.539-7.787l-1.382-2.326l-3.91,7.348l-3.371-5.393l-4.618,3.472 l-3.843,0.135l0.101-5.663l3.067-5.528l-3.27-0.034l-5.528,4.719L51.36,19.14l-3.775-2.124l0.539-8.292l-0.843-1.618L43.27,9.6 L40,14.016l-0.775,4.449l-2.258-0.034l-4.382-5.056l-3.506-1.787l-1.584,1.685l1.517,2.73l-1.247,5.528l-2.326,2.831l-1.483,1.888 l-2.865-1.18l-4.618-1.281L16.489,26.05z"/><path fill="none" stroke="#40396e" stroke-linecap="round" stroke-linejoin="round" stroke-miterlimit="10" stroke-width="3" d="M76.163,51.32c9.91-12.674,5.337-24.568,5.337-24.568s-2,7-4,7c-4,0,0-5,0-13s-3-11-3-11c1,6-5,16-5,16c1-6-2-12-2-12c0,5-8,10-8,4 s6-11,6-11c-11,0-16,13-16,13c-4-5-0.298-13.23-0.298-13.23S37.5,8.752,38.5,20.752c0,0-6-10-12-10c0,0,2.924,3.229,1,9 c-1,3-3,6-3,10c0,0-2-6-9-6c0,0,2,4,2,7s-1.672,6.046-0.994,10.113c1,6,7.146,11.35,7.146,11.35"/><path fill="#40396e" d="M76.84,50.003c0.059-0.348,0.104-0.668,0.157-1.003c0,0-3.389,2.057-3.608,3.207 c-0.116,0.61,0.156,1.229,0.684,1.556c0.527,0.327,1.202,0.294,1.697-0.081c2.011-1.526,3.248-0.276,3.477-0.01 c1.425,1.666,0.801,7.066-1.672,9.897c-1.993,2.282-4.602,1.198-4.882,1.072c-0.36-0.17-0.774-0.189-1.147-0.053 c-0.616,0.223-1.016,0.842-0.989,1.496c0.042,1.009,0.183,10.081-7.803,18.078c-0.058,0.059-5.921,5.844-13.675,5.844 c-7.253,0-12.958-5.772-13.03-5.846c-7.984-7.994-7.843-17.067-7.801-18.075c0.027-0.655-0.373-1.274-0.989-1.496 C27.095,64.53,26.922,64.5,26.75,64.5c-0.189,0-0.377,0.036-0.557,0.105c-0.037,0.014-3.63,1.409-5.736-1.002 c-2.473-2.831-3.096-8.231-1.671-9.897c0.3-0.349,2.378-1.469,4.302-0.006c0.495,0.377,1.171,0.409,1.698,0.081 c0.528-0.327,0.8-0.946,0.684-1.556C25.245,51.045,21.842,49,21.842,49c0.056,0.341,0.114,0.686,0.177,1.046 c-2.299-0.392-4.493,0.522-5.511,1.711c-2.767,3.234-1.383,10.302,1.691,13.821c2.201,2.519,5.159,2.618,7.099,2.326 c0.263,3.618,1.677,11.415,8.611,18.359c0.266,0.275,6.623,6.743,15.169,6.743c9.031,0,15.532-6.455,15.801-6.725 c6.926-6.935,8.355-14.709,8.625-18.347c1.899,0.237,4.374-0.15,6.331-2.389c3.073-3.519,4.457-10.587,1.691-13.821 C80.485,50.506,78.766,49.702,76.84,50.003z"/><path fill="#ff7575" d="M33,52l11,5c0,0-2,3-6,3C33,60,33,52,33,52z"/><path fill="#ff7575" d="M66,52l-11,5c0,0,2,3,6,3C66,60,66,52,66,52z"/></svg>