<svg xmlns="http://www.w3.org/2000/svg"  viewBox="0 0 100 100" width="100px" height="100px"><path d="M23,100c-2.092,0-4.068-1.016-5.286-2.718l-5.003-7.004 c-0.497-0.698-0.844-1.464-1.037-2.286C9.505,87.882,11.107,85.882,10,84c-1.163-1.977-4.795-3.652-3.682-5.657l4.043-5.277 c-1.423-1.439-2.128-3.508-1.773-5.636c1.074-6.446,8.163-15.849,11.702-20.217l2.624-6.995c0.212-0.569,0.51-1.116,0.882-1.613 L27,34.333V30.5c0-1.857,0.796-3.629,2.185-4.861l3.412-3.032l5.428-11.667c1.026-2.393,3.375-3.938,5.985-3.938 c0.236,0,0.474,0.013,0.712,0.038c0.288,0.035,0.569,0.088,0.843,0.158l0.304-0.861C46.788,3.742,49.25,2,52,2 s2.758,2.138,3.674,4.73l2.757,0.463c0.257-0.065,0.521-0.114,0.789-0.146c0.304-0.033,0.536-0.045,0.766-0.045 c2.613,0,4.964,1.546,5.989,3.939l5.428,11.665l3.416,3.035C76.204,26.871,77,28.643,77,30.5l-0.157,4.545L80.2,38.6 c0.375,0.502,0.674,1.049,0.89,1.63l2.224,7.624c3.539,4.368,11.022,13.129,12.097,19.577c0.355,2.127-0.626,4.47-2.049,5.91 l4.043,5.277c1.114,2.005,1.083,4.478-0.08,6.454c-1.107,1.882-2.832,2.81-5,2.92c-0.193,0.82-0.54,1.587-1.033,2.279l-5.004,7.007 C85.068,98.984,83.092,100,81,100H23z" opacity=".35"/><path fill="#f2f2f2" d="M21,98c-2.092,0-4.068-1.016-5.286-2.718l-5.003-7.004c-0.497-0.698-0.844-1.464-1.037-2.286 c-2.169-0.11-4.168-1.313-5.276-3.195c-1.163-1.977-1.193-4.449-0.08-6.454l4.043-5.277c-1.423-1.439-2.128-3.508-1.773-5.636 c1.074-6.446,8.163-15.849,11.702-20.217l2.624-6.995c0.212-0.569,0.51-1.116,0.882-1.613L25,32.333V28.5 c0-1.857,0.796-3.629,2.185-4.861l3.412-3.032l5.428-11.667c1.026-2.393,3.375-3.938,5.985-3.938c0.236,0,0.474,0.013,0.712,0.038 c0.288,0.035,0.569,0.088,0.843,0.158l0.304-0.861C44.788,1.742,47.25,0,50,0s5.212,1.742,6.129,4.335l0.303,0.858 c0.257-0.065,0.521-0.114,0.789-0.146c0.304-0.033,0.536-0.045,0.766-0.045c2.613,0,4.964,1.546,5.989,3.939l5.428,11.665 l3.416,3.035C74.204,24.871,75,26.643,75,28.5v4.002l3.2,4.267c0.375,0.333,0.674,0.88,0.89,1.461l2.619,6.983 c3.539,4.368,10.627,13.771,11.702,20.218c0.355,2.127-0.351,4.195-1.773,5.635l4.043,5.277c1.114,2.005,1.083,4.478-0.08,6.454 c-1.107,1.882-3.107,3.085-5.275,3.195c-0.193,0.82-0.54,1.587-1.033,2.279l-5.004,7.007C83.068,96.984,81.092,98,79,98H21z"/><path fill="#d9eeff" d="M50,6.5l6,16l2-11l6,13l4,4v6l5,6l3,8c0,0,10,12,11,18l-3,1l1,5l5,7h-5l-1,5l-5,7H21l-5-7l-1-5h-5 l5-7l1-5l-3-1c1-6,11-18,11-18l3-8l5-6v-6l4-4l6-13l2,11L50,6.5"/><path fill="#40396e" d="M68.38,62.62L64,67v-6.065c-0.466-0.139-0.98-0.279-1.517-0.418L58,65v-5.395 C55.676,59.247,53.006,59,50,59c-2.582,0-4.917,0.182-7,0.46V65l-4.684-4.684c-0.462,0.11-0.899,0.222-1.316,0.335V65l-4.606-2.764 c-0.314,0.138-0.532,0.243-0.63,0.292c-2.47,1.234-3.471,4.238-2.236,6.708c1.234,2.469,4.239,3.471,6.708,2.235 c0.021-0.01,0.99-0.47,2.764-0.99V66l3.638,3.638C44.672,69.274,47.139,69,50,69c3.251,0,6.016,0.358,8.199,0.801L62,66v4.801 c1.136,0.378,1.758,0.667,1.764,0.67c0.718,0.359,1.48,0.529,2.232,0.529c1.834,0,3.6-1.013,4.476-2.765 C71.681,66.819,70.737,63.9,68.38,62.62z"/><polygon fill="#70bfff" points="36.483,33 26.5,55 36.5,53 38.5,57 44.5,53 49.5,83 55.5,53 61.5,57 63.5,53 73.5,55 63.5,33"/><circle cx="40" cy="49" r="2" fill="#40396e"/><circle cx="60" cy="49" r="2" fill="#40396e"/><polygon fill="#b8dff9" points="46.333,43.473 35.725,46.384 37.125,43.926 34.667,42.527 45.275,39.616 43.875,42.074"/><polygon fill="#b8dff9" points="53.667,43.473 64.275,46.384 62.875,43.926 65.333,42.527 54.725,39.616 56.125,42.074"/><path fill="#f9b84f" d="M49,37c0,0-9,0-17-2v-6l1.101-2.112L36,25l5-10l2.82,6.697L49,9l1.629,0.551L55,21l2-7l2.326,1.753 l3.371,6.82l4.854,6.202L68,35C68,35,59,37,49,37z"/><path fill="none" stroke="#40396e" stroke-linecap="round" stroke-linejoin="round" stroke-miterlimit="10" stroke-width="3" d="M50,6.5l6,16l2-11l6,13l4.5,4v6l4.5,6l3,8c0,0,10,12,11,18l-3,1l1,5l5,7h-5l-1,5l-5,7H21l-5-7l-1-5h-5l5-7l1-5l-3-1 c1-6,11-18,11-18l3-8l4.5-6v-6l4.5-4l6-13l2,11L50,6.5"/><polygon fill="#ff7575" points="54,33 50.028,35 46,33 46,26 50,24 54,26"/><polygon fill="#ff7575" points="37,30 33,33 33,29.112 37,25.624"/><polygon fill="#ff7575" points="63,30 67,33 67,29.112 63,25.624"/></svg>