<svg xmlns="http://www.w3.org/2000/svg"  viewBox="0 0 100 100" width="100px" height="100px"><path d="M40.5,99c-1.916,0-3.724-0.839-4.961-2.301l-11-13.001C23.546,82.527,23,81.036,23,79.5v-9.646 l-3.493-4.192C18.535,64.496,18,63.018,18,61.5v-17c0-1.736,0.676-3.368,1.904-4.596L21,38.808V28.5 C21,12.315,37.069,4.944,52,4.944S83,12.315,83,28.5v10.308l1.096,1.096C85.324,41.132,86,42.764,86,44.5v17 c0,1.986-0.89,3.836-2.44,5.076L81,68.624V79.5c0,1.536-0.546,3.027-1.539,4.2L68.462,96.698C67.224,98.161,65.416,99,63.5,99 H40.5z" opacity=".35"/><path fill="#f2f2f2" d="M38.5,97c-1.916,0-3.724-0.839-4.961-2.301l-11-13.001C21.546,80.527,21,79.036,21,77.5v-9.646 l-3.493-4.192C16.535,62.496,16,61.018,16,59.5v-17c0-1.736,0.676-3.368,1.904-4.596L19,36.808V26.5 C19,10.315,35.069,2.944,50,2.944S81,10.315,81,26.5v10.308l1.096,1.096C83.324,39.132,84,40.764,84,42.5v17 c0,1.986-0.89,3.836-2.44,5.076L79,66.624V77.5c0,1.536-0.546,3.027-1.539,4.2L66.462,94.698C65.224,96.161,63.416,97,61.5,97 H38.5z"/><path fill="#ff7575" d="M61.5,90.5l11-13v-14l5-4v-17l-3-3c0,0,0-4,0-13c0-14-17.237-17.056-24.5-17.056 S25.5,12.5,25.5,26.5c0,9,0,13,0,13l-3,3v17l5,4v14l11,13H61.5z"/><path fill="none" stroke="#40396e" stroke-linecap="round" stroke-linejoin="round" stroke-miterlimit="10" stroke-width="3" d="M61.5,90.5l11-13v-14l5-4v-17l-3-3c0,0,0-4,0-13c0-14-17.237-17.056-24.5-17.056S25.5,12.5,25.5,26.5c0,9,0,13,0,13l-3,3v17l5,6v12 l11,13H61.5z"/><path fill="#ffc571" d="M72,57V45l-3-2V21c0,0-1-3-8-5l-4,12H43l-4-12c-7,2-8,5-8,5v22l-3,2v12l7,8l0.091,8.212L33,76l8,9h3 v-3h12v3h3l8-9l-2-3v-8L72,57z"/><path fill="#f2f2f2" d="M33.028,46.961L45,50l-1,3c0,0-6.616,0.045-9.177-1.11c-2.982-1.345-2.82-2.877-2.82-2.877 L33.028,46.961z"/><path fill="#f2f2f2" d="M66.974,46.961L55.002,50l1,3c0,0,6.616,0.045,9.177-1.11c2.982-1.345,2.82-2.877,2.82-2.877 L66.974,46.961z"/><polygon fill="#40396e" points="65,73 65,69 60.733,73.146 59.303,71 41.044,71 39.347,73.226 35,69 35.091,73.212 39.653,77.774 42.529,74 57.697,74 60.267,77.854" opacity=".35"/></svg>