<svg xmlns="http://www.w3.org/2000/svg"  viewBox="0 0 100 100" width="100px" height="100px"><g id="Слой_2"><path d="M95.328,79.661c-0.76-2.509-1.767-4.867-2.993-7.008c-2.511-4.386-2.511-14.036-2.511-19.802 c0-7.821,0-18.532-5.818-28.609C76.498,11.237,65.378,4.363,51.847,4.363c-4.14,0-8.529,0.654-13.045,1.945 c-5.913,1.689-10.747,5.653-13.806,11.265c-14.672,5.995-13.754,27.185-13.01,44.367c0.185,4.265,0.216,8.009-1.283,10.634 l-0.048,0.083c-1.233,2.152-2.246,4.53-3.008,7.063c-1.375,4.564-0.529,9.381,2.321,13.215C12.833,96.789,17.229,99,22.029,99 h30.965H54h26.965c4.8,0,9.194-2.211,12.055-6.067C95.876,89.084,96.717,84.246,95.328,79.661z" opacity=".35"/><path fill="#f2f2f2" d="M93.328,77.661c-0.76-2.509-1.767-4.867-2.993-7.008c-2.511-4.386-2.511-14.036-2.511-19.802 c0-7.821,0-18.532-5.818-28.609C74.498,9.237,63.378,2.363,49.847,2.363c-4.14,0-8.529,0.654-13.045,1.945 c-5.913,1.689-10.747,5.653-13.806,11.265C8.324,21.568,9.242,42.758,9.987,59.94c0.185,4.265,0.216,8.009-1.283,10.634 l-0.048,0.083c-1.233,2.152-2.246,4.53-3.008,7.063c-1.375,4.564-0.529,9.381,2.321,13.215C10.833,94.789,15.229,97,20.029,97 h30.965H52h26.965c4.8,0,9.194-2.211,12.055-6.067C93.876,87.084,94.717,82.246,93.328,77.661z"/><path fill="#dd4f2c" d="M85.672,79.98c-0.526-1.736-1.259-3.57-2.279-5.352C79.979,68.665,79.824,59,79.824,50.851 c0-7.752-0.064-16.5-4.746-24.609C66.17,10.813,53,8,39,12c-4.495,1.284-7.659,4.395-9.553,8.543 c-0.465,1.019-1.355,1.75-2.423,2.087c-9.737,3.073-10.042,17.395-8.839,41.316c0.186,3.699-0.696,7.378-2.533,10.595 l-0.049,0.085c-1.03,1.799-1.767,3.65-2.295,5.401C11.961,84.502,15.356,89,20.029,89h30.965H52h26.965 C83.659,89,87.033,84.472,85.672,79.98z"/><path fill="#40396e" d="M49.847,10.363c9.807,0,18.673,4.521,25.23,15.879c4.682,8.109,4.746,16.857,4.746,24.609 c0,8.149,0.154,17.814,3.569,23.777c1.02,1.782,1.753,3.616,2.279,5.352c1.361,4.492-2.013,9.02-6.707,9.02H52h-1.005H20.029 c-4.673,0-8.069-4.498-6.721-8.973c0.527-1.751,1.265-3.603,2.295-5.401l0.049-0.085c1.836-3.216,2.719-6.896,2.533-10.595 c-1.217-24.194-0.891-38.568,9.176-41.416c0.861-0.244,1.584-0.841,1.941-1.661C31.178,16.558,34.388,13.318,39,12 C42.695,10.944,46.331,10.363,49.847,10.363 M49.847,7.363c-3.675,0-7.602,0.589-11.672,1.752 c-5.195,1.484-9.266,5.19-11.606,10.515c-12.164,3.358-12.481,19.492-11.588,40.092c0.219,5.054,0.225,9.546-1.936,13.33 l-0.049,0.085c-1.046,1.826-1.908,3.854-2.562,6.024c-0.914,3.035-0.35,6.239,1.546,8.791C13.894,90.525,16.827,92,20.029,92 h30.965H52h26.965c3.201,0,6.131-1.475,8.039-4.046c1.903-2.565,2.464-5.789,1.539-8.844c-0.651-2.149-1.508-4.158-2.547-5.973 c-3.172-5.541-3.172-15.618-3.172-22.287c0-7.66,0-17.192-5.148-26.109C71.018,13.21,61.655,7.363,49.847,7.363L49.847,7.363z"/><polygon fill="#b73b3b" points="38,40 38,89 26,89"/><rect width="22" height="15" x="37" y="74" fill="#2b59a1"/><path fill="#40396e" d="M59.5,89.5h-23v-16h23V89.5z M37.5,88.5h21v-14h-21V88.5z"/><path fill="#ffc7a3" d="M68,34l-40-1c0,3.021-1.229,33.574,1,37c2.565,3.942,12,14,18.577,14h0.848 C54.093,83.678,63.435,73.942,66,70c2.229-3.426,2.185-7.966,2.195-7.962C69.63,62.519,68,37.02,68,34z"/><path fill="#40396e" d="M43,57c0,0-2-12-14-8C29,49,31,57,43,57z"/><path fill="#40396e" d="M53,57c0,0,2-12,14-8C67,49,65,57,53,57z"/><path fill="#f2f2f2" d="M53,57c0,0,2.347-7.042,10.563-5.868l0,0c-1.47,2.94-4.289,4.972-7.543,5.437L53,57z"/><path fill="#f2f2f2" d="M43,57c0,0-2.347-7.042-10.563-5.868l0,0c1.47,2.94,4.289,4.972,7.543,5.437L43,57z"/><path fill="#2b59a1" d="M63,29H33c-3.314,0-6,2.686-6,6v18v7v4.282c0.238,1.617,0.774,3.834,2,5.718 c1.578,2.426,5.724,7.041,10,10.311l-1.772-12.679c-0.15-1.073-0.547-2.096-1.16-2.99l-2.965-4.324 C31.733,58.319,31,55.953,31,53.531V38.187C40.586,39.257,48,47,48,47s7.9-7.664,17-9v14.303c0,2.486-0.772,4.911-2.21,6.94 l-3.804,5.366c-0.648,0.914-1.067,1.97-1.222,3.079L56,80.311c4.276-3.27,9.422-7.885,11-10.311c1.226-1.884,1.762-4.101,2-5.718 V60v-7V38v-3C69,31.686,66.314,29,63,29z"/><path fill="#2b59a1" d="M29.575,44.591c-1.463-2.092-4.731-3.097-6.575-0.741c-2.853,3.644-1.201,10.895,1.771,13.851 c2.768,2.754,4.229,2.333,5.922,1.764C30.705,59.461,28.731,40.161,29.575,44.591z"/><path fill="#2b59a1" d="M64.522,59.465c1.693,0.569,3.154,0.99,5.922-1.764c2.972-2.956,4.624-10.207,1.771-13.851 c-1.844-2.356-5.112-1.351-6.575,0.741C66.484,40.161,64.51,59.461,64.522,59.465z"/><path fill="#f4a3be" d="M55,38.25l-7,3.5l-7-3.5V33h14V38.25z"/><path fill="#f4665c" d="M68.501,26c-0.435,0-0.865-0.188-1.162-0.55c-8.291-10.134-18.158-8.542-18.576-8.474 c-0.808,0.146-1.592-0.4-1.736-1.214c-0.146-0.813,0.393-1.591,1.205-1.738c0.486-0.09,11.979-2.024,21.43,9.525 c0.524,0.642,0.43,1.587-0.211,2.111C69.171,25.889,68.835,26,68.501,26z"/><path fill="#40396e" d="M41.967,53.336c1.29,0.335,2.349-1.07,1.654-2.207c-0.414-0.677-0.945-1.36-1.617-1.915 c-2.847-2.484-4.581-4.039-6.217-4.463C32.516,43.901,31,46,31,46s-0.025,0.001,0,0c2.391-0.06,4.122,1.09,5.787,2.808 C38.616,50.695,41.009,53.088,41.967,53.336L41.967,53.336z"/><path fill="#40396e" d="M54.021,53.336c0.958-0.249,3.351-2.641,5.18-4.529c1.665-1.718,3.395-2.867,5.787-2.808 c0.025,0.001,0,0,0,0s-1.516-2.099-4.787-1.25c-1.636,0.424-3.37,1.979-6.217,4.463c-0.672,0.555-1.204,1.238-1.617,1.915 C51.672,52.266,52.73,53.671,54.021,53.336L54.021,53.336z"/><path fill="#739f4d" d="M40.899,53.734c-1.141-1.178-2.828-2.286-5.215-2.619C35.263,51.632,35,52.282,35,53 c0,0.703,0.252,1.341,0.657,1.853c0.649,0.454,1.35,0.831,2.093,1.122C37.834,55.982,37.914,56,38,56 C39.402,56,40.57,55.034,40.899,53.734z"/><g><path fill="#739f4d" d="M55.101,53.734C55.43,55.034,56.598,56,58,56c0.086,0,0.166-0.018,0.25-0.025 c0.743-0.291,1.444-0.668,2.093-1.122C60.748,54.341,61,53.703,61,53c0-0.718-0.263-1.368-0.683-1.885 C57.929,51.448,56.242,52.556,55.101,53.734z"/></g></g></svg>