<svg xmlns="http://www.w3.org/2000/svg"  viewBox="0 0 100 100" width="100px" height="100px"><path d="M15.771,96c-1.948,0-3.775-0.861-5.015-2.364 C7.368,89.532,5.5,84.333,5.5,79c0-4.055,1.1-8.069,3.138-11.568C7.562,64.412,7,61.2,7,58c0-10.703,5.845-20.144,15.148-24.894 C23.602,19.021,35.538,8,50,8c12.747,0,23.75,8.654,27.004,20.671C89.606,31.457,99,42.795,99,56c0,4.211-0.946,8.338-2.758,12.102 C98.035,71.438,99,75.21,99,79c0,5.333-1.868,10.532-5.26,14.639C92.504,95.139,90.677,96,88.729,96H15.771z" opacity=".35"/><path fill="#f2f2f2" d="M13.771,94c-1.948,0-3.775-0.861-5.015-2.364C5.368,87.532,3.5,82.333,3.5,77 c0-4.055,1.1-8.069,3.138-11.568C5.562,62.412,5,59.2,5,56c0-10.703,5.845-20.144,15.148-24.894C21.602,17.021,33.538,6,48,6 c12.747,0,23.75,8.654,27.004,20.671C87.606,29.457,97,40.795,97,54c0,4.211-0.946,8.338-2.758,12.102 C96.035,69.438,97,73.21,97,77c0,5.333-1.868,10.532-5.26,14.639C90.504,93.139,88.677,94,86.729,94H13.771z"/><path fill="#bd7bc8" d="M90.5,54c0-11.731-9.399-21.25-21.075-21.479C68.663,21.34,59.375,12.5,48,12.5 c-11.874,0-21.5,9.626-21.5,21.5c0,0.499,0.041,0.988,0.075,1.478C17.84,38.211,11.5,46.364,11.5,56c0,3.684,0.93,7.15,2.562,10.18 C11.539,69.078,10,72.856,10,77c0,3.989,1.416,7.647,3.772,10.5H29.5h9.728h22.044H69.5h17.228C89.084,84.647,90.5,80.989,90.5,77 c0-4.065-1.476-7.78-3.914-10.656C89.044,62.849,90.5,58.598,90.5,54z"/><path fill="none" stroke="#40396e" stroke-linecap="round" stroke-linejoin="round" stroke-miterlimit="10" stroke-width="3" d="M90.5,54c0-11.731-9.399-21.25-21.075-21.479C68.663,21.34,59.375,12.5,48,12.5c-11.874,0-21.5,9.626-21.5,21.5 c0,0.499,0.041,0.988,0.075,1.478C17.84,38.211,11.5,46.364,11.5,56c0,3.684,0.93,7.15,2.562,10.18C11.539,69.078,10,72.856,10,77 c0,3.989,1.416,7.647,3.772,10.5H29.5h9.728h22.044H69.5h17.228C89.084,84.647,90.5,80.989,90.5,77 c0-4.065-1.476-7.78-3.914-10.656C89.044,62.849,90.5,58.598,90.5,54z"/><polygon fill="#ffc571" points="56,41 48.494,36 41,41 48.343,18"/><polygon fill="#ffc571" points="48.393,36 37,27 60,27"/><line x1="29.5" x2="38.5" y1="52.5" y2="51.5" fill="none" stroke="#40396e" stroke-linecap="round" stroke-linejoin="round" stroke-miterlimit="10" stroke-width="3"/><line x1="70.5" x2="61.5" y1="51.5" y2="51.5" fill="none" stroke="#40396e" stroke-linecap="round" stroke-linejoin="round" stroke-miterlimit="10" stroke-width="3"/><circle cx="34.5" cy="54.5" r="2.5" fill="#40396e"/><circle cx="65.5" cy="54.5" r="2.5" fill="#40396e"/><path fill="#40396e" d="M53.952,66.52c0.52,3.21-3.29,6.476-8.511,7.293s-9.874-1.122-10.394-4.333s3.29-6.476,8.511-7.293 S53.432,63.309,53.952,66.52z"/><path fill="#ff7575" d="M46.5,68c-4.074,0-7.382,2.383-7.49,5.352c1.804,0.629,4.057,0.833,6.432,0.461 c2.62-0.41,4.878-1.439,6.416-2.766C52.131,70.811,50.315,68,46.5,68z"/><path fill="none" stroke="#40396e" stroke-linecap="round" stroke-linejoin="round" stroke-miterlimit="10" stroke-width="3" d="M54.917,71.313C53.45,70.219,52.5,68.471,52.5,66.5c0-3.314,2.686-6,6-6"/></svg>