<svg xmlns="http://www.w3.org/2000/svg"  viewBox="0 0 100 100" width="100px" height="100px"><path d="M17.579,99c-3.584,0-6.5-2.916-6.5-6.5c0-7.444,6.056-13.5,13.5-13.5 L34,78c0,0-10.771-7.659-11-8c-0.062-0.09-0.943-0.078-0.994-0.161c-0.327-0.561-0.546-1.087-0.695-1.638 c-0.032-0.119-0.069-0.28-0.096-0.418c-0.084-0.413-0.128-0.831-0.131-1.246c-0.004-0.147-0.001-0.294,0.008-0.44l1.118-17.99 c0.093-1.495,0.706-2.923,1.727-4.022l7.14-7.663c0.058-0.062,0.117-0.123,0.179-0.182l3.356-3.253 C34.205,31.176,34,29.341,34,27.5C34,13.439,45.439,2,59.5,2S85,13.439,85,27.5S73.561,53,59.5,53 c-2.854,0-5.646-0.473-8.293-1.392c-0.292,0.538-0.661,1.036-1.098,1.475l-4.285,4.304l11.703,8.95 c0.124,0.094,0.251,0.202,0.372,0.315c0.187,0.165,0.393,0.372,0.582,0.589c0.082,0.094,0.171,0.203,0.259,0.318 c0.11,0.14,0.224,0.296,0.312,0.433c0.114,0.177,0.22,0.366,0.314,0.562c0.064,0.125,0.124,0.25,0.18,0.379 c0.127,0.297,0.227,0.587,0.309,0.898c0.042,0.15,0.083,0.318,0.109,0.457c0.078,0.437,0.114,0.839,0.114,1.23 c0,0.016-0.002,0.196-0.005,0.271c-0.007,0.147-0.021,0.301-0.042,0.455c-0.031,0.28-0.088,0.592-0.166,0.893 c-0.036,0.139-0.106,0.362-0.154,0.498c-0.083,0.247-0.202,0.529-0.348,0.816c-0.095,0.184-0.182,0.338-0.278,0.493 c-0.151,0.246-0.339,0.502-0.558,0.759c-0.095,0.114-0.214,0.248-0.309,0.344c-0.366,0.371-0.749,0.681-1.153,0.938L53.901,79 h6.678c7.444,0,13.5,6.056,13.5,13.5c0,3.584-2.916,6.5-6.5,6.5H17.579z" opacity=".35"/><path fill="#f2f2f2" d="M15.579,97c-3.584,0-6.5-2.916-6.5-6.5c0-7.444,6.056-13.5,13.5-13.5h8.22l-9.28-7.424 c-0.118-0.094-0.239-0.201-0.354-0.311c-0.058-0.054-0.116-0.112-0.175-0.172c-0.31-0.311-0.574-0.633-0.804-0.975 c-0.062-0.09-0.13-0.195-0.181-0.278c-0.327-0.561-0.546-1.087-0.695-1.638c-0.032-0.119-0.069-0.28-0.096-0.418 c-0.084-0.413-0.128-0.831-0.131-1.246c-0.004-0.147-0.001-0.294,0.008-0.44l1.118-17.99c0.093-1.495,0.706-2.923,1.727-4.022 l7.14-7.663c0.058-0.062,0.117-0.123,0.179-0.182l3.356-3.253C32.205,29.176,32,27.341,32,25.5C32,11.439,43.439,0,57.5,0 S83,11.439,83,25.5S71.561,51,57.5,51c-2.854,0-5.646-0.473-8.293-1.392c-0.292,0.538-0.661,1.036-1.098,1.475l-4.285,4.304 l11.703,8.95c0.124,0.094,0.251,0.202,0.372,0.315c0.187,0.165,0.393,0.372,0.582,0.589c0.082,0.094,0.171,0.203,0.259,0.318 c0.11,0.14,0.224,0.296,0.312,0.433c0.114,0.177,0.22,0.366,0.314,0.562c0.064,0.125,0.124,0.25,0.18,0.379 c0.127,0.297,0.227,0.587,0.309,0.898c0.042,0.15,0.083,0.318,0.109,0.457c0.078,0.437,0.114,0.839,0.114,1.23 c0,0.016-0.002,0.196-0.005,0.271c-0.007,0.147-0.021,0.301-0.042,0.455c-0.031,0.28-0.088,0.592-0.166,0.893 c-0.036,0.139-0.106,0.362-0.154,0.498c-0.083,0.247-0.202,0.529-0.348,0.816c-0.095,0.184-0.182,0.338-0.278,0.493 c-0.151,0.246-0.339,0.502-0.558,0.759c-0.095,0.114-0.214,0.248-0.309,0.344c-0.366,0.371-0.749,0.681-1.153,0.938L51.901,77 h6.678c7.444,0,13.5,6.056,13.5,13.5c0,3.584-2.916,6.5-6.5,6.5H15.579z"/><path fill="#9ba7c5" d="M58.579,83.5h-36c-3.866,0-7,3.134-7,7h50C65.579,86.634,62.445,83.5,58.579,83.5z"/><polyline fill="none" stroke="#40396e" stroke-linecap="round" stroke-linejoin="round" stroke-miterlimit="10" stroke-width="3" points="49.74,31.933 44.5,35.5 43.5,46.5 25.579,64.5 26.697,46.51 33.832,38.852 46.579,26.5"/><line x1="40.579" x2="25.579" y1="76.5" y2="64.5" fill="none" stroke="#40396e" stroke-linecap="round" stroke-linejoin="round" stroke-miterlimit="10" stroke-width="3"/><polyline fill="none" stroke="#40396e" stroke-linecap="round" stroke-linejoin="round" stroke-miterlimit="10" stroke-width="3" points="34.579,56.5 51.579,69.5 40.579,76.5"/><path fill="none" stroke="#40396e" stroke-linecap="round" stroke-linejoin="round" stroke-miterlimit="10" stroke-width="3" d="M40.579,83.5h-18c-3.866,0-7,3.134-7,7h50c0-3.866-3.134-7-7-7H40.579v-7"/><path fill="#9ba7c5" d="M58.579,83.5h-36c-3.866,0-7,3.134-7,7h50C65.579,86.634,62.445,83.5,58.579,83.5z"/><line x1="40.579" x2="25.579" y1="76.5" y2="64.5" fill="none" stroke="#40396e" stroke-linecap="round" stroke-linejoin="round" stroke-miterlimit="10" stroke-width="3"/><line x1="51.579" x2="40.579" y1="69.5" y2="76.5" fill="none" stroke="#40396e" stroke-linecap="round" stroke-linejoin="round" stroke-miterlimit="10" stroke-width="3"/><path fill="none" stroke="#40396e" stroke-linecap="round" stroke-linejoin="round" stroke-miterlimit="10" stroke-width="3" d="M40.579,83.5h-18c-3.866,0-7,3.134-7,7h50c0-3.866-3.134-7-7-7H40.579v-7"/><circle cx="57.5" cy="25.5" r="19" fill="#f9b84f"/><circle cx="57.5" cy="25.5" r="19" fill="none" stroke="#40396e" stroke-linecap="round" stroke-linejoin="round" stroke-miterlimit="10" stroke-width="3"/><circle cx="57.5" cy="25.5" r="9.5" fill="#fff"/></svg>