<svg xmlns="http://www.w3.org/2000/svg"  viewBox="0 0 100 100" width="100px" height="100px"><g id="Слой_2"><path d="M87.974,38.354c-0.296-9.574-4.312-18.27-11.322-24.502C69.869,7.821,60.759,4.5,51,4.5 c-9.759,0-18.869,3.321-25.652,9.352c-7.011,6.233-11.027,14.93-11.322,24.504C14.009,38.57,14,38.786,14,39v32.968 c0,4.43,2.129,8.643,5.695,11.271L36.254,95.44C37.639,96.461,39.28,97,41,97c1.246,0,2.494-0.297,3.607-0.859 c0.438-0.221,0.851-0.48,1.234-0.772C47.515,95.789,49.239,96,51,96c1.761,0,3.485-0.211,5.159-0.631 c0.383,0.291,0.795,0.55,1.233,0.771C58.506,96.703,59.753,97,61,97c1.72,0,3.361-0.539,4.746-1.559l16.559-12.201 C85.871,80.611,88,76.398,88,71.968V39C88,38.785,87.991,38.569,87.974,38.354z" opacity=".35"/><path fill="#f2f2f2" d="M85.974,36.354c-0.296-9.574-4.312-18.27-11.322-24.502C67.869,5.821,58.759,2.5,49,2.5 c-9.759,0-18.869,3.321-25.652,9.352c-7.011,6.233-11.027,14.93-11.322,24.504C12.009,36.57,12,36.786,12,37v32.968 c0,4.43,2.129,8.643,5.695,11.271L34.254,93.44C35.639,94.461,37.28,95,39,95c1.246,0,2.494-0.297,3.607-0.859 c0.438-0.221,0.851-0.48,1.234-0.772C45.515,93.789,47.239,94,49,94c1.761,0,3.485-0.211,5.159-0.631 c0.383,0.291,0.795,0.55,1.233,0.771C56.506,94.703,57.753,95,59,95c1.72,0,3.361-0.539,4.746-1.559l16.559-12.201 C83.871,78.611,86,74.398,86,69.968V37C86,36.785,85.991,36.569,85.974,36.354z"/><rect width="47" height="27" x="25" y="39" fill="#ffc7a3"/><path fill="#ffc7a3" d="M33,80l8.672,5.781C43.842,87.228,46.392,88,49,88h0c2.608,0,5.158-0.772,7.328-2.219L65,80V37H33V80z"/><path fill="#de5147" d="M77.987,37C77.719,21.215,64.849,10.5,49,10.5S20.281,21.215,20.013,37H20v32.968 c0,1.906,0.906,3.699,2.441,4.83L39,87V64.815c-2.56-0.316-5.138-1.518-7.218-3.597c-4.491-4.491-4.949-11.314-1.023-15.24 C34.686,42.051,41.509,42.509,46,47c1.391,1.391,2.393,3.006,3,4.69c0.607-1.683,1.609-3.299,3-4.69 c4.491-4.491,11.314-4.949,15.24-1.023c3.926,3.926,3.468,10.749-1.023,15.24c-2.079,2.079-4.658,3.282-7.218,3.597V87 l16.559-12.201C77.094,73.668,78,71.875,78,69.968V37H77.987z"/><path fill="#bd7bc8" d="M72.375,73.418L62,81.063V67.216c2.347-0.745,4.537-2.075,6.339-3.877 c5.654-5.654,6.112-14.394,1.023-19.483c-2.288-2.288-5.415-3.548-8.805-3.548c-3.881,0-7.773,1.666-10.678,4.571 c-0.306,0.306-0.599,0.624-0.879,0.953c-0.28-0.329-0.573-0.647-0.879-0.953c-2.905-2.905-6.797-4.571-10.678-4.571 c-3.39,0-6.517,1.26-8.805,3.548c-5.089,5.089-4.631,13.829,1.023,19.483c1.802,1.802,3.992,3.132,6.339,3.877v13.847 l-11.78-8.68c-0.161-0.118-0.3-0.259-0.432-0.405L20,69.159v0.809c0,1.906,0.906,3.699,2.441,4.83L39,87V64.815 c-2.56-0.316-5.138-1.518-7.218-3.597c-4.491-4.491-4.949-11.314-1.023-15.24c1.79-1.791,4.184-2.669,6.684-2.669 c2.981,0,6.114,1.249,8.557,3.692c1.391,1.391,2.393,3.006,3,4.69c0.607-1.683,1.609-3.299,3-4.69 c2.443-2.443,5.576-3.692,8.557-3.692c2.5,0,4.893,0.879,6.684,2.669c3.926,3.926,3.468,10.749-1.023,15.24 c-2.079,2.079-4.658,3.282-7.218,3.597V87l16.559-12.202C77.094,73.668,78,71.875,78,69.968v-0.661L72.375,73.418z"/><path fill="#bd7bc8" d="M49,45.832C49,45.832,49,34,64,30c0,0-5,6-5,11L49,45.832z"/><path fill="#bd7bc8" d="M49,45.832C49,45.832,49,34,34,30c0,0,5,6,5,11L49,45.832z"/><path fill="#bd7bc8" d="M43,42c0,0-16-8-20,3c0,0,5-2,5,4l3-6L43,42z"/><path fill="#bd7bc8" d="M55,42c0,0,16-8,20,3c0,0-5-2-5,4l-3-6L55,42z"/><path fill="#bd7bc8" d="M35,65c0,0-2,3-6,4c0,0,6,3,9,0L35,65z"/><path fill="#bd7bc8" d="M63,65c0,0,2,3,6,4c0,0-6,3-9,0L63,65z"/><path fill="#40396e" d="M49,10.5c15.849,0,28.719,10.715,28.987,26.5H78v32.968c0,1.906-0.906,3.7-2.441,4.831L59,87v-3.131 c0-0.588-0.483-1.002-1.003-1.002c-0.186,0-0.377,0.053-0.552,0.17l-1.117,0.745C54.158,85.228,51.608,86,49,86 s-5.158-0.772-7.328-2.219l-1.117-0.745c-0.175-0.117-0.366-0.17-0.552-0.17c-0.52,0-1.003,0.413-1.003,1.002V87L22.441,74.799 C20.906,73.668,20,71.875,20,69.968V37h0.013C20.281,21.215,33.151,10.5,49,10.5 M49,7.5c-8.533,0-16.463,2.873-22.33,8.089 c-6.015,5.348-9.436,12.821-9.651,21.071C17.007,36.771,17,36.885,17,37v32.968c0,2.848,1.369,5.556,3.661,7.246L37.22,89.415 C37.746,89.802,38.371,90,39,90c0.462,0,0.925-0.106,1.353-0.322c0.89-0.45,1.49-1.307,1.62-2.278C44.157,88.451,46.549,89,49,89 s4.843-0.549,7.027-1.601c0.13,0.971,0.731,1.828,1.62,2.278C58.074,89.894,58.538,90,59,90c0.629,0,1.254-0.198,1.78-0.585 l16.559-12.201C79.631,75.525,81,72.816,81,69.968V37c0-0.116-0.007-0.23-0.019-0.343c-0.216-8.248-3.636-15.721-9.651-21.069 C65.463,10.373,57.533,7.5,49,7.5L49,7.5z"/><path fill="#f4665c" d="M73.817,28.781c-6.243-11.445-14.601-13.648-14.953-13.736c-0.8-0.197-1.609,0.286-1.813,1.085 c-0.204,0.8,0.28,1.615,1.079,1.823c0.036,0.01,1.838,0.51,4.316,2.211l5.254,4.879c1.186,1.436,2.371,3.137,3.483,5.176 C71.456,30.718,71.97,31,72.501,31c0.243,0,0.489-0.059,0.717-0.184C73.945,30.42,74.213,29.509,73.817,28.781z"/><path fill="#eee" d="M43,56c0,0-4.018,0-7,0s-4-3-4-3s1-3,5-3C39.982,50,43,56,43,56z"/><path fill="#40396e" d="M44,54c1.333,0,2.005-1.625,1.047-2.552C44.476,50.896,43.79,50.369,43,50 c-3.379-1.69-5.449-2.759-7.138-2.759C32.482,47.241,31,50,31,50s0.013-0.004,0.037-0.011c2.3-0.658,4.769-0.316,6.811,0.928 C40.093,52.285,43.01,54,44,54L44,54z"/><circle cx="38" cy="53" r="3" fill="#40396e"/><path fill="#eee" d="M60.987,50c4,0,5,3,5,3s-1.018,3-4,3c-2.982,0-7,0-7,0S58.005,50,60.987,50z"/><path fill="#40396e" d="M53.987,54c0.99,0,3.907-1.715,6.152-3.082c2.043-1.244,4.512-1.587,6.811-0.928 C66.974,49.996,66.987,50,66.987,50s-1.482-2.759-4.862-2.759c-1.69,0-3.759,1.069-7.138,2.759 c-0.79,0.369-1.476,0.896-2.047,1.448C51.982,52.375,52.654,54,53.987,54L53.987,54z"/><circle cx="59.987" cy="53" r="3" fill="#40396e"/></g></svg>