<svg xmlns="http://www.w3.org/2000/svg"  viewBox="0 0 100 100" width="100px" height="100px"><path d="M17.5,97c-2.085,0-4.058-1.011-5.275-2.703 c-1.186-1.641-1.534-3.766-0.938-5.706C11.356,88.316,12,89.616,12,83.5c0-3.279-0.874-7.974-1.799-12.944 C9.117,64.729,8,58.729,8,53.5c0-7.219,1.776-30.831,24.124-38.465C34.81,10.998,41.366,4,54.5,4C74.079,4,95,19.631,95,63.5 c0,18.533-3.038,27.901-3.167,28.462C91.15,94.927,88.546,97,85.5,97H17.5z" opacity=".35"/><path fill="#f2f2f2" d="M15.5,95c-2.085,0-4.058-1.011-5.275-2.703c-1.186-1.641-1.534-3.766-0.938-5.706 C9.356,86.316,10,87.616,10,81.5c0-3.279-0.874-7.974-1.799-12.944C7.117,62.729,6,56.729,6,51.5 c0-7.219,1.776-30.831,24.124-38.465C32.81,8.998,39.366,2,52.5,2C72.079,2,93,17.631,93,61.5c0,18.533-3.038,27.901-3.167,28.462 C89.15,92.927,86.546,95,83.5,95H15.5z"/><path fill="#707cc0" d="M34.5,18.5c0,0,4-10,18-10s34,11,34,53c0,18-3,27-3,27h-68c0,0,1,1,1-7s-4-21-4-30 S15.5,23.5,34.5,18.5z"/><path fill="none" stroke="#40396e" stroke-linecap="round" stroke-linejoin="round" stroke-miterlimit="10" stroke-width="3" d="M34.5,18.5c0,0,4-10,18-10s34,11,34,53c0,18-3,27-3,27h-68c0,0,1-4,1-12s-4-16-4-25S15.5,23.5,34.5,18.5z"/><path fill="#d9eeff" d="M45,69c0,5.483-10.016,5.129-11.743,18h36.485C68.016,74.129,58,74.483,58,69c0-8,8-10,8-18 c0,0-17-18-23-25c1,8-8,18-8,26C35,59,45,61,45,69z"/><circle cx="43" cy="46" r="2" fill="#40396e"/><circle cx="56" cy="46" r="2" fill="#40396e"/><path fill="#40396e" d="M46,50v5c0,0,1-2,4-2s4,2,4,2v-5c0,0-2,1-4,1S46,50,46,50"/><circle cx="55" cy="70" r="1" fill="#40396e"/><circle cx="55" cy="74" r="1" fill="#40396e"/><path fill="#dd4f2c" d="M69.741,87c-0.812-6.05-3.451-9.184-6.027-11.367L52,84l-12.252-8.752 c-2.714,2.202-5.625,5.34-6.487,11.752H69.741z"/></svg>