<svg xmlns="http://www.w3.org/2000/svg"  viewBox="0 0 100 100" width="100px" height="100px"><path d="M34.5,92c-3.994,0-7.569-2.023-9.64-5.215C10.493,85.058,3,73.165,3,61.5 c0-7.53,2.35-12.464,4.086-15.081C8.313,19.944,30.654,8.012,46.5,8.012c13.535,0,24.951,4.423,32.709,12.299 c0.231-0.349,0.487-0.687,0.771-1.012C81.83,17.171,84.5,16,87.5,16C89.253,16,98,16.699,98,30.5 c0,2.644-1.507,13.354-8.066,19.093c-0.09,1.422-0.271,2.837-0.541,4.236C89.793,55.009,90,56.25,90,57.5 c0,2.342-0.703,4.557-1.95,6.405c1.116,1.117,1.89,1.848,1.904,1.86c1.792,1.683,2.483,4.294,1.758,6.647 c-4.19,13.617-16.011,18.099-21.677,18.565c-0.224,0.016-0.371,0.021-0.518,0.021h0c-1.959,0-3.793-0.862-5.033-2.364l-2.705-3.29 C57.324,87.071,52.382,88,47.5,88c-1.401,0-2.79-0.054-4.154-0.162C41.213,90.424,38.006,92,34.5,92z" opacity=".35"/><path fill="#f2f2f2" d="M32.5,90c-3.994,0-7.569-2.023-9.64-5.215C8.493,83.058,1,71.165,1,59.5 c0-7.53,2.35-12.464,4.086-15.081C6.313,17.944,28.654,6.012,44.5,6.012c13.535,0,24.951,4.423,32.709,12.299 c0.231-0.349,0.487-0.687,0.771-1.012C79.83,15.171,82.5,14,85.5,14C87.253,14,96,14.699,96,28.5 c0,2.644-1.507,13.354-8.066,19.093c-0.09,1.422-0.271,2.837-0.541,4.236C87.793,53.009,88,54.25,88,55.5 c0,2.342-0.703,4.557-1.95,6.405c1.116,1.117,1.89,1.848,1.904,1.86c1.792,1.683,2.483,4.294,1.758,6.647 c-4.19,13.617-16.011,18.099-21.677,18.565c-0.224,0.016-0.371,0.021-0.518,0.021h0c-1.959,0-3.793-0.862-5.033-2.364l-2.705-3.29 C55.324,85.071,50.382,86,45.5,86c-1.401,0-2.79-0.054-4.154-0.162C39.213,88.424,36.006,90,32.5,90z"/><rect width="4" height="4" x="35" y="75" fill="#ffc7a3"/><rect width="7" height="5" x="72" y="57" fill="#ffb789"/><path fill="#ffb789" d="M59.652,72.427l7.416,9.742c0,0,6.809-0.876,10.719-4.449c3.91-3.573,5.393-9.539,5.393-9.539 l-8.225-6.876l-2.36-2.427L59.652,72.427z"/><circle cx="26" cy="59" r="18" fill="#40396e"/><path fill="none" stroke="#40396e" stroke-linecap="round" stroke-linejoin="round" stroke-miterlimit="10" stroke-width="3" d="M89.5,28.5c0-8-3.333-8-4-8c-6,0-3,10-3,13c0,2.067-0.837,3.29-1.926,4.023C76.07,18.981,59.517,12.511,44.5,12.511 c-14.385,0-32.966,11.41-32.966,34.197c0,0-4.034,3.792-4.034,12.792c0,10.198,7,19,19,19c0.347,0,0.67-0.02,1.003-0.031 c0,0.011-0.003,0.021-0.003,0.031c0,2.761,2.239,5,5,5c2.665,0,4.823-2.091,4.972-4.719c2.397,0.451,5.067,0.719,8.028,0.719 c6.524,0,12.066-1.856,16.073-4.208L67.5,82.5c0,0,12-1,16-14c0,0-3.833-3.601-7.046-7.351c0.163-0.227,0.326-0.449,0.489-0.693 c2.55-0.228,4.557-2.346,4.557-4.955c0-1.091-0.359-2.093-0.953-2.915c0.58-2.118,0.953-4.474,0.953-7.085 c0-0.476-0.025-0.934-0.042-1.397C87.5,41.5,89.5,31.19,89.5,28.5z"/><circle cx="45.139" cy="45.989" r="32.122" fill="#ffc7a3"/><ellipse cx="28.5" cy="77" fill="#40396e" rx="3.5" ry="2"/><path fill="#40396e" d="M40.809,12.36c0,0-2.022,17.393,13.551,18.708c0,0-3.135,22.551,21.843,22.551 c6.067,0,4.652-2.528,4.652-2.528l1.112-7.18l3.865-2.528L88,34v-7l1-5l-1.5-1.5l-3.41,1.567l-1.921,4.753L82.5,33.5l-1.747,2.219 l-2.326-3.438l-5.157-9.202l-5.36-4.247l-11.124-4.854l-9.607-1.921L40.809,12.36z"/><circle cx="32.5" cy="78.5" r="3.5" fill="#ffe385"/><circle cx="76.5" cy="55.5" r="3.5" fill="#ffe385"/><ellipse cx="35" cy="31" fill="#40396e" rx="3" ry="4" transform="rotate(-41.772 35.002 31)"/><ellipse cx="22" cy="40" fill="#40396e" rx="3" ry="4" transform="rotate(-41.772 22.002 40)"/><path fill="none" stroke="#40396e" stroke-linecap="round" stroke-linejoin="round" stroke-miterlimit="10" stroke-width="3" d="M45,65c0,0,11.5-5.5,3.5-23.5"/><path fill="none" stroke="#40396e" stroke-linecap="round" stroke-linejoin="round" stroke-miterlimit="10" stroke-width="3" d="M44.5,43.5c0,0,2-4,7-4"/><path fill="#ffe8d9" d="M28.161,49.407c3.934-2.132,8.171-1.805,9.463,0.732c1.292,2.536-0.85,6.321-4.784,8.453 c-3.934,2.132-8.171,1.805-9.463-0.732C22.084,55.324,24.226,51.54,28.161,49.407z"/></svg>