<svg xmlns="http://www.w3.org/2000/svg"  viewBox="0 0 100 100" width="100px" height="100px"><path d="M52.012,98.994c-3.85,0-7.665-0.619-11.345-1.84c-0.125-0.035-0.249-0.073-0.372-0.115 c-0.051-0.018-0.282-0.104-0.282-0.104c-0.686-0.244-1.326-0.49-1.957-0.754l-0.503-0.221c-0.535-0.233-1.092-0.493-1.642-0.767 l-0.413-0.207c-8.445-4.347-14.851-11.73-17.619-20.283c-0.772-2.4-1.219-6.86-1.39-9.27C5.047,58.435,4.142,45.752,5.431,38.443 c0.355-1.992,1.578-3.668,3.356-4.61c0.938-0.496,1.989-0.757,3.045-0.757c0.919,0,1.81,0.19,2.648,0.564 c0.874,0.389,1.391,0.448,1.621,0.448c0.089,0,0.161-0.009,0.199-0.024c0.171-0.07,0.674-0.582,1.119-1.71 c5.068-12.78,16.03-16.8,22.607-18.061C43.8,7.712,50.74,4,59.5,4c2.271,0,4.338,1.154,5.53,3.086 c1.177,1.902,1.283,4.329,0.278,6.331c-0.158,0.316-0.332,0.71-0.504,1.147c11.139,1.949,19.307,8.297,22.818,17.952 c0.27,0.746,0.631,1.116,0.88,1.218c0.108,0.044,0.234,0.065,0.387,0.065c0.403,0,0.939-0.152,1.508-0.428 c0.877-0.427,1.859-0.653,2.839-0.653c1.043,0,2.083,0.255,3.009,0.738c1.823,0.954,3.098,2.733,3.414,4.761 c1.243,8.134,0.053,24.002-12.178,30.194c-0.217,2.098-0.661,4.194-1.329,6.261c-2.518,7.782-8.19,14.769-15.563,19.171 c-0.633,0.378-1.312,0.755-2.017,1.117l-0.454,0.228c-0.554,0.275-1.102,0.531-1.657,0.773l-0.407,0.18 c-0.705,0.296-1.338,0.54-1.976,0.766c-0.148,0.059-0.257,0.098-0.366,0.135c-0.113,0.039-0.233,0.076-0.358,0.111 C59.674,98.375,55.858,98.994,52.012,98.994z" opacity=".35"/><path fill="#f2f2f2" d="M50.012,96.994c-3.85,0-7.665-0.619-11.345-1.84c-0.125-0.035-0.249-0.073-0.372-0.115 c-0.051-0.018-0.282-0.104-0.282-0.104c-0.686-0.244-1.326-0.49-1.957-0.754l-0.503-0.221c-0.535-0.233-1.092-0.493-1.642-0.767 l-0.413-0.207c-8.445-4.347-14.851-11.73-17.619-20.283c-0.772-2.4-1.248-4.824-1.419-7.233 C3.019,58.471,2.142,43.752,3.431,36.443c0.355-1.992,1.578-3.668,3.356-4.61c0.938-0.496,1.989-0.757,3.045-0.757 c0.919,0,1.81,0.19,2.648,0.564c0.874,0.389,1.391,0.448,1.621,0.448c0.089,0,0.161-0.009,0.199-0.024 c0.171-0.07,0.674-0.582,1.119-1.71c5.068-12.78,16.03-16.8,22.607-18.061C41.8,5.712,48.74,2,57.5,2 c2.271,0,4.338,1.154,5.53,3.086c1.177,1.902,1.283,4.329,0.278,6.331c-0.158,0.316-0.332,0.71-0.504,1.147 c11.139,1.949,19.307,8.297,22.818,17.952c0.27,0.746,0.631,1.116,0.88,1.218c0.108,0.044,0.234,0.065,0.387,0.065 c0.403,0,0.939-0.152,1.508-0.428c0.877-0.427,1.859-0.653,2.839-0.653c1.043,0,2.083,0.255,3.009,0.738 c1.823,0.954,3.098,2.733,3.414,4.761c1.243,8.134,0.053,24.002-12.178,30.194c-0.217,2.098-0.661,4.194-1.329,6.261 c-2.518,7.782-8.19,14.769-15.563,19.171c-0.633,0.378-1.312,0.755-2.017,1.117l-0.454,0.228c-0.554,0.275-1.102,0.531-1.657,0.773 l-0.407,0.18c-0.705,0.296-1.338,0.54-1.976,0.766c-0.148,0.059-0.257,0.098-0.366,0.135c-0.113,0.039-0.233,0.076-0.358,0.111 C57.674,96.375,53.858,96.994,50.012,96.994z"/><path fill="#b0bec5" d="M79.135,63.816c0-14.074-13.038-23.725-29.124-23.725s-29.124,9.651-29.124,23.725 s13.038,27.241,29.124,27.241S79.135,77.89,79.135,63.816z"/><path fill="#78909c" d="M78.793,67.684C78.416,70.003,76.045,74.856,75,77L50.011,64L78.793,67.684z M50.011,64L40.4,89.441 c-2.638-0.914-5.122-2.197-7.35-3.761L50.011,64z M66.972,85.681c-2.228,1.564-4.711,2.847-7.35,3.761L50.011,64L66.972,85.681z M50.011,64L25,77c-1.045-2.144-3.393-6.995-3.77-9.316L50.011,64z"/><path fill="#e65100" d="M90.056,37.776c-5.279,2.581-8.794,0-10.543-4.871C73.65,16.669,55.082,18.292,55.082,18.292L55,15 l1-6c0,0-6.79,0.339-9,2c-3.581,2.691-4.405,7.23-5.553,7.315c-5.102,0.381-15.292,2.683-19.981,14.59 c-1.908,4.871-5.741,7.454-11.5,4.871c0,0-3.067,23.662,20.489,23.769h41C96.191,60.663,90.056,37.776,90.056,37.776z"/><path fill="#fff" d="M28,38.52c0-6.312,4.271-13.537,11.05-13.537c4.697,0,8.173,4.007,10.961,4.007 c2.788,0,6.264-3.99,10.961-3.99c6.779,0,11.029,7.208,11.029,13.52c0,8.351-1.634,11.367-3.576,15.448 c-2.791,4.436-0.415,6.319-0.415,9.48c0,8.507-10.986,20.541-18.011,20.541S31.978,71.904,31.978,63.449 c0-3.131,2.528-5.011-0.381-9.48C29.655,49.887,28,46.873,28,38.52z"/><path fill="#e65100" d="M55.265,63.281c0,0,0.342,0.976,0.342,1.56c0,1.365-0.914,2.341-2.048,2.341 c-0.342,0-0.655-0.109-0.928-0.266c-0.437,1.078-1.38,1.826-2.485,1.826s-2.048-0.748-2.485-1.826 c-0.273,0.157-0.586,0.266-0.928,0.266c-1.134,0-2.048-0.976-2.048-2.341c0-0.584,0.342-1.56,0.342-1.56s1.972,1.865,5.118,1.865 C53,65.146,55.265,63.281,55.265,63.281z"/><path fill="#e65100" d="M43.156,71.858c2.07,2.572,1.387,8.693,6.844,8.693c5.464,0,4.782-6.121,6.844-8.693 C50.004,74.202,50.004,74.202,43.156,71.858z"/><path fill="#e65100" d="M61.471,63.13c-0.55-0.977-1.174-2.086-1.733-3.773c-0.078-0.238-0.146-1.148-0.209-1.525 l-1.795,0.302c0.08,0.484,0.175,1.485,0.277,1.793c0.613,1.858,1.312,3.098,1.875,4.096c0.624,1.109,1.038,1.842,1.038,2.852 c0,1.311-0.925,2.093-1.82,2.093c-1.076,0-2.241,0.175-3.24,1.156c-0.744,0.732-1.589,0.479-2.587,0.787 c-1.07,0.333-2.221,1.472-3.276,1.472s-2.206-1.024-3.275-1.354c-0.997-0.308-1.842-0.17-2.587-0.901 c-0.997-0.981-2.164-1.156-3.24-1.156c-0.883,0-1.82-0.719-1.82-2.048c0-0.948,0.402-1.645,1.012-2.705 c0.601-1.045,1.349-2.344,1.911-4.327c0.086-0.304,0.167-1.445,0.24-1.925l-1.798-0.273c-0.06,0.39-0.122,1.456-0.193,1.701 c-0.501,1.767-1.158,2.909-1.738,3.915c-0.673,1.167-1.254,2.179-1.254,3.611c0,2.421,1.851,3.868,3.64,3.868 c1.593,0,2.139,0.985,2.253,1.068c3.207,2.344,5.031,2.799,6.848,2.799c1.824,0,3.64-0.455,6.84-2.799 c0.111-0.08,0.668-1.068,2.261-1.068c1.789,0,3.64-1.465,3.64-3.913C62.742,65.387,62.152,64.34,61.471,63.13z"/><path fill="#e65100" d="M41.213,52.64l0.455-8.265c0.138-2.121,0.222-4.239,0.335-6.371 c0.189,2.115,0.411,4.243,0.575,6.371l0.455,9.681L41.213,52.64z"/><path fill="#e65100" d="M57.596,52.843l0.455-8.467c0.138-2.121,0.222-4.239,0.335-6.371 c0.189,2.115,0.411,4.243,0.575,6.371l0.455,6.849L57.596,52.843z"/><path fill="none" stroke="#40396e" stroke-linecap="round" stroke-linejoin="round" stroke-miterlimit="10" stroke-width="3" d="M91.236,37.219c-5.279,2.563-9.973,0.357-11.723-4.48C74.651,19.364,60,18.443,55.5,18.432c-1-3.973,2-9.932,2-9.932 c-11,0-14.092,6.92-15.052,9.75c-5.099,0.377-16.29,2.657-20.981,14.488c-1.908,4.838-5.876,7.403-11.635,4.838 c0,0-3.331,18.596,11.158,23.843c-0.061,0.663-0.102,1.334-0.102,2.019c0,2.461,0.412,4.892,1.166,7.231 c0.003,0.01,0.006,0.02,0.01,0.03c2.227,6.88,7.477,12.938,14.366,16.485c0.124,0.064,0.25,0.125,0.375,0.187 c0.451,0.224,0.909,0.438,1.373,0.641c0.13,0.057,0.258,0.117,0.388,0.172c0.536,0.225,1.081,0.433,1.633,0.627 c0.068,0.024,0.133,0.054,0.201,0.077l0.004-0.009c3.009,1.035,6.24,1.614,9.607,1.614s6.598-0.58,9.607-1.614l0.004,0.009 c0.068-0.024,0.134-0.053,0.202-0.077c0.55-0.194,1.093-0.401,1.627-0.625c0.138-0.058,0.272-0.121,0.408-0.181 c0.456-0.199,0.905-0.409,1.348-0.629c0.131-0.065,0.263-0.129,0.393-0.196c0.562-0.29,1.114-0.594,1.654-0.916 c0.001-0.001,0.002-0.001,0.003-0.002c6.071-3.625,10.66-9.251,12.704-15.568c0.002-0.006,0.004-0.013,0.006-0.02 c0.755-2.341,1.168-4.774,1.168-7.237c0-0.53-0.025-1.051-0.062-1.568C94.5,58.159,91.236,37.219,91.236,37.219z"/><path fill="#40396e" d="M46,57c0,0-3,2-6,1c-3.795-1.265-4-4-4-4s2.239-1,5-1S46,57,46,57z"/><path fill="#f9b84f" d="M44,55c0-0.23-0.047-0.448-0.118-0.654c-0.674-0.611-1.468-1.13-2.331-1.291 C40.663,53.26,40,54.05,40,55c0,1.105,0.896,2,2,2S44,56.105,44,55z"/><path fill="#40396e" d="M54,57c0,0,3,2,6,1c3.795-1.265,4-4,4-4s-2.239-1-5-1S54,57,54,57z"/><path fill="#f9b84f" d="M60,55c0-0.95-0.663-1.74-1.551-1.945c-0.863,0.162-1.657,0.68-2.331,1.291 C56.047,54.552,56,54.77,56,55c0,1.105,0.896,2,2,2S60,56.105,60,55z"/><path fill="#40396e" d="M34.001,53.742c0-1.924,1.68-3.742,3.968-3.742c5.267,0,7.049,7.979,10.068,7.979 c0.626,0,1.129-0.493,1.677-1.195c0.1-0.128,0.286-0.199,0.286,0C50,57.777,49.021,59,47.716,59c-3.308,0-5.845-7.934-9.964-7.934 c-2.023,0-2.87,1.086-3.48,2.767C34.205,54.002,33.986,53.911,34.001,53.742L34.001,53.742z"/><path fill="#40396e" d="M65.999,53.742c0-1.924-1.68-3.742-3.968-3.742c-5.267,0-7.049,7.979-10.068,7.979 c-0.626,0-1.129-0.493-1.677-1.195c-0.1-0.128-0.286-0.199-0.286,0C50,57.777,50.979,59,52.284,59c3.308,0,5.845-7.934,9.964-7.934 c2.023,0,2.87,1.086,3.48,2.767C65.795,54.002,66.014,53.911,65.999,53.742L65.999,53.742z"/><circle cx="58" cy="55" r="1" fill="#40396e"/><circle cx="42" cy="55" r="1" fill="#40396e"/><path fill="#40396e" d="M50,77.011c-2.694,0-3.824-2.701-4.506-4.483c1.183,0.319,3.474,1.321,4.509,1.321 s3.477-1.289,4.66-1.608C53.981,74.024,52.666,77.011,50,77.011z"/><path fill="#fedeb3" d="M50,73.849c-0.477-0.001-1.222-0.216-2-0.476v0.997c0,0.338,0.274,0.612,0.612,0.612h0.775 c0.338,0,0.612-0.274,0.612-0.612V73.849z"/><path fill="#fedeb3" d="M50.003,73.849c-0.001,0-0.002,0-0.003,0v0.52c0,0.338,0.274,0.612,0.612,0.612h0.775 c0.338,0,0.612-0.274,0.612-0.612v-1.095C51.213,73.588,50.466,73.849,50.003,73.849z"/></svg>