<svg xmlns="http://www.w3.org/2000/svg"  viewBox="0 0 100 100" width="100px" height="100px"><path d="M15.5,98C11.916,98,9,95.084,9,91.5V52 C9,31.26,23.826,13.722,43.667,9.817C44.45,5.934,47.889,3,52,3s3.472,6.09,8.333,6.817C80.174,13.722,95,31.26,95,52v39.5 c0,3.584-2.916,6.5-6.5,6.5H15.5z" opacity=".35"/><path fill="#f2f2f2" d="M13.5,96C9.916,96,7,93.084,7,89.5V50C7,29.26,21.826,11.722,41.667,7.817 C42.45,3.934,45.889,1,50,1s7.55,2.934,8.333,6.817C78.174,11.722,93,29.26,93,50v39.5c0,3.584-2.916,6.5-6.5,6.5H13.5z"/><path fill="#f4a3be" d="M86.5,89.5h-73V50c0-20.158,16.342-36.5,36.5-36.5h0c20.158,0,36.5,16.342,36.5,36.5V89.5z"/><circle cx="50" cy="9.5" r="3.5" fill="#40396e"/><rect width="9" height="4" x="27" y="80" fill="#fedeb3"/><rect width="9" height="4" x="64" y="80" fill="#fedeb3"/><path fill="#ffe385" d="M52,14L52,14l-4,0v0c0,6.075-5.925,11-12,11H23l-4,6h62l-4-6H64C57.925,25,52,20.075,52,14z"/><path fill="none" stroke="#40396e" stroke-linecap="round" stroke-linejoin="round" stroke-miterlimit="10" stroke-width="3" d="M86.5,89.5h-73V50c0-20.158,16.342-36.5,36.5-36.5h0c20.158,0,36.5,16.342,36.5,36.5V89.5z"/><rect width="30" height="16" x="35" y="54" fill="#88265a"/><path fill="#fedeb3" d="M65,54c0,0-4,7-10,9H45c-7-3-10-9-10-9V43c0-3.314,2.686-6,6-6h18c3.314,0,6,2.686,6,6V54z"/><rect width="12" height="6" x="44" y="61" fill="#fedeb3"/><path fill="#f4665c" d="M43,79H27v-6c0-4.418,3.582-8,8-8h0c4.418,0,8,3.582,8,8V79z"/><path fill="#f4665c" d="M73,79H57v-6c0-4.418,3.582-8,8-8h0c4.418,0,8,3.582,8,8V79z"/><rect width="10" height="6" x="27" y="82" fill="#fedeb3"/><rect width="10" height="6" x="63" y="82" fill="#fedeb3"/><polygon fill="#ff7575" points="65,88 35,88 35,78 44.079,67 55.944,67 65,78"/><circle cx="41" cy="47" r="2" fill="#40396e"/><circle cx="59" cy="47" r="2" fill="#40396e"/><path fill="#40396e" d="M50,58c2.656,0,6.095-1.672,6.849-4.738C57.007,52.623,56.536,52,55.878,52H44.122 c-0.658,0-1.128,0.624-0.971,1.262C43.905,56.328,47.344,58,50,58z"/><path fill="#f4a3be" d="M45.85,56.77c1.248,0.808,2.818,1.3,4.15,1.3s2.89-0.492,4.15-1.3C53.252,55.702,51.729,55,50,55 S46.748,55.702,45.85,56.77z"/><rect width="8" height="4" x="27" y="78" fill="#707cc0"/><rect width="8" height="4" x="65" y="78" fill="#707cc0"/><path fill="#707cc0" d="M60.914,73.028c-2,1-3.914,0.972-4.917,0.972C50.678,74,50,71,50,71s-1,3-7,3 c-1.276,0-2.647-0.176-3.891-1L44,67h12L60.914,73.028z"/></svg>