<svg xmlns="http://www.w3.org/2000/svg"  viewBox="0 0 100 100" width="100px" height="100px"><g id="Слой_2"><path d="M90,8H80c-3.719,0-6.853,2.55-7.745,5.993c-2.32-1.33-4.867-2.4-7.634-3.204C62.378,7.819,58.84,6,55.043,6h-7.215 c-3.795,0-7.325,1.804-9.558,4.75c-3.028,0.903-5.848,2.152-8.416,3.721C27,13,25.889,8,22,8H12c-4.411,0-8,3.589-8,8v22 c0,7.714,7,13,10.864,18.388l0.92,12.875c0.322,4.505,2.623,8.582,6.312,11.186l14.291,10.088 c0.063,0.045,0.121,0.084,0.18,0.123l2.668,1.779C42.73,94.768,46.798,96,51,96s8.27-1.232,11.766-3.562l2.672-1.781 c0.12-0.08,0.242-0.166,0.362-0.256l13.565-10.173c3.317-2.488,5.473-6.279,5.915-10.402l1.414-13.199 C93.57,53.067,98,45.943,98,38V16C98,11.589,94.411,8,90,8z" opacity=".35"/><path fill="#f2f2f2" d="M88,6H78c-3.719,0-6.853,2.55-7.745,5.993c-2.32-1.33-4.867-2.4-7.634-3.204C60.378,5.819,56.84,4,53.043,4 h-7.215c-3.795,0-7.325,1.804-9.558,4.75c-3.028,0.903-5.848,2.152-8.416,3.721C27.139,8.789,23.889,6,20,6H10 c-4.411,0-8,3.589-8,8v22c0,7.714,4.253,14.738,10.864,18.388l0.92,12.875c0.322,4.505,2.623,8.582,6.312,11.186l14.291,10.088 c0.063,0.045,0.121,0.084,0.18,0.123l2.668,1.779C40.73,92.768,44.798,94,49,94s8.27-1.232,11.766-3.562l2.672-1.781 c0.12-0.08,0.242-0.166,0.362-0.256l13.565-10.173c3.317-2.488,5.473-6.279,5.915-10.402l1.414-13.199 C91.57,51.067,96,43.943,96,36V14C96,9.589,92.411,6,88,6z"/><path fill="#707cc0" d="M23,49c-7.168,0-13-5.832-13-13V14h10l3,18c0,1.654-1.654,7,0,7V49z"/><path fill="#707cc0" d="M75,49V39c1.654,0,1-5.346,1-7l2-18h10v22C88,43.168,82.168,49,75,49z"/><path fill="#9ba7c5" d="M78,42c0-13.807-7-27-29-27c-20,0-29,13.193-29,27s15.193,37,29,37S78,55.807,78,42z"/><path fill="#ffc7a3" d="M39,82l2.672,1.781C43.842,85.228,46.392,86,49,86h0c2.608,0,5.158-0.772,7.328-2.219L59,82l3-34H36L39,82z"/><path fill="#ffc7a3" d="M39,65l-5.149-3.722C31.372,58.524,30,52.95,30,49.244v-8.675c0-3.214,3.598-5.115,6.253-3.305L52,48L39,65 z"/><path fill="#ffc7a3" d="M59,65l5.609-3.856C66.802,58.464,68,53.108,68,49.646v-9.077c0-3.214-3.598-5.115-6.253-3.305L46,48L59,65 z"/><path fill="#9ba7c5" d="M42,75l-1,10L24.709,71.912c-1.715-1.21-2.796-3.126-2.945-5.22L20,43l10,23L42,75z"/><path fill="#9ba7c5" d="M56,75l1,10l16.291-13.088c1.715-1.21,2.796-3.126,2.945-5.22L78,43L65,66L56,75z"/><path fill="#9ba7c5" d="M36.241,59.155c-3.06,0-6.944-0.727-11.821-2.772l1.16-2.766c13.943,5.846,17.98-0.148,18.145-0.406 l2.562,1.561C46.138,55.02,43.538,59.155,36.241,59.155z"/><path fill="#9ba7c5" d="M61.759,59.155c-7.298,0-9.896-4.136-10.045-4.384l2.562-1.561c0.165,0.258,4.202,6.252,18.145,0.406 l1.16,2.766C68.704,58.428,64.818,59.155,61.759,59.155z"/><path fill="#40396e" d="M53.043,12c2.146,0,3.825,1.669,3.983,3.683c10.344,1.883,16.157,7.508,18.921,14.546 c0.404,1.028,1.917,0.768,1.93-0.337c0.063-5.458,0.104-12.361,0.118-14.899c0.003-0.55,0.45-0.994,1-0.994H87 c0.552,0,1,0.448,1,1v21c0,6.391-4.641,11.708-10.727,12.788l-1.948,18.185c-0.207,1.931-1.207,3.689-2.76,4.854L59,82 l-2.672,1.781C54.158,85.228,51.608,86,49,86s-5.158-0.772-7.328-2.219L39,82L24.709,71.912c-1.715-1.21-2.796-3.127-2.946-5.22 L20.482,48.75C14.516,47.574,10,42.306,10,36V15c0-0.552,0.448-1,1-1h8.006c0.55,0,0.996,0.443,1,0.993 c0.017,2.656,0.07,10.102,0.151,15.683c0.016,1.079,1.51,1.377,1.916,0.376c3.038-7.492,9.49-13.532,19.788-15.428 C42.049,13.633,43.709,12,45.828,12H53.043 M53.043,9h-7.215c-2.81,0-5.238,1.64-6.346,4.062 c-6.918,1.658-12.57,5.269-16.478,10.35L23,14c0-1.657-1.343-3-3-3H10c-1.657,0-3,1.343-3,3v22 c0,6.828,4.356,12.837,10.64,15.073l1.131,15.833c0.215,3.003,1.748,5.721,4.208,7.457L37.27,84.451 c0.022,0.015,0.044,0.03,0.066,0.045l2.672,1.781C42.679,88.059,45.789,89,49,89s6.321-0.941,8.992-2.723l2.672-1.781 c0.046-0.031,0.092-0.063,0.136-0.096l13.564-10.173c2.211-1.659,3.648-4.186,3.943-6.935l1.727-16.114 C86.506,49.044,91,42.985,91,36V14c0-1.657-1.343-3-3-3H78c-1.657,0-3,1.343-3,3v8.557c-3.665-4.658-8.933-7.88-15.587-9.441 C58.303,10.686,55.841,9,53.043,9L53.043,9z"/><path fill="#d9eeff" d="M71.501,33c-0.582,0-1.136-0.34-1.38-0.909c-2.739-6.392-7.692-8.703-7.742-8.726 c-0.754-0.343-1.087-1.231-0.744-1.986c0.343-0.754,1.23-1.087,1.986-0.744c0.246,0.111,6.065,2.826,9.258,10.274 c0.326,0.762-0.026,1.644-0.788,1.97C71.898,32.961,71.698,33,71.501,33z"/><path fill="#eee" d="M44,52c0,0-4.018,0-7,0s-4-3-4-3s1-3,5-3C47,46,44,52,44,52z"/><path fill="#40396e" d="M44,50c1.333,0,2.005-1.625,1.047-2.552C44.476,46.896,43.79,46.369,43,46 c-3.379-1.69-5.449-2.759-7.138-2.759C32.482,43.241,31,46,31,46s0.013-0.004,0.037-0.011c2.3-0.658,4.769-0.316,6.811,0.928 C40.093,48.285,43.01,50,44,50L44,50z"/><circle cx="39" cy="49" r="3" fill="#40396e"/><path fill="#eee" d="M59.987,46c4,0,5,3,5,3s-1.018,3-4,3s-7,0-7,0S53,46,59.987,46z"/><path fill="#40396e" d="M53.987,50c0.99,0,3.907-1.715,6.152-3.082c2.043-1.244,4.512-1.587,6.811-0.928 C66.974,45.996,66.987,46,66.987,46s-1.482-2.759-4.862-2.759c-1.69,0-3.759,1.069-7.138,2.759 c-0.79,0.369-1.476,0.896-2.047,1.448C51.982,48.375,52.654,50,53.987,50L53.987,50z"/><circle cx="59" cy="49" r="3" fill="#40396e"/><polygon fill="#9ba7c5" points="52,54 46,54 42,38 56,38"/><path fill="#707cc0" d="M50,49h-2l-6.103-32.256C41.431,14.28,43.321,12,45.828,12h7.215c2.55,0,4.448,2.353,3.91,4.845L50,49z"/><circle cx="49" cy="53" r="6" fill="#707cc0"/><circle cx="49" cy="53" r="3" fill="#ff7575"/><rect width="18" height="7" x="40" y="26" fill="#9ba7c5"/></g></svg>