<svg xmlns="http://www.w3.org/2000/svg"  viewBox="0 0 100 100" width="100px" height="100px"><path d="M51.124,99c-0.79,0-1.686,0-2.757-0.239c-0.669-0.148-1.311-0.374-1.915-0.668 c-1.676-0.059-3.298-0.572-4.947-1.561l-1.267-0.76c-0.351-0.21-0.673-0.463-0.962-0.751l-1.628-1.628 c-0.856-0.857-1.373-1.995-1.453-3.204l-0.075-1.125c-0.485-7.271-0.767-12.187-0.891-15.598c-0.428,0.064-0.887,0.104-1.375,0.104 h-0.961c-0.72,0-1.427-0.155-2.076-0.451c-0.277,0.047-0.56,0.072-0.844,0.072h-2.571c-3.306,0-6.281-1.891-8.064-5.091 c-1.593-2.076-2.101-4.122-2.479-5.646l-0.152-0.61c-0.1-0.398-0.15-0.807-0.15-1.217v-1.556c-0.125-0.443-0.189-0.902-0.189-1.363 v-0.487c0-1.268,0.217-2.482,0.633-3.603c-0.456-0.829-0.854-1.671-1.2-2.536l-0.077-0.193c-0.088-0.22-0.161-0.445-0.217-0.675 l-0.05-0.206c-2.277-9.339-2.575-16.899-0.91-23.113c1.234-4.903,4.218-9.082,8.61-12.009l0.258-0.172 c0.085-0.057,0.172-0.111,0.261-0.163c0.33-0.317,0.825-0.826,1.069-1.077c0.288-0.296,0.556-0.57,0.826-0.842 c2.073-2.306,3.702-3.584,5.154-4.621l0.113-0.081c0.125-0.089,0.253-0.172,0.386-0.25l0.12-0.07 c3.3-1.925,6.288-2.711,9.065-3.353c0.1-0.023,0.292-0.064,0.393-0.081l0.78-0.13C44.334,3.58,47.771,3,51.868,3 c1.085,0,2.181,0.042,3.255,0.124c8.339,0.495,15.552,3.272,21.966,8.483c2.676,1.978,5.12,4.439,7.074,7.126l0.078,0.108 c0.086,0.118,0.167,0.24,0.242,0.365l0.068,0.114c0.276,0.461,0.564,0.919,0.848,1.372c0.866,1.382,1.75,2.793,2.425,4.293 c2.682,4.371,3.359,10.407,1.96,17.508c-0.285,2.556-0.833,5.033-1.715,7.752l-0.648,2.873c0.98,1.513,1.499,3.298,1.499,5.24 v0.271c0,0.302-0.027,0.604-0.082,0.901L88.3,62.485c-0.122,0.673-0.381,1.314-0.76,1.883L87.12,65 c-0.557,0.847-1.858,2.825-4.168,4.274c0,0-0.663,0.437-0.798,0.526c-0.188,0.213-0.395,0.409-0.617,0.587l-0.364,0.291 c-1.979,1.581-4.14,2.382-6.427,2.382c-0.952,0-1.885-0.136-2.84-0.415c-0.152-0.028-0.303-0.061-0.452-0.096 c-0.019,2.875-0.095,6.144-0.397,9.774c-0.616,8.933-0.764,11.071-3.268,13.575l-0.682,0.681c-0.736,0.736-1.685,1.224-2.711,1.395 l-3.873,0.646c-0.608,0.144-1.231,0.216-1.859,0.216c-0.404,0-0.805-0.03-1.201-0.09c-0.416,0.061-0.84,0.091-1.272,0.091 c-0.039,0-0.078,0-0.117-0.001C55.666,98.943,55.24,99,54.805,99H51.124z" opacity=".35"/><path fill="#f2f2f2" d="M49.124,97c-0.79,0-1.686,0-2.757-0.239c-0.669-0.148-1.311-0.374-1.915-0.668 c-1.676-0.059-3.298-0.572-4.947-1.561l-1.267-0.76c-0.351-0.21-0.673-0.463-0.962-0.751l-1.628-1.628 c-0.856-0.857-1.373-1.995-1.453-3.204l-0.075-1.125c-0.485-7.271-0.767-12.187-0.891-15.598c-0.428,0.064-0.887,0.104-1.375,0.104 h-0.961c-0.72,0-1.427-0.155-2.076-0.451c-0.277,0.047-0.56,0.072-0.844,0.072h-2.571c-3.306,0-6.281-1.891-8.064-5.091 c-1.593-2.076-2.101-4.122-2.479-5.646l-0.152-0.61c-0.1-0.398-0.15-0.807-0.15-1.217v-1.556c-0.125-0.443-0.189-0.902-0.189-1.363 v-0.487c0-1.268,0.217-2.482,0.633-3.603c-0.456-0.829-0.854-1.671-1.2-2.536l-0.077-0.193c-0.088-0.22-0.161-0.445-0.217-0.675 l-0.05-0.206c-2.277-9.339-2.575-16.899-0.91-23.113c1.234-4.903,4.218-9.082,8.61-12.009l0.258-0.172 c0.085-0.057,0.172-0.111,0.261-0.163c0.33-0.317,0.825-0.826,1.069-1.077c0.288-0.296,0.556-0.57,0.826-0.842 c2.073-2.306,3.702-3.584,5.154-4.621l0.113-0.081c0.125-0.089,0.253-0.172,0.386-0.25l0.12-0.07 c3.3-1.925,6.288-2.711,9.065-3.353c0.1-0.023,0.292-0.064,0.393-0.081l0.78-0.13C42.334,1.58,45.771,1,49.868,1 c1.085,0,2.181,0.042,3.255,0.124c8.339,0.495,15.552,3.272,21.966,8.483c2.676,1.978,5.12,4.439,7.074,7.126l0.078,0.108 c0.086,0.118,0.167,0.24,0.242,0.365l0.068,0.114c0.276,0.461,0.564,0.919,0.848,1.372c0.866,1.382,1.75,2.793,2.425,4.293 c2.682,4.371,3.359,10.407,1.96,17.508c-0.285,2.556-0.833,5.033-1.715,7.752l-0.648,2.873c0.98,1.513,1.499,3.298,1.499,5.24 v0.271c0,0.302-0.027,0.604-0.082,0.901L86.3,60.485c-0.122,0.673-0.381,1.314-0.76,1.883L85.12,63 c-0.557,0.847-1.858,2.825-4.168,4.274c0,0-0.663,0.437-0.798,0.526c-0.188,0.213-0.395,0.409-0.617,0.587l-0.364,0.291 c-1.979,1.581-4.14,2.382-6.427,2.382c-0.952,0-1.885-0.136-2.84-0.415c-0.152-0.028-0.303-0.061-0.452-0.096 c-0.019,2.875-0.095,6.144-0.397,9.774c-0.616,8.933-0.764,11.071-3.268,13.575l-0.682,0.681c-0.736,0.736-1.685,1.224-2.711,1.395 l-3.873,0.646c-0.608,0.144-1.231,0.216-1.859,0.216c-0.404,0-0.805-0.03-1.201-0.09c-0.416,0.061-0.84,0.091-1.272,0.091 c-0.039,0-0.078,0-0.117-0.001C53.666,96.943,53.24,97,52.805,97H49.124z"/><path fill="#707cc0" d="M78.73,26.752c-0.569-1.518-1.898-3.416-3.036-5.314c-1.518-2.088-3.416-3.985-5.504-5.504 c-5.314-4.365-11.197-6.453-17.65-6.832c-4.934-0.38-8.92,0.38-12.336,0.949c-2.467,0.569-4.555,1.139-6.832,2.467 c-1.328,0.949-2.467,1.898-3.985,3.606c-1.518,1.518-2.847,3.036-3.796,3.416c-2.847,1.898-4.555,4.365-5.314,7.401 c-1.328,4.934-0.949,11.387,0.949,19.168c0.38,0.949,0.949,2.088,1.898,3.416c1.328,1.518,1.898,2.467,2.467,3.036 c-0.38,0-0.38,0.38-0.949,0.38l-0.949,0.38c-0.949,0.38-1.328,0.949-1.328,1.898l0.38,1.139l0.38,0.949l-0.569,0.38v0.569 c0.38,1.518,0.569,2.467,1.518,3.416c0.38,0.949,0.949,1.518,1.328,1.518h1.328c0.38-0.38,0.949-0.569,0.949-0.569 c0.569-0.569,1.328-0.569,1.898-0.38l0.949,0.38l1.328,0.949c0.569,0,0.949-0.38,1.518-0.569c0.38-0.38,0.569-0.569,0.569-0.569 l-0.949-0.38h-0.949c-0.949,0-1.328-0.38-1.328-0.569l1.898-1.518l1.898-1.518c1.328-0.569,2.847-1.139,4.365-1.139 c0.949,0.38,1.328,0.569,1.328,1.139c-0.569,0.38-0.949,0.949-0.569,1.898l0.38,1.139c0.38,0.38,0.38,0.569,0.38,0.949 c-0.949-0.38-0.949,0.38-0.569,2.088c0.38,0.949,0.569,2.088,1.328,3.416c0,3.416,0.38,10.058,0.949,18.599l0.569,0.569 l0.949,0.569c0.949,0.569,1.518,0.569,1.898,0c0.38-0.569,0.38-4.555,0.38-11.197c0-6.832-0.38-10.248-0.38-10.818l-0.569-0.569 c0.569-0.38,1.328-0.38,1.898-0.949c-0.38,3.036,0.38,11.577,0.949,24.482c0,0.38,0.38,0.38,1.328,0.38h1.518 c0.38-1.139,0.759-4.745,0.949-11.007v-8.35c0-2.467,0-4.365-0.38-5.314h1.328c-0.38,3.985-0.38,8.92-0.38,14.803 c-0.38,6.453,0,10.058,0.38,9.679h1.518c0.949,0.38,1.328-3.226,1.518-10.438c0.38-2.847,0.38-5.504,0.38-8.54 c0-2.847,0-4.934-0.38-6.453L57.095,63c1.328,0.569,1.898,1.139,1.898,1.139v0.38l-1.328,0.38l-0.569,0.38 c0,0.38,0,1.518-0.38,3.985l-0.38,8.35c-0.38,7.781,0,11.577,0.38,11.197l3.416-0.569c0.38-0.38,0.569-3.036,0.949-8.54 c0.38-4.555,0.38-8.54,0.38-11.956c0.949-0.949,1.518-2.467,2.088-4.934l0.38-2.467c0-0.569,0-1.139-0.38-1.139l-0.38-0.38 l0.38-0.569l1.898-0.569l1.898-0.569c1.518-0.38,2.847,0.38,3.796,1.139c0.38,0.569,0.569,1.139,0.38,2.088l-0.38,0.569 c0,0.38,0,0.38-0.38,0.38c-0.38,0.949,0,1.518,0.949,1.518c0.949,0.38,1.518,0.38,2.467-0.38c0.38-0.569,1.328-1.139,2.467-1.898 c0.949-0.569,1.518-1.518,1.898-2.088l0.38-2.088c0-0.949-0.38-1.139-0.949-1.518c-1.328-0.19-1.328-0.38-1.328-0.38V53.89 c0.38-0.569,0.569-1.139,0.38-1.898l1.328-5.883c0.949-2.847,1.328-4.934,1.518-6.832C81.007,33.774,80.628,29.409,78.73,26.752z M42.672,49.905h-1.898c-0.38,0.38-0.949,0.38-2.467,0l-3.985-0.569c-3.985-0.569-6.263-1.139-6.263-1.518 c-0.949-0.38-1.518-0.949-2.088-1.898s-0.949-1.518-0.569-2.088c-0.949-1.139-1.328-2.467-1.328-4.555l0.38-2.088 c0.38-0.569,0.38-0.569,0.38-0.569c-0.38-0.569,0.38-0.38,1.898,0.38c1.898,0.569,3.416,1.518,4.934,2.467 c0.949,0.38,3.796,1.898,7.781,4.555c0.949,0.569,2.467,1.139,3.985,1.898l4.365,1.898c0.38,0.38,0.38,0.38-0.38,0.569 c-0.38,0.38-1.328,0.569-2.088,0.949L42.672,49.905z M47.985,57.117l-0.38,1.898l-0.38,0.38l-0.949-0.569l-0.569-1.139 l-0.569-1.139v-0.949l0.38-0.569l0.569-0.569l0.38-0.949l0.949-2.088v-0.38l0.38-0.38l0.38-0.38l0.569-0.38l0.38-0.569l0.38-0.38 v5.504h0.569L47.985,57.117z M54.628,56.358l-0.569,1.139l-0.569,1.139l-0.569,0.569l-0.38,0.38l-0.38-2.847l-1.898-2.847v-4.365 l0.38-0.949l0.38,0.569l0.569,0.38l0.38,0.38l0.38,0.38v0.38l0.949,2.467l0.569,0.569l0.569,0.569l0.38,0.569 C55.007,55.409,55.007,55.978,54.628,56.358z M75.314,43.642c-0.38,1.139-0.569,2.088-1.328,2.467 c-0.38,0.569-0.949,1.139-1.518,1.518c-0.38,0.569-2.467,1.139-6.263,1.518l-4.365,0.569c-1.328,0.38-2.088,0.38-2.467,0 c-0.38,0.38-0.949,0-1.898-0.38l-2.467-0.38c-2.467-0.569-3.416-1.139-2.467-1.518l4.555-1.518 c1.898-0.569,3.036-1.518,3.985-2.088l3.985-2.467c1.898-1.139,3.036-1.898,3.796-2.088c1.328-0.569,3.036-1.139,5.314-1.898 c0-0.569,0.569-0.949,1.328-0.949c0.38-0.38,0.569,0,0.569,0.38c0.38,0,0.38,0.38,0.38,0.569v1.898h0.19 C76.263,40.796,76.073,42.504,75.314,43.642z"/><path fill="#40396e" d="M49.868,9c0.859,0,1.749,0.031,2.672,0.102c6.453,0.38,12.336,2.467,17.65,6.832 c2.088,1.518,3.985,3.416,5.504,5.504c1.139,1.898,2.467,3.796,3.036,5.314c1.898,2.657,2.277,7.022,1.139,12.526 c-0.19,1.898-0.569,3.985-1.518,6.832l-1.328,5.883c0.19,0.759,0,1.328-0.38,1.898v0.569c0,0,0,0.19,1.328,0.38 c0.569,0.38,0.949,0.569,0.949,1.518l-0.38,2.088c-0.38,0.569-0.949,1.518-1.898,2.088c-1.139,0.759-2.088,1.328-2.467,1.898 c-0.556,0.445-0.981,0.629-1.429,0.629c-0.317,0-0.645-0.092-1.038-0.249c-0.949,0-1.328-0.569-0.949-1.518 c0.38,0,0.38,0,0.38-0.38l0.38-0.569c0.19-0.949,0-1.518-0.38-2.088c-0.775-0.62-1.803-1.24-2.98-1.24 c-0.265,0-0.537,0.031-0.815,0.101l-1.898,0.569l-1.898,0.569l-0.38,0.569l0.38,0.38c0.38,0,0.38,0.569,0.38,1.139l-0.38,2.467 c-0.569,2.467-1.139,3.985-2.088,4.934c0,3.416,0,7.401-0.38,11.956c-0.38,5.504-0.569,8.161-0.949,8.54l-3.416,0.569 c-0.017,0.017-0.035,0.026-0.052,0.026c-0.361,0-0.69-3.796-0.328-11.223l0.38-8.35c0.38-2.467,0.38-3.606,0.38-3.985l0.569-0.38 l1.328-0.38v-0.38c0,0-0.569-0.569-1.898-1.139l-1.518,0.38c0.38,1.518,0.38,3.606,0.38,6.453c0,3.036,0,5.693-0.38,8.54 c-0.181,6.868-0.533,10.465-1.386,10.465c-0.043,0-0.087-0.009-0.132-0.027H52.54c-0.018,0.018-0.036,0.027-0.055,0.027 c-0.36,0-0.686-3.563-0.325-9.706c0-5.883,0-10.818,0.38-14.803h-1.328c0.38,0.949,0.38,2.847,0.38,5.314v8.35 c-0.19,6.263-0.569,9.869-0.949,11.007h-1.518c-0.949,0-1.328,0-1.328-0.38c-0.569-12.905-1.328-21.445-0.949-24.482 c-0.569,0.569-1.328,0.569-1.898,0.949l0.569,0.569c0,0.569,0.38,3.985,0.38,10.818c0,6.642,0,10.628-0.38,11.197 c-0.19,0.285-0.427,0.427-0.735,0.427c-0.308,0-0.688-0.142-1.162-0.427l-0.949-0.569l-0.569-0.569 c-0.569-8.54-0.949-15.182-0.949-18.599c-0.759-1.328-0.949-2.467-1.328-3.416c-0.315-1.419-0.369-2.183,0.167-2.183 c0.109,0,0.242,0.032,0.403,0.096c0-0.38,0-0.569-0.38-0.949l-0.38-1.139c-0.38-0.949,0-1.518,0.569-1.898 c0-0.569-0.38-0.759-1.328-1.139c-1.518,0-3.036,0.569-4.365,1.139l-1.898,1.518l-1.898,1.518c0,0.19,0.38,0.569,1.328,0.569h0.949 l0.949,0.38c0,0-0.19,0.19-0.569,0.569c-0.569,0.19-0.949,0.569-1.518,0.569l-1.328-0.949l-0.949-0.38 c-0.208-0.069-0.442-0.113-0.683-0.113c-0.417,0-0.854,0.132-1.215,0.493c0,0-0.569,0.19-0.949,0.569h-1.328 c-0.38,0-0.949-0.569-1.328-1.518c-0.949-0.949-1.139-1.898-1.518-3.416v-0.569l0.569-0.38l-0.38-0.949l-0.38-1.139 c0-0.949,0.38-1.518,1.328-1.898l0.949-0.38c0.569,0,0.569-0.38,0.949-0.38c-0.569-0.569-1.139-1.518-2.467-3.037 c-0.949-1.328-1.518-2.467-1.898-3.416c-1.898-7.781-2.277-14.234-0.949-19.168c0.759-3.036,2.467-5.504,5.314-7.401 c0.949-0.38,2.277-1.898,3.796-3.416c1.518-1.708,2.657-2.657,3.985-3.606c2.277-1.328,4.365-1.898,6.832-2.467 C42.981,9.588,46.134,9,49.868,9 M49.868,6c-3.675,0-6.75,0.518-9.464,0.975l-0.693,0.116L39.62,7.107l-0.09,0.021 c-2.503,0.578-4.973,1.226-7.669,2.799l-0.12,0.07l-0.113,0.08c-1.431,1.022-2.734,2.094-4.425,3.988 c-0.301,0.302-0.595,0.603-0.88,0.896c-0.653,0.67-1.541,1.582-1.917,1.822l-0.22,0.088l-0.26,0.173 c-3.39,2.26-5.595,5.337-6.554,9.144c-1.442,5.382-1.135,12.131,0.938,20.633l0.05,0.206l0.079,0.197 c0.555,1.387,1.288,2.71,2.242,4.046l0.086,0.12l0.097,0.111c0.015,0.017,0.03,0.034,0.045,0.051 c-1.008,0.908-1.546,2.163-1.546,3.667v0.487l0.154,0.462l0.036,0.107v1.411v0.569v0.369l0.09,0.358l0.065,0.262 c0.336,1.355,0.683,2.751,1.825,4.096c0.885,1.795,2.299,2.849,3.867,2.849h1.328h1.243l0.747-0.747l0.436-0.114l0.954,0.682 l0.782,0.559h0.961c1.094,0,1.898-0.422,2.329-0.648c0.056-0.029,0.113-0.062,0.175-0.089l0.672-0.224l0.464-0.487l0.569-0.569 l0.597-0.597c0.062,0.431,0.154,0.842,0.236,1.214l0.053,0.238l0.09,0.226c0.082,0.205,0.166,0.472,0.262,0.78 c0.191,0.607,0.436,1.391,0.856,2.266c0.04,3.25,0.331,8.758,0.951,18.054l0.075,1.125l0.797,0.797l0.569,0.569l0.261,0.261 l0.317,0.19l0.949,0.569c0.972,0.583,1.832,0.855,2.706,0.855c0.336,0,0.664-0.043,0.978-0.125 c0.444,0.439,1.022,0.758,1.692,0.908C47.988,92,48.489,92,49.124,92h1.518h2.162l0.062-0.186c0.01-0.001,0.02-0.002,0.029-0.004 h0.87c0.14,0.018,0.282,0.027,0.424,0.027c0.492,0,0.92-0.087,1.294-0.24c0.371,0.156,0.772,0.239,1.179,0.239 c0.285,0,0.565-0.039,0.833-0.115l3.128-0.521l0.948-0.158l0.68-0.68c1.181-1.181,1.266-2.416,1.821-10.455 c0.348-4.179,0.383-7.84,0.386-11.104c0.959-1.403,1.517-3.176,2.011-5.318l0.025-0.108l0.017-0.11l0.38-2.467l0.035-0.227v-0.199 l1.1-0.33l-0.054,0.134c-0.766,1.915-0.148,3.283,0.288,3.928c0.622,0.919,1.62,1.505,2.798,1.662 c0.47,0.157,1.038,0.292,1.686,0.292c1.52,0,2.613-0.734,3.303-1.286l0.364-0.291l0.189-0.283c0.211-0.186,0.778-0.559,1.2-0.836 l0.449-0.297c1.414-0.871,2.244-2.134,2.693-2.816l0.093-0.14l0.344-0.517l0.111-0.611l0.38-2.088l0.048-0.266v-0.271 c0-2.107-1.088-3.161-1.825-3.7c0.004-0.187-0.003-0.374-0.021-0.563l1.17-5.18c0.85-2.576,1.344-4.805,1.593-7.182 c1.239-6.112,0.74-11.076-1.444-14.399c-0.535-1.281-1.358-2.594-2.224-3.977c-0.303-0.483-0.61-0.973-0.904-1.463l-0.068-0.114 l-0.078-0.107c-1.681-2.311-3.786-4.423-6.093-6.113C66.43,8.986,60.121,6.548,52.743,6.109C51.794,6.037,50.827,6,49.868,6 L49.868,6z"/></svg>