<svg xmlns="http://www.w3.org/2000/svg"  viewBox="0 0 100 100" width="100px" height="100px"><path d="M50.484,98c-20.565,0-36.515-30.388-36.515-56.53c0-23.946,13.992-38.821,36.515-38.821C73.008,2.649,87,17.524,87,41.47 C87,67.612,71.048,98,50.484,98z" opacity=".35"/><path fill="#f2f2f2" d="M48.486,95.958C27.938,95.958,12,65.695,12,39.661C12,15.814,25.981,1,48.486,1 c22.506,0,36.487,14.814,36.487,38.661C84.973,65.695,69.034,95.958,48.486,95.958z"/><path fill="#f4665c" d="M48.454,7.352c-16.556,0-29.92,9.642-29.92,32.469s13.364,50.179,29.92,50.179 s29.92-27.352,29.92-50.179S65.01,7.352,48.454,7.352z"/><rect width="77.997" height="3.001" x="11.463" y="46.215" fill="#b73b3b" transform="rotate(-64.101 50.46 47.713)"/><rect width="3" height="83.44" x="47.013" y="6.392" fill="#b73b3b"/><rect width="3.001" height="77.997" x="45.065" y="8.716" fill="#b73b3b" transform="rotate(-25.914 46.568 47.718)"/><path fill="#b73b3b" d="M71.298,37.006c-7.152-1.245-9.48-8.723-10.195-12.359c-5.299,1.643-9.986-0.912-12.578-3.284 c-2.556,2.386-7.203,4.95-12.516,3.264c-0.843,3.592-3.447,11.133-10.612,12.38l-0.514-2.955 c7.076-1.232,8.494-11.582,8.507-11.687l0.27-2.081l1.883,0.927c6.595,3.249,11.599-2.711,11.809-2.967l1.151-1.402l1.164,1.391 c0.212,0.253,5.357,6.241,11.973,2.979l1.974-0.974l0.186,2.192c0.009,0.102,0.986,10.398,8.014,11.622L71.298,37.006z"/><path fill="#b73b3b" d="M50.013,82.312h-3c0-3.382-3.583-7.149-8.726-7.149v-3C45.301,72.162,50.013,77.41,50.013,82.312 z"/><path fill="#b73b3b" d="M50.013,82.312h-3c0-4.901,4.712-10.149,11.726-10.149v3 C53.596,75.162,50.013,78.93,50.013,82.312z"/><g><path fill="#f2f2f2" d="M27.709,30.807c0,0-3.041,2.973-3.041,9.219c0,14.02,6.314,22.747,6.314,22.747 s12.174-0.163,17.53-10.734l0,0C37.845,50.005,29.832,40.822,27.709,30.807z"/><path fill="#b73b3b" d="M30.982,64.273c-0.48,0-0.933-0.23-1.215-0.621c-0.27-0.372-6.599-9.284-6.599-23.626 c0-6.799,3.349-10.151,3.491-10.291c0.392-0.383,0.958-0.521,1.483-0.363c0.523,0.158,0.919,0.589,1.033,1.124 c2.124,10.02,10.19,18.272,19.617,20.069c0.463,0.089,0.857,0.39,1.065,0.813c0.207,0.423,0.204,0.919-0.009,1.339 c-5.701,11.252-18.313,11.55-18.848,11.557C30.996,64.273,30.989,64.273,30.982,64.273z M27.175,34.516 c-0.538,1.318-1.006,3.146-1.006,5.511c0,11.186,4.21,18.948,5.595,21.198c2.482-0.222,10.038-1.447,14.442-8.186 C37.457,50.607,30.238,43.542,27.175,34.516z"/></g><g><path fill="#f2f2f2" d="M69.264,30.807c0,0,3.041,3.031,3.041,9.219c0,14.02-6.2,22.747-6.2,22.747 S53.87,62.61,48.486,52.039l0,0C59.208,50.005,67.13,40.822,69.264,30.807z"/><path fill="#b73b3b" d="M66.104,64.273c-0.007,0-0.014,0-0.02,0c-0.537-0.007-13.206-0.305-18.936-11.554 c-0.214-0.421-0.218-0.918-0.01-1.342s0.604-0.725,1.067-0.813c9.545-1.812,17.417-9.877,19.59-20.07 c0.114-0.537,0.514-0.969,1.04-1.126c0.528-0.153,1.097-0.011,1.486,0.376c0.142,0.142,3.48,3.549,3.48,10.281 c0,14.334-6.212,23.243-6.477,23.616C67.046,64.038,66.59,64.273,66.104,64.273z M50.798,53.038 c4.425,6.734,12.013,7.963,14.517,8.187c1.365-2.263,5.489-10.022,5.489-21.198c0-2.35-0.471-4.176-1.012-5.5 C66.721,43.556,59.517,50.616,50.798,53.038z"/></g><g><path fill="#40396e" d="M48.508,90.821c-17.677,0-31.388-27.416-31.388-51.001c0-21.092,11.733-33.684,31.388-33.684 S79.896,18.729,79.896,39.82C79.896,63.405,66.185,90.821,48.508,90.821z M48.508,9.137C30.467,9.137,20.12,20.32,20.12,39.82 c0,21.741,12.663,48.001,28.388,48.001s28.388-26.26,28.388-48.001C76.896,20.32,66.549,9.137,48.508,9.137z"/></g></svg>