<svg xmlns="http://www.w3.org/2000/svg"  viewBox="0 0 100 100" width="100px" height="100px"><path d="M68.498,100.006c-3.696,0-7.4-0.849-10.729-2.43 C56.03,98.501,54.053,99,52,99c-2.051,0-4.029-0.503-5.769-1.434c-3.344,1.586-7.059,2.438-10.76,2.438 c-3.476,0-6.907-0.755-9.923-2.185c-6.884-3.265-11.041-9.58-11.51-17.417c-2.56-6.589-7.098-18.277,0.024-25.974 c-0.018-0.241-0.026-0.484-0.026-0.729V41.137c0-1.951,0.677-3.683,2.017-5.168C17.261,13.711,34.76,2.082,52.011,2.082 c17.25,0,34.748,11.625,35.957,33.878c1.349,1.49,2.028,3.222,2.028,5.175c0,0.645-0.013,2.113-0.029,3.903 c-0.024,2.735-0.056,6.24-0.056,8.644c0,0.218-0.008,0.437-0.024,0.656c7.194,7.785,2.546,19.776,0.078,25.999 c-0.487,7.9-4.653,14.242-11.535,17.489C75.406,99.251,71.972,100.005,68.498,100.006 C68.499,100.006,68.499,100.006,68.498,100.006z" opacity=".35"/><path fill="#f2f2f2" d="M66.498,98.006c-3.696,0-7.4-0.849-10.729-2.43C54.03,96.501,52.053,97,50,97 c-2.051,0-4.029-0.503-5.769-1.434c-3.344,1.586-7.059,2.438-10.76,2.438c-3.476,0-6.907-0.755-9.923-2.185 c-6.884-3.265-11.041-9.58-11.51-17.417c-2.56-6.589-7.098-18.277,0.024-25.974c-0.018-0.241-0.026-0.484-0.026-0.729V39.137 c0-1.951,0.677-3.683,2.017-5.168C15.261,11.711,32.76,0.082,50.011,0.082c17.25,0,34.748,11.625,35.957,33.878 c1.349,1.49,2.028,3.222,2.028,5.175c0,0.645-0.013,2.113-0.029,3.903c-0.024,2.735-0.056,6.24-0.056,8.644 c0,0.218-0.008,0.437-0.024,0.656c7.194,7.785,2.546,19.776,0.078,25.999c-0.487,7.9-4.653,14.242-11.535,17.489 C73.406,97.251,69.972,98.005,66.498,98.006C66.499,98.006,66.499,98.006,66.498,98.006z"/><path fill="#d9eeff" d="M54.965,87.502C54.079,89.353,52.189,90.5,50,90.5h0c-2.181,0-4.066-1.167-4.955-3.008l-0.073-0.003 c-9.758,7.837-26.352,4.087-26.477-10.416c-2.824-7.333-7.656-18.401,1.911-22.704c-1.167-0.333-1.87-1.396-1.87-2.669V39.137 c0-1.306,1.951-1.45,1.951-2.697c0-39.811,59.046-39.811,59.046,0c0,1.247,1.961,1.391,1.961,2.695 c0,1.627-0.084,8.577-0.084,12.547c0,1.2-0.866,2.558-1.732,2.667c9.507,4.347,4.712,15.326,1.832,22.63 C81.354,91.836,64.539,95.157,55.055,87.51L54.965,87.502z"/><rect width="58" height="4" x="21" y="32" fill="#707cc0"/><path fill="#40396e" d="M31,48c-6,0-5-9-5-9h19C45,39,40,48,31,48z"/><path fill="#40396e" d="M68.938,48c6,0,5-9,5-9h-19C54.938,39,59.938,48,68.938,48z"/><path fill="#40396e" d="M50,53c-8,0-22,16-22,16s17-10,22-10s22,10,22,10S58,53,50,53z"/><path fill="#9aa2e6" d="M65.75,75.75c-2.58,0-4.839,1.351-6.124,3.381l-0.057-0.286C58.657,74.283,54.652,71,50,71 s-8.657,3.283-9.569,7.845l-0.189,0.943c-1.185-2.391-3.643-4.038-6.492-4.038c-4.004,0-7.25,3.246-7.25,7.25 c0,4.004,3.246,7.25,7.25,7.25c0.599,0,1.177-0.081,1.734-0.217L35,91l9-3l6,2l6-2l9,3l-0.427-0.854 c0.384,0.063,0.775,0.104,1.177,0.104c4.004,0,7.25-3.246,7.25-7.25C73,78.996,69.754,75.75,65.75,75.75z"/><circle cx="34" cy="83" r="4" fill="#40396e"/><circle cx="66" cy="83" r="4" fill="#40396e"/><path fill="#40396e" d="M56,88l-5.854,2L44,88v-6c0-3.314,2.686-6,6-6h0c3.314,0,6,2.686,6,6V88z"/><polygon fill="#9aa2e6" points="21.848,54 28,69 18.157,74.831 14.669,62.697 17.096,57.185"/><polygon fill="#9aa2e6" points="78.132,54 71.98,69 81.823,74.831 85.312,62.697 82.885,57.185"/><path fill="none" stroke="#40396e" stroke-linecap="round" stroke-linejoin="round" stroke-miterlimit="10" stroke-width="3" d="M54.965,87.502C54.079,89.353,52.189,90.5,50,90.5h0c-2.181,0-4.066-1.167-4.955-3.008l-0.073-0.003 c-9.758,7.837-26.352,4.087-26.477-10.416c-2.824-7.333-7.656-18.401,1.911-22.704c-1.167-0.333-1.87-1.396-1.87-2.669V39.137 c0-1.306,1.951-1.45,1.951-2.697c0-39.811,59.046-39.811,59.046,0c0,1.247,1.961,1.391,1.961,2.695 c0,1.627-0.084,8.577-0.084,12.547c0,1.2-0.866,2.558-1.732,2.667c9.507,4.347,4.712,15.326,1.832,22.63 C81.354,91.836,64.539,95.157,55.055,87.51L54.965,87.502z"/></svg>