<svg xmlns="http://www.w3.org/2000/svg"  viewBox="0 0 100 100" width="100px" height="100px"><g id="Слой_2"><path d="M95,62.969c0-5.035-1.409-9.892-4.076-14.047C89.665,46.96,89,44.812,89,42.71v-1.741c0-5.969-3.126-11.437-8.128-14.498 C76.144,14.124,64.395,5.969,51,5.969c-13.06,0-24.663,7.856-29.576,19.778C15.698,28.583,12,34.418,12,40.969v3.361 c0,1.907-0.547,3.871-1.582,5.677C8.182,53.91,7,58.392,7,62.969C7,68.495,8.85,72.652,12,77c-0.799,2.033-1.178,5.481-0.886,7.7 c0.768,5.837,5.574,10.542,11.427,11.189c0.912,0.1,43.656,0.142,44.083,0.142c12.782,0,12.815-0.008,13.641-0.225 c4.873-1.275,8.51-5.227,9.492-10.314c0.419-2.17,0.297-4.339-0.333-6.364C93.002,74.642,95,68.932,95,62.969z" opacity=".35"/><path fill="#f2f2f2" d="M94,60.969c0-5.035-1.409-9.892-4.076-14.047C88.665,44.96,88,42.812,88,40.71v-1.741 c0-5.969-3.126-11.437-8.128-14.498C75.144,12.124,63.395,3.969,50,3.969c-13.06,0-24.663,7.856-29.576,19.778 C14.698,26.583,11,32.418,11,38.969v3.361c0,1.907-0.547,3.871-1.582,5.677C7.182,51.91,6,56.392,6,60.969 c0,5.526,1.756,10.904,4.905,15.253c-0.799,2.033-1.083,4.26-0.791,6.478c0.768,5.837,5.574,10.542,11.427,11.189 c0.912,0.1,43.656,0.142,44.083,0.142c12.782,0,12.815-0.008,13.641-0.225c4.873-1.275,8.51-5.227,9.492-10.314 c0.419-2.17,0.297-4.339-0.333-6.364C92.002,72.642,94,66.932,94,60.969z"/><path fill="#d9eeff" d="M29.5,41c-0.506,0-1.004,0.039-1.5,0.082V27c-6.627,0-12,5.373-12,12v3.361 c0,2.874-0.815,5.669-2.244,8.163C12.012,53.569,11,57.154,11,61c0,5.83,2.322,11.061,6.003,14.717 c-1.46,1.656-2.254,3.914-1.932,6.361c0.472,3.585,3.424,6.475,7.018,6.871C26.915,89.482,31,85.718,31,81 c0-0.028-0.004-0.054-0.004-0.082C40.512,80.093,48,71.5,48,61C48,49.954,39.717,41,29.5,41z"/><path fill="#d9eeff" d="M89,61c0-4.219-1.216-8.125-3.284-11.347C84.002,46.981,83,43.916,83,40.741V39c0-6.627-5.373-12-12-12 v14.027C70.832,41.022,70.669,41,70.5,41C60.283,41,52,49.954,52,61c0,10.13,6.974,18.48,16.01,19.798 C68.008,80.866,68,80.932,68,81c0,4.934,4.466,8.824,9.576,7.849c3.141-0.599,5.666-3.134,6.272-6.274 c0.459-2.376-0.149-4.599-1.41-6.31C86.448,72.597,89,67.124,89,61z"/><polygon fill="#9ba7c5" points="71,35 29,35 23,89 77,89"/><rect width="22" height="15" x="39" y="74" fill="#d47f56"/><rect width="22" height="15" x="39" y="74" fill="#40396e" opacity=".35"/><path fill="#d47f56" d="M76.718,50.793c-1.564-1.998-4.336-1.146-5.577,0.629c0.716-3.758,0.383-6.363,0.383-9.384 c0-13.249-9.475-21.434-21.101-22.006V20c-0.142,0.003-0.282,0.012-0.424,0.016c-0.142-0.005-0.282-0.014-0.424-0.016v0.032 c-11.625,0.573-21.101,8.757-21.101,22.006c0,3.021-0.332,5.626,0.383,9.384c-1.241-1.774-4.013-2.627-5.577-0.629 c2.25-2.874,4.978,15.206,1.502,11.748c2.348,2.336,3.587-0.021,5.023-0.504C29.817,62.034,29.771,67.574,32,71 c2.565,3.942,11.908,12.679,17.577,13h0.848C56.093,83.678,65.435,73.942,68,70c2.229-3.426,2.185-7.966,2.195-7.962 c1.435,0.482,2.674,2.84,5.023,0.504C71.743,66.001,74.466,47.916,76.718,50.793z"/><path fill="#d9eeff" d="M23,36v53h7c0,0,0-20.64,0-23.894V47c0,0-1.681-23.538,14.996-10.495c2.952,2.309,7.056,2.309,10.009,0 C71.681,23.462,70,47,70,47v42h7V36C77,21.088,64.912,9,50,9h0C35.088,9,23,21.088,23,36z"/><path fill="#40396e" d="M46,56c0,0-2-12-14-8C32,48,34,56,46,56z"/><path fill="#40396e" d="M54,56c0,0,2-12,14-8C68,48,66,56,54,56z"/><path fill="#40396e" d="M50,29.232c-3.437,0-6.232-3.469-6.232-7.732s2.795-7.732,6.232-7.732s6.232,3.469,6.232,7.732 S53.437,29.232,50,29.232z M50,17.232c-1.5,0-2.768,1.954-2.768,4.268S48.5,25.768,50,25.768s2.768-1.954,2.768-4.268 S51.5,17.232,50,17.232z"/><path fill="#40396e" d="M45,27c0,0-9-4-9-10l-5.999,4.199C27.347,23.057,18,29,18,34l14-8c0,0,4,4,9,4L45,27z"/><path fill="#40396e" d="M56,27c0,0,9-4,9-10l5.999,4.199C73.653,23.057,83,29,83,34l-14-8c0,0-4,4-9,4L56,27z"/><path fill="#d9eeff" d="M70,65.106v-4.245h7V89h-7C70,89,70,68.36,70,65.106z"/><path fill="#40396e" d="M50,26c-22,0-28,17-28,17l1.951,13.007C24.632,60.549,26.753,66.753,30,70l0-2V54 c0-12.979,8.678-23.5,20-23.5S70,41.021,70,54v16l0,0c3.247-3.247,5.368-9.451,6.049-13.993L78,43C78,43,72,26,50,26z"/><path fill="#40396e" d="M62.428,90.071c-16.578,0-39.748-0.103-40.004-0.131c-4.271-0.472-7.779-3.906-8.339-8.167 c-0.299-2.273,0.228-4.558,1.458-6.449C12.006,71.338,10,66.008,10,60.5c0-3.968,1.022-7.849,2.955-11.223 C14.293,46.942,15,44.377,15,41.86V38.5c0-5.641,3.452-10.613,8.667-12.605C27.717,14.562,38.406,7,50.5,7 c12.347,0,23.122,7.776,27.022,19.421C82.087,28.698,85,33.366,85,38.5v1.741c0,2.773,0.857,5.575,2.479,8.102 C89.782,51.933,91,56.137,91,60.5c0,5.867-2.225,11.442-6.144,15.491c1.05,1.93,1.393,4.147,0.964,6.369 c-0.735,3.809-3.33,6.646-6.94,7.591C78.537,90.041,71.459,90.071,62.428,90.071z M22.693,86.951 c1.676,0.016,52.435,0.189,55.553,0.063c2.4-0.679,4.126-2.621,4.628-5.223c0.353-1.832-0.053-3.656-1.145-5.137l-0.8-1.086 l0.995-0.91C85.786,71.127,88,65.966,88,60.5c0-3.788-1.053-7.431-3.046-10.536C83.021,46.952,82,43.591,82,40.241V38.5 c0-4.173-2.475-7.949-6.306-9.622l-0.629-0.275l-0.204-0.656C71.538,17.212,61.748,10,50.5,10 c-11.043,0-20.779,7.048-24.225,17.537l-0.239,0.729l-0.73,0.232C20.936,29.893,18,33.912,18,38.5v3.36 c0,3.039-0.844,6.12-2.442,8.909C13.884,53.689,13,57.055,13,60.5c0,5.168,2.027,10.144,5.56,13.652l1.003,0.996l-0.935,1.061 c-1.263,1.433-1.821,3.27-1.57,5.173C17.438,84.271,19.804,86.604,22.693,86.951z"/><path fill="#40396e" d="M44,50c1.333,0,2.005-1.625,1.047-2.552C44.476,46.896,43.79,46.369,43,46 c-3.379-1.69-5.449-2.759-7.138-2.759C32.482,43.241,31,46,31,46s0.013-0.004,0.037-0.011c2.3-0.658,4.769-0.316,6.811,0.928 C40.093,48.285,43.01,50,44,50L44,50z"/><path fill="#40396e" d="M55.498,50c0.99,0,3.907-1.715,6.152-3.082c2.043-1.244,4.512-1.587,6.811-0.928 C68.485,45.996,68.498,46,68.498,46s-1.482-2.759-4.862-2.759c-1.69,0-3.759,1.069-7.138,2.759 c-0.79,0.369-1.476,0.896-2.047,1.448C53.493,48.375,54.165,50,55.498,50L55.498,50z"/><path fill="#f2f2f2" d="M54,56c0,0,2.347-7.042,10.562-5.868v0c-1.47,2.94-4.289,4.972-7.543,5.437L54,56z"/><path fill="#f2f2f2" d="M46,56c0,0-2.347-7.042-10.563-5.868l0,0c1.47,2.94,4.289,4.972,7.543,5.437L46,56z"/><path fill="#70bfff" d="M43.899,52.734c-1.141-1.178-2.828-2.286-5.215-2.619C38.263,50.632,38,51.282,38,52 c0,0.703,0.252,1.341,0.657,1.853c0.649,0.454,1.35,0.831,2.093,1.122C40.834,54.982,40.914,55,41,55 C42.402,55,43.57,54.034,43.899,52.734z"/><g><path fill="#70bfff" d="M56.101,52.734C56.43,54.034,57.598,55,59,55c0.086,0,0.166-0.018,0.25-0.025 c0.743-0.291,1.444-0.668,2.093-1.122C61.748,53.341,62,52.703,62,52c0-0.718-0.263-1.368-0.683-1.885 C58.929,50.448,57.242,51.556,56.101,52.734z"/></g></g></svg>