<svg xmlns="http://www.w3.org/2000/svg"  viewBox="0 0 100 100" width="100px" height="100px"><path d="M45.5,100c-1.937,0-3.758-0.854-4.996-2.343L25.507,79.661 c-0.734-0.877-1.227-1.948-1.418-3.089l-1.301-7.802C22,65,19.026,66.633,18.334,64.556l-3-9C15.111,54.884,15,54.195,15,53.5v-5 c0-1.912,0.836-3.719,2.295-4.956c0.226-0.192,0.463-0.367,0.711-0.525c-2.761-9.454-2.987-18.248-3.005-19.419 c-0.025-1.729,0.654-3.426,1.865-4.657c1.149-1.17,2.726-1.866,4.36-1.937c0.979-0.403,3.26-2.459,4.787-3.836 C31.391,8.324,39.513,2.006,52,2.006c0.003,0,0.014,0,0.017,0c12.487,0,20.609,6.318,25.983,11.161 c1.53,1.379,3.812,3.436,4.79,3.839c1.635,0.07,3.211,0.767,4.36,1.937c1.211,1.231,1.891,2.928,1.865,4.654 c-0.018,1.173-0.244,9.968-3.005,19.422c0.248,0.158,0.486,0.334,0.712,0.525c1.458,1.237,2.294,3.044,2.294,4.956v5 c0,0.695-0.111,1.384-0.331,2.047l-3.003,9.009c-0.691,2.076-2.351,3.643-4.454,4.215l-1.301,7.799 c-0.191,1.144-0.684,2.215-1.425,3.101L63.51,97.661C62.274,99.146,60.453,100,58.517,100H45.5z" opacity=".35"/><path fill="#f2f2f2" d="M43.5,98c-1.937,0-3.758-0.854-4.996-2.343L23.507,77.661c-0.734-0.877-1.227-1.948-1.418-3.089 l-1.301-7.802c-2.102-0.571-3.762-2.138-4.454-4.215l-3-9C13.111,52.884,13,52.195,13,51.5v-5c0-1.912,0.836-3.719,2.295-4.956 c0.226-0.192,0.463-0.367,0.711-0.525c-2.761-9.454-2.987-18.248-3.005-19.419c-0.025-1.729,0.654-3.426,1.865-4.657 c1.149-1.17,2.726-1.866,4.36-1.937c0.979-0.403,3.26-2.459,4.787-3.836C29.391,6.324,37.513,0.006,50,0.006 c0.003,0,0.014,0,0.017,0c12.487,0,20.609,6.318,25.983,11.161c1.53,1.379,3.812,3.436,4.79,3.839 c1.635,0.07,3.211,0.767,4.36,1.937c1.211,1.231,1.891,2.928,1.865,4.654c-0.018,1.173-0.244,9.968-3.005,19.422 c0.248,0.158,0.486,0.334,0.712,0.525c1.458,1.237,2.294,3.044,2.294,4.956v5c0,0.695-0.111,1.384-0.331,2.047l-3.003,9.009 c-0.691,2.076-2.351,3.643-4.454,4.215l-1.301,7.799c-0.191,1.144-0.684,2.215-1.425,3.101L61.51,95.661 C60.274,97.146,58.453,98,56.517,98H43.5z"/><path fill="#f2f2f2" d="M80.5,21.5c0,0,0.522,13.129-5,24l4,1v5l-3,8l-4,2l-1,12l-15,18h-13l-15-18l-2-12l-4-1l-3-9v-5l5-1 c-5.77-11.107-5-24-5-24c7,0,14-14.994,30.5-14.994C67.5,6.506,72.5,21.5,80.5,21.5z"/><polygon fill="#9ba7c5" points="44,52 35,43 33.899,23 29,26 26,36 26,48.5 20,47 20,51 23,60 27.781,60.871 27,54 31.978,50.888" opacity=".35"/><polygon fill="#9ba7c5" points="56,52 65,43 66.101,23 71,26 74,36 74,48.5 80,47 80,51 77,60 72.219,60.871 73,54 68.011,50.888" opacity=".35"/><path fill="#96c362" d="M79,23l-3-4l-12-8L53,7h-3h-3l-11,4l-12,8l-3,4c0,17,8,27,8,27s0-9,0-14s4-10,10-10s11,5,11,5 s5-5,11-5s10,5,10,10s0,14,0,14S79,40,79,23z"/><polygon fill="#9ba7c5" points="49,52 47,63 46,54 43,52 47,53" opacity=".35"/><polygon fill="#9ba7c5" points="51,52 53,63 54,54 57,52 53,53" opacity=".35"/><path fill="#40396e" d="M44.187,54.852c0,0-0.937,2.148-4.687,2.148c-5.625,0-7.5-6.125-7.5-6.125S34.812,50,38.562,50 C41.375,50,44.187,54.852,44.187,54.852z"/><path fill="#fff" d="M44.187,54.852c0,0-2.625,1.989-5.25,0.994c-3.32-1.258-3.5-3.977-3.5-3.977 s1.959-0.994,4.375-0.994C42.229,50.875,44.187,54.852,44.187,54.852z"/><circle cx="40" cy="52.927" r="2.073" fill="#de5147"/><path fill="#40396e" d="M55.813,54.852c0,0,0.938,2.148,4.688,2.148c5.625,0,7.5-6.125,7.5-6.125S65.188,50,61.438,50 C58.625,50,55.813,54.852,55.813,54.852z"/><path fill="#fff" d="M55.812,54.852c0,0,2.625,1.989,5.25,0.994c3.32-1.258,3.5-3.977,3.5-3.977 s-1.959-0.994-4.375-0.994S55.812,54.852,55.812,54.852z"/><circle cx="60" cy="52.927" r="2.073" fill="#de5147"/><path fill="#96c362" d="M31,49c0,0,0-6,5-6s7,11,13,9c0,0-1,2-4,2s-6-7-9-7S31,49,31,49z"/><path fill="#96c362" d="M69,49c0,0,0-6-5-6s-7,11-13,9c0,0,1,2,4,2s6-7,9-7S69,49,69,49z"/><polygon fill="#9ba7c5" points="27.562,60.348 33,65 39.629,75.584 44.281,90.146 28.5,73.5" opacity=".35"/><polygon fill="#9ba7c5" points="72.455,60.348 67.017,65 60.388,75.584 55.736,90.146 71.517,73.5" opacity=".35"/><path fill="#ff7575" d="M60,71c-3,1-6-1-6-1l-4,2l-4-2c0,0-3,2-6,1s-7-6-7-6c6,19,17,18,17,18s11,1,17-18C67,65,63,70,60,71 z"/><path fill="#fff" d="M49.994,79.001C46.636,79.001,42,78.044,39,73c0.704,0.379,1.448,0.646,2.052,0.846 c0.863,0.288,1.78,0.435,2.725,0.435c1.362,0,2.605-0.306,3.597-0.665L50,75l2.627-1.385c0.991,0.359,2.233,0.665,3.597,0.665 c0.944,0,1.861-0.146,2.725-0.435c0.604-0.2,1.348-0.467,2.052-0.846C58,78.044,53.355,79.001,49.994,79.001z"/><path fill="none" stroke="#40396e" stroke-linecap="round" stroke-linejoin="round" stroke-miterlimit="10" stroke-width="3" d="M50,91.5h-4.626c-1.187,0-2.313-0.527-3.073-1.439L28.5,73.5l-2-12l-4-1l-3-9v-5l6,1c-5.77-11.107-6-26-6-26 c7,0,14-14.994,30.5-14.994"/><path fill="none" stroke="#40396e" stroke-linecap="round" stroke-linejoin="round" stroke-miterlimit="10" stroke-width="3" d="M50.017,91.5h4.626c1.187,0,2.313-0.527,3.073-1.439L71.517,73.5l2-12l4-1l3-9v-5l-6,1c5.77-11.107,6-26,6-26 c-7,0-14-14.994-30.5-14.994"/><polygon fill="#9ba7c5" points="51,70 49,70 44,65 49,68 51,68 56,65" opacity=".35"/></svg>