<svg xmlns="http://www.w3.org/2000/svg"  viewBox="0 0 100 100" width="100px" height="100px"><path d="M50.999,100c-21.656,0-35.476-35.316-35.476-59.628 c0-23.67,13.594-38.374,35.476-38.374s35.476,14.704,35.476,38.374C86.474,64.684,72.655,100,50.999,100z" opacity=".35"/><path fill="#f2f2f2" d="M49.001,98.002c-21.656,0-35.476-35.316-35.476-59.628C13.526,14.704,27.119,0,49.001,0 s35.476,14.704,35.476,38.374C84.477,62.687,70.657,98.002,49.001,98.002z"/><path fill="#707cc0" d="M49.001,6.493c-16.037,0-28.983,9.468-28.983,31.881s12.946,53.135,28.983,53.135 s28.983-30.722,28.983-53.135S65.038,6.493,49.001,6.493z"/><path fill="#fff" d="M33.782,16.055c0,0-2.561,2.948-2.561,9.538s1.15,6.849,1.926,6.849 c0.905,0,1.251-2.326,1.251-2.326s4.435,5.879,6.89,15.765l0.459-5.492c0,0,3.04,4.846,2.421,8.722l-3.397-0.646l3.48,4.652 c0,0-19.592-2.528-19.592-14.481l1.963,2.399C26.622,41.035,21.001,25.335,33.782,16.055z"/><path fill="#fff" d="M64.22,16.055c0,0,2.561,2.948,2.561,9.538s-1.15,6.849-1.926,6.849 c-0.905,0-1.251-2.326-1.251-2.326s-4.435,5.879-6.89,15.765l-0.459-5.492c0,0-3.04,4.846-2.421,8.722l3.397-0.646l-3.48,4.652 c0,0,19.592-2.528,19.592-14.481l-1.963,2.399C71.381,41.035,77.002,25.335,64.22,16.055z"/><path fill="#de5147" d="M77.125,44.54c0,0-7.652,13.199-28.123,13.199c-19.476,0-28.123-13.199-28.123-13.199 c5.648,44.175,27.902,46.853,28.118,46.913l0,0.003c0,0,0.005-0.001,0.005-0.001c0,0,0.005,0.001,0.005,0.001v-0.003 C49.217,91.394,72.654,87.031,77.125,44.54z"/><path fill="#fff" d="M46.007,58.833l2.119,3.531l-1.362,9.449C46.763,71.812,42.825,65.398,46.007,58.833z"/><path fill="#fff" d="M40.714,58.292l2.119,3.531l-1.362,9.449C41.471,71.271,37.533,64.857,40.714,58.292z"/><path fill="#fff" d="M36.599,57.433l1.699,2.832l-1.093,7.578C37.205,67.842,34.047,62.698,36.599,57.433z"/><path fill="#fff" d="M32.966,56.293l1.489,2.481l-0.957,6.639C33.498,65.413,30.731,60.906,32.966,56.293z"/><path fill="#fff" d="M29.266,54.801l1.256,2.093l-0.808,5.601C29.714,62.495,27.379,58.693,29.266,54.801z"/><path fill="#fff" d="M46.797,78.163l0.973,7.29l-1.362,2.016C46.408,87.469,44.239,82.816,46.797,78.163z"/><path fill="#fff" d="M43.886,74.742l0.804,8.074l-1.159,3.492C43.531,86.308,41.209,81.661,43.886,74.742z"/><path fill="#fff" d="M40.846,75.871l0.577,5.799l-0.832,2.508C40.591,84.179,38.924,80.841,40.846,75.871z"/><path fill="#fff" d="M38.203,73.056l0.577,5.799l-0.832,2.508C37.948,81.364,36.281,78.026,38.203,73.056z"/><path fill="#fff" d="M35.56,68.903l0.577,5.799l-0.832,2.508C35.305,77.21,33.637,73.873,35.56,68.903z"/><path fill="#fff" d="M51.995,58.833l-2.119,3.531l1.362,9.449C51.239,71.812,55.177,65.398,51.995,58.833z"/><path fill="#fff" d="M57.288,58.292l-2.119,3.531l1.362,9.449C56.531,71.271,60.47,64.857,57.288,58.292z"/><path fill="#fff" d="M61.404,57.433l-1.699,2.832l1.093,7.578C60.797,67.842,63.955,62.698,61.404,57.433z"/><path fill="#fff" d="M65.036,56.293l-1.489,2.481l0.957,6.639C64.504,65.413,67.271,60.906,65.036,56.293z"/><path fill="#fff" d="M68.737,54.801l-1.256,2.093l0.808,5.601C68.288,62.495,70.623,58.693,68.737,54.801z"/><path fill="#fff" d="M51.206,78.163l-0.973,7.29l1.362,2.016C51.595,87.469,53.763,82.816,51.206,78.163z"/><path fill="#fff" d="M54.117,74.742l-0.804,8.074l1.159,3.492C54.471,86.308,56.793,81.661,54.117,74.742z"/><path fill="#fff" d="M57.156,75.871l-0.577,5.799l0.832,2.508C57.411,84.179,59.079,80.841,57.156,75.871z"/><path fill="#fff" d="M59.799,73.056l-0.577,5.799l0.832,2.508C60.054,81.364,61.722,78.026,59.799,73.056z"/><path fill="#fff" d="M62.442,68.903l-0.577,5.799l0.832,2.508C62.697,77.21,64.365,73.873,62.442,68.903z"/><path fill="none" stroke="#40396e" stroke-linecap="round" stroke-linejoin="round" stroke-miterlimit="10" stroke-width="3" d="M49.001,6.493c-16.037,0-28.983,9.468-28.983,31.881s12.946,53.135,28.983,53.135s28.983-30.722,28.983-53.135 S65.038,6.493,49.001,6.493z"/></svg>